<?xml version="1.0" encoding="UTF-8" standalone="no"?>
<svg
        width="978.017"
        height="281.334"
        viewBox="0 0 916.89 263.75"
        version="1.1"
        id="svg1315"
        sodipodi:docname="RSG2_logoText.svg"
        inkscape:version="1.1 (c68e22c387, 2021-05-23)"
        xmlns:inkscape="http://www.inkscape.org/namespaces/inkscape"
        xmlns:sodipodi="http://sodipodi.sourceforge.net/DTD/sodipodi-0.dtd"
        xmlns="http://www.w3.org/2000/svg"
        xmlns:svg="http://www.w3.org/2000/svg">
    <defs
            id="defs1319"/>
    <sodipodi:namedview
            id="namedview1317"
            pagecolor="#ffffff"
            bordercolor="#666666"
            borderopacity="1.0"
            inkscape:pageshadow="2"
            inkscape:pageopacity="0"
            inkscape:pagecheckerboard="0"
            showgrid="false"
            inkscape:zoom="3.3923182"
            inkscape:cx="135.01092"
            inkscape:cy="169.648"
            inkscape:window-width="1347"
            inkscape:window-height="1003"
            inkscape:window-x="328"
            inkscape:window-y="43"
            inkscape:window-maximized="0"
            inkscape:current-layer="layer12"
            inkscape:showpageshadow="2"
            inkscape:deskcolor="#d1d1d1"/>
    <g
            inkscape:groupmode="layer"
            id="layer3"
            inkscape:label="base"
            style="display:inline">
        <g
                stroke-linejoin="round"
                id="g1273">
            <path
                    d="M 95.267,179.621 38.582,179.8 c -1.521,0.008 0.799,-22.33 5.204,-38.661 4.406,-16.33 10.922,-25.085 15.214,-32.517 4.186,-7.25 24.608,-26.615 24.608,-26.615 l 33.904,16.003 c 0,0 -13.584,13.386 -17.9,35.855 -1.754,9.134 -4.345,45.756 -4.345,45.756 z"
                    fill="#58a323"
                    fill-rule="evenodd"
                    stroke="#ffffff"
                    stroke-width="2.915"
                    id="path1261"/>
            <path
                    d="m 179.804,168.246 0.179,56.685 c 0.008,1.522 -22.33,-0.799 -38.661,-5.204 -16.33,-4.406 -25.084,-10.922 -32.517,-15.213 -7.25,-4.187 -26.615,-24.61 -26.615,-24.61 l 13.185,-0.149 2.818,-33.754 c 0,0 13.386,13.585 35.855,17.9 9.135,1.755 45.756,4.345 45.756,4.345 z"
                    fill="#0d6dab"
                    fill-rule="evenodd"
                    stroke="#ffffff"
                    stroke-width="2.915"
                    id="path1263"/>
            <path
                    d="m 168.236,83.536 56.685,-0.178 c 1.522,-0.008 -0.798,22.33 -5.204,38.66 -4.405,16.331 -10.922,25.085 -15.213,32.517 -4.186,7.25 -24.609,26.616 -24.609,26.616 l -0.078,-12.868 -33.826,-3.136 c 0,0 13.585,-13.385 17.9,-35.855 1.755,-9.134 4.345,-45.756 4.345,-45.756 z"
                    fill="#e52626"
                    fill-rule="evenodd"
                    stroke="#ffffff"
                    stroke-width="2.915"
                    stroke-linecap="round"
                    id="path1265"/>
            <path
                    d="M 83.54,95.005 83.362,38.32 c -0.008,-1.522 22.33,0.799 38.661,5.204 16.33,4.406 25.084,10.922 32.517,15.213 7.25,4.186 26.615,24.609 26.615,24.609 l -13.12,0.014 -2.883,33.889 c 0,0 -13.386,-13.585 -35.856,-17.9 -9.134,-1.755 -45.755,-4.345 -45.755,-4.345 z"
                    fill="#ff6600"
                    fill-rule="evenodd"
                    stroke="#ffffff"
                    stroke-width="2.915"
                    id="path1267"/>
            <path
                    d="m 102.863,133.65 c -0.789,4.105 -0.496,1.652 -1.275,10.908 m 17.364,-43.14 c 0,0 -12.21,12.034 -16.09,32.232 m -1.275,10.909 c 0,0 12.032,12.21 32.23,16.09 2.233,0.428 5.767,0.892 10.496,1.37 m 17.658,-43.149 c 0,0 -12.09,-12.243 -32.287,-16.123 -2.254,-0.433 -5.945,-0.846 -10.732,-1.328 m 25.36,60.6 c 0,0 12.45,-12.282 16.33,-32.48 0.412,-2.147 0.869,-6.173 1.329,-10.669"
                    fill="none"
                    stroke="#666666"
                    stroke-width="1.095"
                    stroke-linecap="round"
                    id="path1269"/>
            <path
                    d="m 81.76,81.512 c 0,0 -23.408,22.645 -30.444,36.23 -7.75,13.209 -11.096,27.094 -13.232,42.177 -1.039,7.018 -2.068,21.656 -2.068,21.656 l 45.074,-0.166 c 0,0 22.402,23.525 36.42,30.637 12.811,7.432 25.71,10.887 40.294,13.284 7.279,1.065 24.097,2.404 24.097,2.404 l -0.01,-46.266 c 0,0 22.318,-20.26 29.418,-34.224 7.432,-12.81 11.674,-27.497 13.796,-42.08 1.064,-7.28 1.893,-23.33 1.893,-23.33 0,0 -30.514,-0.354 -45.034,-0.333 C 171.26,70.549 160.604,59.087 146.834,51.925 133.295,43.955 117.96,39.792 102.499,37.621 96.485,36.633 81.263,36.016 81.263,36.016 Z"
                    fill="none"
                    stroke="#666666"
                    stroke-width="1.166"
                    id="path1271"/>
        </g>
    </g>
    <g
            inkscape:groupmode="layer"
            id="layer2"
            inkscape:label="color characters 01 R"
            style="display:inline">
        <path
                id="path1279"
                style="display:inline;fill:#58a323;fill-opacity:1;stroke:#ffffff;stroke-width:3;stroke-opacity:1"
                d="m 289.20746,58.725343 c -11.37799,-0.003 -19.60916,0.213499 -20.21116,0.536499 -0.558,0.3 -1.18793,0.990254 -1.39893,1.536253 -0.211,0.547 -2.36454,10.686285 -4.78454,22.529273 -2.41999,11.842988 -5.30601,25.938992 -6.416,31.321992 -1.108,5.38399 -4.00682,19.60415 -6.43982,31.60214 a 12928.48,12928.48 0 0 1 -5.60851,27.54819 c -2.04,9.86799 -2.24985,9.71715 13.27513,9.51415 9.70099,-0.127 11.44025,-0.28099 12.24425,-1.08399 0.935,-0.938 2.38889,-7.40123 8.38988,-37.3022 l 2.7356,-13.62853 3.7683,0.26916 c 2.072,0.15 4.14643,0.58629 4.61243,0.97229 1.43899,1.194 1.00202,4.69056 -3.09998,24.85654 -4.30799,21.17398 -4.32953,21.58408 -1.30554,24.42808 1.395,1.31 1.68077,1.3436 12.91076,1.5216 12.40698,0.196 14.47191,-0.1371 15.05491,-2.4591 0.192,-0.764 -0.0358,-1.8208 -0.56579,-2.5708 -0.49,-0.7 -0.89173,-1.94323 -0.89173,-2.76123 0,-0.81999 1.7859,-10.26619 3.96789,-20.99118 3.343,-16.43199 3.9267,-20.13156 3.7207,-23.51255 -0.274,-4.5 -2.31521,-9.46177 -4.64721,-11.29577 -1.333,-1.049 -1.87261,-2.86926 -0.84961,-2.86926 0.282,0 1.92263,-1.28876 3.64563,-2.86376 4.80499,-4.392 6.44361,-8.37505 9.28161,-22.586039 2.56699,-12.857987 2.66967,-16.014248 0.66467,-20.546243 -1.597,-3.609996 -4.86628,-6.977622 -8.61327,-8.86962 -5.977,-3.016997 -8.39169,-3.287895 -29.43967,-3.295895 z m 1.93542,24.039892 c 1.96802,-0.02375 4.82888,0.286738 6.08825,0.812988 3.3,1.378998 3.51678,2.726553 1.77979,11.070545 -1.698,8.152992 -2.83926,10.489672 -5.81726,11.903672 -1.125,0.534 -3.65284,1.0981 -5.61584,1.2561 -3.53499,0.283 -3.56661,0.27398 -3.25561,-1.05102 0.615,-2.612 4.78088,-23.143819 4.78088,-23.563819 0,-0.279749 0.85898,-0.414216 2.03979,-0.428466 z"/>
    </g>
    <g
            inkscape:groupmode="layer"
            id="layer4"
            inkscape:label="color characters 02 S"
            style="display:inline">
        <path
                d="m 356.796,185.106 c 9.146,-1.111 15.82,-3.971 20.673,-8.858 5.426,-5.465 8.846,-13.287 11.528,-26.362 1.551,-7.562 1.669,-11.724 0.465,-16.375 -1.89,-7.291 -4.98,-11.677 -17.821,-25.295 -7.281,-7.72 -8.457,-9.425 -9.045,-13.098 -0.456,-2.85 0.703,-8.597 2.088,-10.358 1.092,-1.388 4.29,-2.28 6.104,-1.705 0.92,0.292 1.092,0.856 1.081,3.526 -0.006,2.804 -0.245,4.385 -1.398,9.462 -0.181,0.799 0.125,1.658 0.844,2.377 1.06,1.06 1.842,1.128 13.152,1.128 11.146,0 12.104,-0.075 13.107,-1.084 2.232,-2.231 4.137,-12.57 3.869,-21.002 -0.18,-5.656 -0.354,-6.503 -2.037,-9.924 -1.088,-2.207 -2.773,-4.537 -4.115,-5.685 -6.767,-5.793 -21.221,-7.452 -34.833,-4 -8.702,2.208 -14.18,5.688 -18.515,11.763 -5.883,8.247 -10.543,25.678 -9.174,34.332 0.977,6.186 6.068,13.624 17.66,25.802 3.66,3.846 7.255,7.841 7.99,8.88 1.765,2.498 2.276,5.62 1.65,10.098 -1.063,7.61 -2.43,9.548 -6.73,9.548 -2.123,0 -2.797,-0.236 -3.287,-1.15 -0.674,-1.261 -0.336,-5.423 0.877,-10.776 0.684,-3.024 0.66,-3.333 -0.341,-4.335 -1,-1 -1.976,-1.079 -13.296,-1.079 -11.185,0 -12.299,0.092 -13.157,1.037 -0.515,0.57 -1.603,3.905 -2.417,7.411 -1.906,8.211 -2.11,17.041 -0.505,21.934 1.227,3.741 4.802,8.075 8.366,10.14 5.964,3.456 16.82,4.912 27.217,3.648 z"
                fill="#58a323"
                id="path1275"
                style="display:inline;stroke:#ffffff;stroke-width:3"/>
    </g>
    <g
            inkscape:groupmode="layer"
            id="layer5"
            inkscape:label="color characters 03 G"
            style="display:inline">
        <path
                d="m 419.261,184.877 c 4.488,-0.943 8.076,-2.43 10.759,-4.453 2.502,-1.888 3.558,-1.835 4.333,0.219 0.88,2.331 2.592,2.802 10.194,2.802 6.946,0 9.787,-0.584 10.39,-2.137 0.317,-0.817 8.135,-38.871 13.22,-64.357 1.93,-9.67 1.806,-10.848 -1.213,-11.451 -3.06,-0.613 -28.746,-0.412 -30.611,0.239 -0.945,0.329 -1.876,1.011 -2.069,1.516 -0.194,0.504 -1.34,5.678 -2.544,11.496 -2.605,12.567 -2.476,13.237 2.573,13.237 1.05,0 1.91,0.069 1.91,0.162 0,0.895 -4.51,21.74 -4.945,22.856 -1.031,2.644 -2.822,3.829 -5.787,3.829 h -2.691 v -3.429 c 0,-3.062 10.773,-58.516 13.097,-67.415 1.133,-4.336 2.62,-5.782 5.95,-5.782 3.792,0 4.24,0.754 3.41,5.765 -0.365,2.212 -0.808,4.674 -0.981,5.472 -0.208,0.948 0.002,1.771 0.61,2.378 0.808,0.808 2.553,0.926 13.736,0.926 h 12.81 l 0.78,-1.537 c 0.428,-0.846 1.343,-4.556 2.033,-8.244 3.354,-17.919 -0.968,-26.147 -15.649,-29.796 -5.024,-1.248 -19.916,-1.193 -25.728,0.096 -12.457,2.763 -20.018,9.93 -24.245,22.982 -0.77,2.376 -6.248,28.546 -14.637,69.914 -3.405,16.788 -3.181,22.421 1.125,28.336 4.143,5.688 14.479,8.415 24.17,6.376 z"
                fill="#0d6dab"
                id="path1277"
                style="display:inline;stroke:#ffffff;stroke-width:3"/>
    </g>
    <g
            inkscape:groupmode="layer"
            id="layer6"
            inkscape:label="color characters 04 a"
            style="display:inline">
        <path
                id="path1291"
                style="display:inline;stroke:#ffffff;stroke-width:3;fill:#0d6dab;fill-opacity:1"
                d="M 513.18366 90.682707 C 506.77045 90.673031 500.1185 91.847532 495.04526 94.30453 C 490.21526 96.644527 485.7602 101.20956 483.1782 106.46455 C 481.0242 110.85055 478.71226 118.45974 478.71226 121.16974 L 478.71226 122.47894 L 500.93209 122.47894 L 501.29464 119.84955 C 502.29464 112.54455 508.1515 107.73487 511.7115 111.29487 C 514.0635 113.64487 512.69767 118.00681 508.76167 120.7138 C 505.63867 122.8638 503.66405 123.68881 493.06406 127.2708 C 482.85307 130.7208 480.49315 131.96388 476.92516 135.77787 C 471.07516 142.03187 467.31266 154.20224 467.28466 166.94422 C 467.27266 172.60522 467.45688 174.06165 468.45288 176.23865 C 469.79388 179.17264 472.66944 181.72556 475.76244 182.73156 C 477.01644 183.13656 480.26114 183.35837 483.76414 183.28637 C 489.11713 183.16837 489.99163 182.99258 493.27463 181.37658 C 495.26163 180.39858 497.95883 178.6815 499.26583 177.5625 L 501.64254 175.52637 L 501.64254 181.20812 L 525.41693 181.20812 L 525.51031 175.75342 C 525.58431 171.26442 526.60413 165.407 531.27813 142.61503 C 536.12812 118.97105 536.97132 114.11164 537.00932 109.33564 C 537.06732 103.00265 535.9768 99.586109 532.87481 96.379112 C 529.27987 92.664366 521.42923 90.695148 513.18366 90.682707 z M 507.30049 139.86845 C 507.38041 139.85974 507.43452 139.86876 507.45796 139.89957 C 507.53896 140.00857 506.68682 144.4458 505.56282 149.75979 C 503.49082 159.55478 502.7505 161.34715 499.9305 163.39015 C 497.99651 164.79115 495.99424 165.1137 494.38425 164.2837 C 491.91025 163.00671 491.61881 161.57366 492.7308 156.15566 C 494.0708 149.63667 494.51722 148.60764 497.08322 146.13065 C 498.92728 144.3494 506.10177 139.99906 507.30049 139.86845 z "/>
    </g>
    <g
            inkscape:groupmode="layer"
            id="layer7"
            inkscape:label="color characters 05 l"
            style="display:inline">
        <path
                style="display:inline;fill:#0d6dab;fill-opacity:1;stroke:#ffffff;stroke-width:3"
                d="m 562.83,182.326 c 0.476,-0.486 2.133,-7.31 3.943,-16.22 1.72,-8.46 4.26,-20.918 5.647,-27.686 8.367,-40.837 15.358,-75.957 15.358,-77.156 0,-0.8 -0.457,-1.634 -1.082,-1.968 -0.649,-0.348 -5.871,-0.579 -13.057,-0.579 -11.194,0 -12.04,0.068 -12.97,1.1 -0.65,0.719 -1.736,4.732 -3.138,11.606 -1.178,5.778 -3.795,18.56 -5.815,28.404 -2.019,9.844 -5.919,28.972 -8.665,42.508 -2.748,13.536 -5.637,27.73 -6.422,31.543 -2.024,9.833 -2.385,9.587 13.796,9.412 9.444,-0.099 11.738,-0.28 12.406,-0.964 z"
                id="path1283"/>
    </g>
    <g
            inkscape:groupmode="layer"
            id="layer8"
            inkscape:label="color characters 06 l"
            style="display:inline">
        <path
                style="display:inline;fill:#0d6dab;fill-opacity:1;stroke:#ffffff;stroke-width:3"
                d="m 601.513,182.256 c 1.149,-1.15 -0.094,4.68 16.431,-77.115 4.631,-22.919 8.551,-42.232 8.711,-42.92 0.189,-0.805 -0.103,-1.651 -0.834,-2.376 -1.059,-1.06 -1.844,-1.128 -12.91,-1.128 -6.561,0 -12.233,0.24 -12.799,0.544 -0.558,0.3 -1.19,0.992 -1.402,1.538 -0.367,0.944 -7.402,35.002 -19.092,92.443 -2.912,14.304 -5.225,26.632 -5.139,27.393 0.285,2.54 1.915,2.84 14.54,2.678 9.819,-0.126 11.725,-0.286 12.494,-1.057 z"
                id="path1"/>
    </g>
    <g
            inkscape:groupmode="layer"
            id="layer9"
            inkscape:label="color characters 07 e"
            style="display:inline">
        <path
                id="path2"
                style="display:inline;fill:#0d6dab;fill-opacity:1;stroke:#ffffff;stroke-width:3"
                d="m 661.91642,89.005463 c -1.25328,-0.0041 -2.56036,0.03033 -3.92761,0.100708 -8.18999,0.421999 -12.69102,1.448985 -18.18602,4.161983 -8.75499,4.319995 -13.29415,11.043786 -16.20115,23.997776 -3.36,14.97399 -9.53612,46.50619 -9.53612,48.69319 0,3.16299 1.82961,8.73331 3.65661,11.1273 3.052,4 9.76328,7.00399 17.97727,8.04199 5.056,0.639 14.68416,0.20723 19.14915,-0.85877 v 0.002 c 7.71,-1.841 13.80325,-5.94403 17.86925,-12.03002 2.637,-3.952 4.17336,-7.81122 6.00036,-15.08421 2.476,-9.85699 2.90988,-9.50866 -11.82311,-9.50866 -13.21199,0 -12.4687,-0.33566 -13.62669,6.15234 -0.999,5.59999 -2.10759,7.72877 -4.35059,8.34777 -1.04399,0.289 -2.76839,0.38174 -3.83239,0.20874 -1.89,-0.306 -1.93297,-0.37373 -1.89697,-2.89673 0.025,-1.421 0.60339,-5.2248 1.29639,-8.4558 l 1.25976,-5.87402 17.08189,-0.15014 c 15.39199,-0.131 17.16647,-0.24195 17.95347,-1.11695 0.845,-0.939 5.41981,-21.75338 6.58081,-29.94137 1.096,-7.73099 -1.08149,-14.445982 -6.17248,-19.020977 -4.43887,-3.991746 -10.49886,-5.867019 -19.27183,-5.89599 z m -4.38537,21.150487 c 1.46841,-0.0218 2.87352,0.44189 3.89465,1.46301 1.63399,1.634 1.61782,3.11083 -0.12818,10.72082 l -0.93017,4.05578 h -6.09192 c -4.83499,0 -6.09191,-0.16303 -6.09191,-0.78003 0,-2.171 1.93617,-9.8255 2.94617,-11.64549 1.32812,-2.39375 3.954,-3.77781 6.40136,-3.81409 z"/>
    </g>
    <g
            inkscape:groupmode="layer"
            id="layer10"
            inkscape:label="color characters 08 r"
            style="display:inline">
        <path
                style="display:inline;fill:#0d6dab;fill-opacity:1;stroke:#ffffff;stroke-width:3"
                d="m 734.145,94.893 c -3.406,2.298 -6.608,2.943 -6.437,0.396 0.232,-3.436 -0.332,-3.575 -14.45,-3.575 -12.298,0 -12.467,0.01 -13.122,1.242 -0.699,1.303 -1.975,7.177 -8.088,37.23 a 116926.67,116926.67 0 0 1 -6.966,34.223 c -3.445,16.904 -3.467,17.467 -0.75,18.5 2.17,0.825 22.566,0.665 24.26,-0.191 1.596,-0.808 1.242,0.596 6.944,-27.522 1.998,-9.843 4.028,-19.023 4.513,-20.396 1.565,-4.43 3.534,-7.179 6.315,-8.814 2.402,-1.411 3.172,-1.558 8.47,-1.621 4.773,-0.06 5.954,-0.24 6.52,-1.013 0.38,-0.52 5.381,-19.673 5.836,-23.005 -0.045,-2.76 4.065,-8.438 -0.701,-10.697 -2.486,-0.664 -10.57,3.52 -12.344,5.243 z"
                id="path3"/>
    </g>
    <g
            inkscape:groupmode="layer"
            id="layer11"
            inkscape:label="color characters 09 y"
            style="display:inline">
        <path
                d="m 748.913,164.704 c 0.261,9.86 0.977,18.442 0.812,19.108 -0.282,1.131 -0.69,1.22 -6.436,1.398 -4.524,0.136 -6.35,0.41 -6.953,1.028 -0.687,0.71 -5.373,21.414 -5.373,23.751 0,0.429 0.396,1.175 0.879,1.658 1.372,1.372 19.847,1.265 24.93,-0.148 v 0.006 c 5.386,-1.493 8.55,-3.573 11.48,-7.549 3.44,-4.667 5.567,-9.019 11.798,-24.147 a 16972.17,16972.17 0 0 1 13.974,-33.839 c 1.211,-2.922 5.948,-14.437 10.523,-25.589 3.725,-9.074 11.714,-28.025 11.714,-28.025 0,0 -26.12,-0.82 -27.264,0.057 v 0 c -0.73,0.56 -12.06,33.695 -15.015,43.906 -0.413,1.427 -1.022,2.378 -1.521,2.378 -0.714,0 -0.784,-0.961 -0.481,-6.573 0.194,-3.614 0.523,-13.798 0.73,-22.63 0.297,-12.653 0.048,-16.417 -0.515,-17.096 -0.602,-0.723 -19.57,-0.319 -21.822,-0.242 -2.013,0.069 -2.958,1.007 -3.116,3.305 l 0.242,15.944 z"
                fill="#0d6dab"
                id="path1295"
                style="display:inline;stroke:#ffffff;stroke-width:3"/>
    </g>
    <g
            inkscape:groupmode="layer"
            id="layer12"
            inkscape:label="color characters 10 2"
            style="display:inline">
        <path
                d="m 815.227,102.999 c 0.84,0.928 1.999,1.022 12.545,1.022 12.652,0 13.006,-0.09 13.706,-3.254 1.069,-4.845 2.597,-9.847 3.367,-11.022 0.957,-1.459 3.824,-2.295 5.764,-1.68 0.97,0.308 1.166,0.825 1.166,3.06 0,6.846 -4.172,12.97 -24.031,35.27 -18.945,21.272 -23.463,27.092 -24.902,32.079 -0.457,1.583 -1.73,7.26 -2.83,12.615 l -2,9.739 1.169,1.168 c 1.149,1.15 1.624,1.172 29.538,1.339 19.234,0.12 29.04,-0.029 30.452,-0.437 1.74,-0.508 2.168,-0.945 2.625,-2.687 0.664,-2.53 3.963,-18.937 3.963,-19.707 0,-0.303 -0.503,-1.054 -1.12,-1.67 -1.058,-1.059 -1.863,-1.118 -15.101,-1.118 -12.03,0 -13.982,-0.12 -13.982,-0.835 0,-0.722 3.035,-4.431 9.847,-12.03 11.351,-12.662 21.557,-24.516 23.837,-27.685 6.71,-9.328 10.553,-20.684 10.697,-31.602 0.095,-7.2 -0.409,-9.455 -3.116,-13.953 -2.132,-3.54 -5.71,-6.305 -10.336,-7.984 -4.572,-1.658 -15.361,-2.02 -22.26,-0.747 -7.456,1.378 -14.233,4.814 -18.501,9.38 -4.297,4.599 -7.796,11.665 -10.424,23.91 -0.998,5.385 -0.582,6.266 -0.073,6.829 z"
                fill="#e52626"
                id="path1285"
                style="display:inline;stroke:#ffffff;stroke-width:3"/>
    </g>
    <g
            inkscape:groupmode="layer"
            id="layer1"
            inkscape:label="grey outline"
            style="display:inline">
        <path
                d="m 293.193,106.552 c 2.978,-1.414 4.12,-3.75 5.818,-11.903 1.737,-8.344 1.52,-9.692 -1.78,-11.071 -2.015,-0.842 -8.128,-1.13 -8.128,-0.384 0,0.42 -4.165,20.951 -4.78,23.563 -0.311,1.325 -0.28,1.335 3.255,1.052 1.963,-0.158 4.49,-0.723 5.615,-1.257 z"
                fill="#ffffff"
                id="path1281"
                style="fill:none;stroke:none;stroke-width:3"/>
        <path
                d="m 661.297,122.339 c 1.746,-7.61 1.762,-9.086 0.128,-10.72 -2.723,-2.723 -8.17,-1.479 -10.295,2.351 -1.01,1.82 -2.946,9.475 -2.946,11.646 0,0.617 1.257,0.779 6.092,0.779 h 6.092 z"
                fill="#0d6dab"
                id="path1287"
                style="fill:none;stroke:none;stroke-width:3"/>
        <path
                d="m 661.297,122.339 c 1.746,-7.61 1.762,-9.086 0.128,-10.72 -2.723,-2.723 -8.17,-1.479 -10.295,2.351 -1.01,1.82 -2.946,9.475 -2.946,11.646 0,0.617 1.257,0.779 6.092,0.779 h 6.092 z"
                fill="#ffffff"
                id="path1289"
                style="fill:none;stroke:none;stroke-width:3"/>
        <path
                d="m 499.931,163.39 c 2.82,-2.043 3.56,-3.835 5.632,-13.63 1.124,-5.314 1.976,-9.751 1.895,-9.86 -0.375,-0.493 -8.408,4.33 -10.375,6.23 -2.566,2.477 -3.013,3.507 -4.353,10.026 -1.112,5.418 -0.82,6.85 1.654,8.127 1.61,0.83 3.613,0.508 5.547,-0.893 z"
                fill="#ffffff"
                id="path1293"
                style="fill:none;stroke:none;stroke-width:3"/>
        <path
                d="m 357.149,186.429 c 7.725,-0.913 15.62,-3.52 21.259,-9.146 3.024,-3.054 5.306,-6.744 7,-10.63 2.276,-5.218 3.673,-10.734 4.797,-16.233 1.136,-5.445 1.871,-11.23 0.453,-16.824 v 0 c -0.99,-3.806 -2.697,-7.396 -4.953,-10.6 -3.883,-5.503 -8.563,-10.315 -13.106,-15.128 -2.462,-2.617 -4.984,-5.109 -6.936,-7.948 v 0 a 11.179,11.179 0 0 1 -1.848,-4.62 v 0 c -0.279,-1.647 -0.002,-3.427 0.347,-5.232 v 0 c 0.372,-1.666 0.652,-3.288 1.54,-4.35 0.42,-0.607 1.315,-0.937 2.263,-1.243 0.993,-0.248 1.974,-0.405 2.751,-0.126 0.125,0.025 0.253,0.128 0.236,0.21 0.213,0.608 0.133,1.423 0.148,2.36 v 0 c 0.003,3.055 -0.672,6.13 -1.373,9.242 a 3.656,3.656 0 0 0 1.11,3.305 v 0 c 1.054,0.932 2.306,1.205 3.355,1.25 3.543,0.302 7.055,0.172 10.504,0.17 0,0 0,0 0,0 3.43,0.002 6.919,0.12 10.438,-0.166 v 0 c 1.024,-0.029 2.297,-0.262 3.376,-1.21 v 0 c 1,-1.056 1.475,-2.32 1.82,-3.417 0.6,-1.741 1.003,-3.519 1.327,-5.284 0.79,-4.29 1.151,-8.668 1.013,-13.038 v 0 c -0.056,-1.92 -0.065,-3.934 -0.475,-5.968 -0.34,-1.599 -1,-3.031 -1.665,-4.364 -1.057,-2.18 -2.428,-4.332 -4.36,-6.003 -4.325,-3.653 -9.976,-5.11 -15.385,-5.7 -6.804,-0.779 -13.727,-0.189 -20.341,1.491 -3.881,0.979 -7.733,2.372 -11.184,4.557 -3.114,1.982 -5.772,4.612 -7.897,7.594 v 0 c -3.7,5.208 -5.855,11.29 -7.458,17.334 -0.841,3.144 -1.498,6.353 -1.866,9.608 -0.306,2.647 -0.448,5.389 -0.023,8.123 0.675,4.122 2.743,7.78 5.011,11.061 v 0 c 3.796,5.54 8.337,10.472 12.91,15.271 v 0 a 266.295,266.295 0 0 1 5.073,5.472 v 0 c 1.01,1.127 2.03,2.166 2.824,3.295 1.843,2.493 1.9,6.032 1.477,9.382 -0.413,2.667 -0.603,5.334 -1.978,7.188 -0.647,1.085 -2.226,1.45 -3.761,1.496 -0.775,-0.018 -1.446,0.019 -1.926,-0.176 0,0 0,0 0,0 -0.179,-0.037 -0.357,-0.225 -0.48,-0.445 -0.476,-0.71 -0.2,-1.937 -0.154,-3.3 v 0 c 0.183,-2.262 0.615,-4.522 1.125,-6.782 0.223,-0.897 0.551,-1.97 0.483,-3.225 -0.15,-0.942 -0.614,-1.615 -1.092,-2.038 -1.093,-0.953 -2.377,-1.177 -3.404,-1.203 -3.572,-0.288 -7.114,-0.17 -10.598,-0.168 -3.463,-10e-4 -6.981,-0.111 -10.528,0.167 -0.631,0.04 -1.354,0.11 -2.116,0.366 a 3.16,3.16 0 0 0 -1.252,0.832 3.67,3.67 0 0 0 -0.662,1.19 23.294,23.294 0 0 0 -0.644,1.775 58.162,58.162 0 0 0 -1.345,4.89 v 0 c -0.944,4.067 -1.497,8.231 -1.594,12.413 v 0 c -0.088,3.313 0.047,6.762 1.114,10.056 1.477,4.499 4.74,8.344 8.814,10.693 3.803,2.187 8.106,3.17 12.314,3.72 5.147,0.69 10.377,0.682 15.522,0.056 m 62.544,-0.244 c 3.91,-0.808 7.85,-2.16 11.153,-4.633 0.938,-0.6 1.628,-1.317 2.162,-1.168 0.106,-0.226 0.279,0.38 0.633,0.942 a 4.936,4.936 0 0 0 3.247,2.886 v 0 c 2.675,0.715 5.37,0.577 7.881,0.563 0,0 0,0 0,0 2.527,0.007 5.153,0.024 7.775,-0.507 1.19,-0.118 2.73,-0.69 3.547,-2.268 0.06,-0.166 0.085,-0.269 0.09,-0.303 0.035,-0.142 0.067,-0.28 0.097,-0.412 0,0 0,0 0,0 0.107,-0.466 0.208,-0.929 0.308,-1.389 0,0 0,0 0,0 0.353,-1.623 0.695,-3.247 1.035,-4.868 v 0 c 1.128,-5.37 2.235,-10.742 3.339,-16.114 a 7486.066,7486.066 0 0 0 8.398,-41.43 c 0.608,-2.939 1.584,-6.085 1.263,-9.426 a 3.445,3.445 0 0 0 -1.073,-2.297 c -0.748,-0.58 -1.54,-0.807 -2.187,-0.904 v 0 c -0.811,-0.156 -1.573,-0.179 -2.262,-0.21 -1.248,-0.065 -2.49,-0.097 -3.726,-0.122 -3.326,-0.066 -6.65,-0.067 -9.968,-0.041 v 0 a 333.15,333.15 0 0 0 -9.747,0.196 v 0 a 91.17,91.17 0 0 0 -3.451,0.178 c 0,0 0,0 0,0 -0.376,0.028 -0.763,0.06 -1.16,0.11 0,0 0,0 0,0 -0.19,0.016 -0.47,0.053 -0.82,0.165 -0.92,0.204 -2.055,0.813 -2.673,2.102 -0.19,0.511 -0.27,0.963 -0.35,1.318 -0.204,0.861 -0.396,1.722 -0.586,2.579 a 580.764,580.764 0 0 0 -1.653,7.753 c -0.507,2.444 -1.037,4.909 -1.417,7.423 -0.214,1.295 -0.444,2.754 -0.169,4.3 v 0 a 3.201,3.201 0 0 0 1.884,2.35 c 1.18,0.413 2.309,0.388 3.253,0.365 0.438,0 0.86,0.008 1.266,0.043 0,0 0,0 0,0 0.132,0.013 0.232,0.02 0.296,0.035 0.235,0.453 0.062,0.122 -0.651,-0.915 0.009,-0.017 -0.017,0.059 -0.038,0.23 0,0 0,0 0,0 -0.041,0.253 -0.09,0.512 -0.14,0.777 -0.162,0.859 -0.336,1.72 -0.513,2.583 a 698.096,698.096 0 0 1 -1.596,7.542 716.723,716.723 0 0 1 -1.677,7.583 v 0 c -0.201,0.883 -0.403,1.763 -0.615,2.636 0,0 0,0 0,0 -0.068,0.277 -0.135,0.549 -0.205,0.814 0,0 0,0 0,0 -0.047,0.163 -0.07,0.274 -0.093,0.325 -0.413,1.007 -0.984,1.934 -1.788,2.434 -0.805,0.566 -1.923,0.737 -3.066,0.757 0,0 0,0 0,0 l -2.191,0.5 v 0 l 0.5,-2.928 c -0.005,-0.273 0.06,-0.615 0.112,-1.027 0.101,-0.736 0.22,-1.476 0.342,-2.222 0.39,-2.382 0.817,-4.762 1.25,-7.145 1.266,-6.984 2.6,-13.958 3.954,-20.93 v 0 c 1.428,-7.35 2.882,-14.695 4.39,-22.027 v 0 a 754.88,754.88 0 0 1 1.795,-8.519 c 0.388,-1.782 0.767,-3.551 1.22,-5.285 0.456,-1.598 0.88,-3.151 1.88,-4.052 0.67,-0.731 1.881,-0.947 3.101,-0.983 0.752,0.01 1.432,10e-4 1.994,0.163 0.297,0.108 0.558,0.213 0.584,0.35 0.177,0.209 0.16,0.664 0.183,1.218 -0.015,0.917 -0.175,1.872 -0.337,2.871 -0.303,1.834 -0.586,3.65 -0.972,5.421 v 0 a 3.625,3.625 0 0 0 0.88,3.298 c 0.44,0.407 0.918,0.639 1.356,0.743 0.8,0.213 1.566,0.273 2.261,0.314 0,0 0,0 0,0 3.639,0.244 7.254,0.163 10.825,0.162 l 13.255,-0.274 1.225,-1.811 v 0 c 0.558,-1.136 0.767,-2.28 0.998,-3.268 v 0 a 94.054,94.054 0 0 0 1.126,-5.243 v 0 c 0.734,-3.894 1.242,-7.896 1.05,-11.933 -0.138,-3.05 -0.753,-6.165 -2.208,-8.963 -1.356,-2.565 -3.415,-4.694 -5.819,-6.245 -2.901,-1.867 -6.158,-3.005 -9.411,-3.806 -1.847,-0.454 -3.702,-0.601 -5.495,-0.72 a 101.52,101.52 0 0 0 -7.318,-0.213 v 0 c -2.485,0.009 -4.975,0.087 -7.462,0.268 v 0 c -1.945,0.139 -3.932,0.32 -5.909,0.755 -5.746,1.264 -11.334,3.785 -15.678,7.883 -4.509,4.296 -7.429,9.948 -9.3,15.765 -0.23,0.721 -0.377,1.42 -0.527,2.07 v 0 a 296.45,296.45 0 0 0 -0.93,4.132 v 0 c -1.039,4.741 -2.037,9.489 -3.03,14.234 v 0 c -3.458,16.515 -6.823,33.047 -10.176,49.58 -1.228,6.006 -2.586,12.17 -2.348,18.482 0.154,3.803 1.4,7.542 3.645,10.638 2.569,3.462 6.57,5.444 10.556,6.463 4.735,1.093 9.75,0.99 14.522,-0.187 l -0.103,-0.49 m -147.963,-1.235 c 1.012,-1.23 1.308,-2.301 1.363,-2.856 0.597,-1.998 1.04,-3.99 1.47,-5.906 2.223,-9.887 4.208,-20.107 6.104,-29.555 l 1.684,-12.825 c 0,0 0,0 0,0 l 2.713,1.069 c 0,0 0,0 0,0 0.905,0.067 1.79,0.18 2.64,0.36 0,0 0,0 0,0 0.72,0.258 1.084,0.184 0.84,0.157 -0.078,-0.234 -0.134,-0.071 -0.009,0.25 0.134,0.916 -0.032,2.024 -0.17,3.277 -0.802,6.458 -2.319,13.063 -3.603,19.39 -1.325,6.454 -3.06,12.632 -3.44,19.377 0,0 0,0 0,0 -0.116,1.205 -0.045,2.684 0.602,4.247 0.638,1.24 1.448,2.073 2.122,2.656 0.332,0.34 0.829,0.742 1.534,1.113 0.913,0.4 1.727,0.552 2.368,0.602 3.563,0.411 7.092,0.303 10.345,0.35 3.999,0.077 8.073,0.36 12.314,-0.312 0.865,-0.083 1.974,-0.383 3.124,-1.16 0.883,-0.741 1.401,-1.629 1.588,-2.501 0.346,-1.596 -0.024,-3.1 -0.87,-4.207 -0.318,-0.488 -0.526,-1.086 -0.528,-1.611 -0.014,0.03 0.025,-0.103 0.06,-0.404 0.065,-0.448 0.143,-0.906 0.224,-1.374 0.266,-1.543 0.555,-3.091 0.846,-4.63 0,0 0,0 0,0 0.905,-4.79 1.853,-9.544 2.797,-14.181 1.161,-5.706 2.316,-11.114 3.207,-16.735 0.378,-2.325 0.691,-4.754 0.551,-7.296 a 22.824,22.824 0 0 0 -1.7,-7.287 c -0.715,-1.889 -1.825,-3.897 -3.707,-5.459 -0.32,-0.29 -0.587,-0.584 -0.627,-0.823 0.059,-0.111 -0.006,0.054 -0.08,0.55 -0.45,0.688 -0.863,1.003 -1.379,0.976 1.229,-0.234 1.733,-0.478 1.548,-0.556 0,0 0,0 0,0 0.367,-0.244 0.686,-0.487 0.97,-0.711 a 43.42,43.42 0 0 0 2.477,-2.12 c 2.55,-2.332 4.573,-5.175 5.878,-8.326 2.073,-5.09 3.053,-10.47 4.013,-15.341 0.917,-4.541 1.917,-8.982 2.084,-13.722 a 18.59,18.59 0 0 0 -1.552,-8.024 c -1.959,-4.393 -5.49,-7.814 -9.54,-9.843 -1.396,-0.71 -2.861,-1.388 -4.448,-1.905 -1.78,-0.568 -3.57,-0.885 -5.297,-1.074 -6.997,-0.775 -14.307,-0.534 -20.591,-0.532 -4.898,-0.001 -9.55,0.024 -14.199,0.146 -1.44,0.038 -2.873,0.081 -4.325,0.173 -0.422,0.026 -0.872,0.058 -1.35,0.115 0,0 0,0 0,0 -0.032,-0.064 -0.476,0.01 -1.28,0.338 0,0 0,0 0,0 -1.032,0.516 -1.862,1.414 -2.32,2.58 0,0 0,0 0,0 a 5.13,5.13 0 0 0 -0.248,0.898 c -0.118,0.499 -0.229,0.992 -0.336,1.474 -0.37,1.668 -0.727,3.337 -1.071,4.96 a 2050.006,2050.006 0 0 0 -3.224,15.514 c -2.467,12.075 -4.341,21.261 -6.414,31.315 -2.296,11.151 -4.766,23.352 -6.44,31.605 -2.523,12.445 -3.783,18.714 -5.607,27.538 -0.428,2.016 -0.89,3.829 -1.008,5.99 a 6.529,6.529 0 0 0 0.285,2.464 c 0.301,0.861 0.848,1.584 1.568,2.11 2.049,1.276 4.089,1.368 5.374,1.339 3.167,0.163 7.094,0.042 9.04,0.016 5.557,-0.069 6.869,-0.057 9.608,-0.297 0,0 0,0 0,0 1.495,0.155 2.872,-0.602 3.42,-0.95 0.613,-0.39 0.601,-0.424 0.601,-0.424"
                id="path1299"
                style="fill:none;stroke:#666666"/>
        <path
                d="m 293.432,106.89 c 2.978,-1.414 4.12,-3.75 5.818,-11.902 1.737,-8.343 1.52,-9.69 -1.781,-11.07 -2.014,-0.841 -8.126,-1.13 -8.126,-0.383 0,0.42 -4.165,20.949 -4.78,23.56 -0.311,1.325 -0.28,1.335 3.254,1.052 1.963,-0.158 4.49,-0.723 5.615,-1.257 z m 270.324,76.465 c 0.332,-0.414 0.453,-0.71 0.452,-0.818 0.14,-0.373 0.251,-0.737 0.353,-1.084 0.347,-1.173 0.64,-2.348 0.922,-3.511 0.912,-3.756 1.713,-7.531 2.48,-11.305 1.875,-9.229 3.755,-18.456 5.645,-27.682 v 0 a 9719.062,9719.062 0 0 0 10.817,-53.442 c 1.12,-5.628 2.238,-11.26 3.32,-16.9 v 0 c 0.308,-1.61 0.617,-3.224 0.908,-4.845 v 0 c 0.082,-0.457 0.164,-0.919 0.24,-1.388 0.021,-0.137 0.044,-0.281 0.063,-0.432 0.01,-0.052 0.025,-0.165 0.03,-0.341 a 3.198,3.198 0 0 0 -1.61,-2.85 c -0.358,-0.164 -0.616,-0.221 -0.747,-0.227 0,0 0,0 0,0 a 11.973,11.973 0 0 0 -0.928,-0.123 c -0.955,-0.096 -1.9,-0.146 -2.83,-0.186 v 0 c -3.014,-0.134 -6.024,-0.16 -9.023,-0.16 -3.421,-0.002 -6.904,-0.128 -10.418,0.166 -0.998,0.024 -2.255,0.276 -3.293,1.262 a 4.026,4.026 0 0 0 -0.764,1.475 28.597,28.597 0 0 0 -0.746,2.43 v 0 c -0.733,2.713 -1.31,5.449 -1.865,8.17 v 0 c -1.931,9.468 -3.872,18.935 -5.815,28.4 v 0 c -2.904,14.166 -5.789,28.335 -8.664,42.506 v 0 c -2.135,10.515 -4.258,21.031 -6.421,31.537 -0.383,1.833 -0.885,3.747 -0.993,5.796 v 0 a 5.364,5.364 0 0 0 0.24,2.085 3.318,3.318 0 0 0 1.24,1.605 c 1.644,1.034 3.472,1.092 4.974,1.112 3.139,0.149 6.25,0.049 9.324,0.015 3.155,-0.032 6.348,-0.017 9.56,-0.266 0.89,0.042 2.296,0.045 3.55,-1 m 38.669,-0.061 c -0.057,0.037 0.088,-0.036 0.365,-0.296 0.39,-0.462 0.552,-0.868 0.603,-1.121 v 0 c 0.833,-2.471 1.242,-4.988 1.752,-7.397 v 0 c 4.878,-22.897 9.35,-45.87 13.982,-68.802 2.007,-9.931 4.016,-19.862 6.032,-29.792 a 8717.968,8717.968 0 0 1 2.448,-12.017 v 0 c 0.078,-0.378 0.145,-0.739 0.224,-1.076 v 0 a 3.636,3.636 0 0 0 -1.102,-3.313 c -1.041,-0.923 -2.279,-1.2 -3.321,-1.248 -3.474,-0.3 -6.916,-0.172 -10.294,-0.17 -2.891,0 -5.789,0.036 -8.689,0.159 -0.95,0.04 -1.912,0.087 -2.883,0.175 a 13.84,13.84 0 0 0 -0.94,0.111 c -0.107,-0.006 -0.369,0.043 -0.757,0.217 a 3.931,3.931 0 0 0 -1.862,2.057 2.2,2.2 0 0 0 -0.09,0.295 c -0.036,0.139 -0.068,0.272 -0.098,0.4 0,0 0,0 0,0 -0.106,0.45 -0.205,0.896 -0.303,1.338 -0.36,1.63 -0.705,3.26 -1.05,4.886 v 0 a 3814.547,3814.547 0 0 0 -3.806,18.273 v 0 c -4.639,22.46 -9.218,44.932 -13.791,67.403 a 1248.448,1248.448 0 0 0 -3.696,18.789 v 0 c -0.377,2.007 -0.75,4.021 -1.091,6.045 -0.1,0.595 -0.2,1.197 -0.285,1.81 -0.026,0.18 -0.05,0.372 -0.07,0.575 0,0 0,0 0,0 -0.015,0.06 -0.028,0.221 -0.01,0.482 0.04,0.668 0.295,1.44 0.91,2.115 v 0 c 0.828,0.734 1.769,1.01 2.544,1.11 4.084,0.738 8.168,0.4 12.09,0.342 3.201,-0.04 6.446,-0.016 9.712,-0.29 0.927,0.014 2.281,-0.06 3.477,-1.06 m 52.853,2.281 c 7.551,-1.796 14.296,-6.23 18.467,-12.446 3.147,-4.744 4.842,-10.193 6.138,-15.395 0.47,-1.856 1.047,-3.735 1.292,-5.77 a 5.72,5.72 0 0 0 -0.059,-2.05 3.082,3.082 0 0 0 -1.035,-1.652 c -1.486,-1.077 -3.19,-1.16 -4.519,-1.177 -2.858,-0.173 -5.73,-0.102 -8.47,-0.102 -2.542,0 -5.029,-0.048 -7.578,0.05 -1.277,0.025 -2.73,0.07 -4.166,0.682 a 4.077,4.077 0 0 0 -2.068,2.4 c -0.445,1.337 -0.592,2.661 -0.798,3.844 -0.387,2.09 -0.723,4.089 -1.611,5.755 -0.475,0.873 -1.19,1.617 -2.021,1.804 a 8.17,8.17 0 0 1 -3.405,0.186 c 0,0 0,0 0,0 -0.698,-0.244 -1.208,-0.107 -0.994,-0.178 -0.237,-0.12 0.002,-0.798 -0.064,-1.716 0.016,-1.094 0.21,-2.236 0.386,-3.414 0.25,-1.635 0.546,-3.252 0.888,-4.848 l 0.776,-5.477 16.594,0.245 c 4.99,-0.042 9.659,0.02 14.507,-0.282 0.846,-0.047 1.763,-0.102 2.718,-0.344 0.465,-0.097 0.988,-0.35 1.462,-0.823 0.27,-0.355 0.38,-0.607 0.389,-0.707 0.119,-0.308 0.215,-0.606 0.3,-0.887 a 58.41,58.41 0 0 0 0.758,-2.75 c 0.717,-2.805 1.355,-5.619 1.958,-8.36 1.345,-6.119 2.584,-11.863 3.422,-17.76 1.081,-7.496 -1.261,-15.143 -6.494,-19.906 -2.85,-2.55 -6.325,-4.176 -9.826,-5.045 -4.74,-1.175 -9.6,-1.242 -14.091,-1.003 -6.687,0.335 -12.981,1.52 -18.574,4.263 -4.396,2.165 -8.104,5.298 -10.679,9.097 -3.277,4.883 -4.935,10.537 -6.055,15.576 -2.334,10.405 -4.428,20.975 -6.032,29.165 -0.932,4.761 -1.74,8.967 -2.493,13.14 -0.269,1.49 -0.52,2.908 -0.748,4.338 0,0 0,0 0,0 -0.074,0.462 -0.145,0.923 -0.206,1.392 0,0 0,0 0,0 a 6.363,6.363 0 0 0 -0.079,0.872 c 0.011,2.232 0.584,4.341 1.194,6.164 0.647,2.012 1.418,3.91 2.667,5.569 2.077,2.684 4.968,4.35 7.439,5.437 4.03,1.798 8.071,2.596 11.206,2.989 3.823,0.479 7.75,0.318 9.965,0.217 3.89,-0.374 5.78,-0.706 7.358,-1.057 1.187,-0.263 2.07,-0.53 2.052,-0.525 0,0 0,0 0,0 l -0.128,-0.483"
                id="path1301"
                style="fill:none;stroke:#666666"/>
        <path
                d="m 661.497,122.675 c 1.744,-7.61 1.761,-9.084 0.128,-10.718 -2.724,-2.723 -8.17,-1.479 -10.295,2.35 -1.01,1.82 -2.946,9.474 -2.946,11.645 0,0.617 1.258,0.779 6.092,0.779 h 6.091 l 0.929,-4.056 z"
                id="path1303"
                style="fill:none;stroke:none"/>
        <path
                d="m 661.497,122.675 c 1.744,-7.61 1.761,-9.084 0.128,-10.718 -2.724,-2.723 -8.17,-1.479 -10.295,2.35 -1.01,1.82 -2.946,9.474 -2.946,11.645 0,0.617 1.258,0.779 6.092,0.779 h 6.091 l 0.929,-4.056 z m -185.824,61.338 c -3.493,-1.136 -6.408,-3.751 -7.91,-7.028 a 12.574,12.574 0 0 1 -1.044,-3.631 c 0,0 0,0 0,0 -0.257,-2.072 -0.221,-4.123 -0.214,-6.08 0.012,-6.3 0.883,-12.487 2.682,-18.308 1.519,-4.964 3.713,-9.754 7.228,-13.538 1.694,-1.815 3.63,-3.418 5.841,-4.59 3.471,-1.823 7.21,-3.004 10.705,-4.18 3.666,-1.24 7.171,-2.362 10.586,-3.79 a 26.658,26.658 0 0 0 4.863,-2.641 c 1.593,-1.12 2.932,-2.602 3.445,-4.319 0.373,-1.287 0.232,-2.802 -0.636,-3.57 -0.6,-0.594 -1.446,-0.97 -2.22,-0.901 -0.89,0.026 -1.797,0.533 -2.606,1.17 -2.256,1.813 -3.466,4.79 -3.892,7.714 l -0.856,3.062 -11.605,0.432 -11.609,-0.5 -0.5,-1.808 c 0.008,-1.091 0.211,-2.106 0.417,-3.035 a 49.694,49.694 0 0 1 1.051,-3.98 c 0.85,-2.803 1.825,-5.532 3.1,-8.131 2.71,-5.534 7.077,-10.062 12.327,-12.617 6.856,-3.304 14.49,-4.034 21.355,-3.643 3.528,0.19 6.97,0.721 10.236,1.766 2.704,0.845 5.352,2.086 7.389,4.156 1.577,1.625 2.8,3.566 3.486,5.697 0.837,2.661 0.963,5.415 0.93,7.962 -0.031,3.36 -0.545,6.662 -1.076,9.724 -1.396,8.103 -3.269,16.894 -4.674,23.744 -1.851,9.029 -3.285,15.826 -4.603,23.401 -0.595,3.435 -1.098,6.47 -1.145,9.55 l -0.593,5.945 -12.387,0.492 -12.386,-0.5 -0.5,-3.34 0.825,-2.46 -1.55,2.415 c -2.06,1.757 -4.317,3.028 -6.2,3.95 -1.45,0.724 -2.764,1.296 -4.222,1.6 0,0 0,0 0,0 -2.063,0.406 -4.419,0.389 -5.706,0.413 -2.15,0.045 -3.75,-0.019 -4.935,-0.1 -1.213,-0.271 -1.72,-0.4 -2.366,-0.628 -0.47,-0.167 -0.801,-0.323 -0.877,-0.359 l 0.156,-0.483"
                id="path1305"
                style="fill:none;stroke:#666666"/>
        <path
                d="m 500.148,163.722 c 2.819,-2.043 3.56,-3.835 5.63,-13.629 1.125,-5.313 1.977,-9.75 1.896,-9.86 -0.376,-0.492 -8.407,4.332 -10.374,6.231 -2.566,2.477 -3.013,3.507 -4.352,10.024 -1.112,5.418 -0.821,6.85 1.653,8.127 1.61,0.83 3.613,0.507 5.547,-0.893 z M 733.503,94.117 c -1.356,0.879 -2.677,1.684 -4.025,1.797 -0.385,-0.013 -0.682,0.03 -0.693,-0.072 -0.06,0.075 -0.04,-0.184 -0.08,-0.486 0.088,-0.65 0.13,-1.536 -0.272,-2.512 0,0 0,0 0,0 -0.617,-1.016 -1.546,-1.482 -2.329,-1.602 -4.331,-1.046 -8.851,-0.542 -12.845,-0.528 -3.718,-0.002 -7.298,-0.184 -11.022,0.163 -0.537,0.02 -1.246,0.106 -2.006,0.5 0,0 0,0 0,0 -0.525,0.36 -0.829,0.77 -0.978,1.108 0,0 0,0 0,0 -1.382,2.653 -1.592,5.618 -2.108,8.092 -2.145,9.875 -4.248,20.418 -6.077,29.41 a 95764.561,95764.561 0 0 1 -6.966,34.222 c -1.09,5.312 -2.48,10.06 -2.705,15.361 0,0 0,0 0,0 -0.092,0.833 -0.04,1.915 0.604,2.966 0,0 0,0 0,0 a 3.981,3.981 0 0 0 1.975,1.308 c 0.718,0.252 1.36,0.292 1.857,0.324 0,0 0,0 0,0 0.99,0.094 1.971,0.142 2.928,0.179 2.672,0.104 5.323,0.117 7.887,0.097 2.655,-0.02 5.234,-0.077 7.8,-0.22 a 46.667,46.667 0 0 0 2.82,-0.225 c 0.316,-0.037 0.647,-0.08 0.99,-0.148 0.174,-0.022 0.444,-0.085 0.785,-0.24 0,0 0,0 0,0 0.348,-0.143 0.854,-0.43 1.338,-1.026 0,0 0,0 0,0 0.685,-1.09 0.907,-2.23 1.113,-3.142 1.99,-7.888 3.665,-17.353 5.022,-24.048 a 776.3,776.3 0 0 1 2.82,-13.357 c 0.351,-1.588 0.694,-3.11 1.057,-4.623 0.204,-0.837 0.354,-1.597 0.6,-2.282 1.312,-3.598 3.097,-6.71 5.877,-8.284 0.976,-0.563 1.897,-1.033 2.831,-1.197 1.613,-0.318 3.435,-0.261 5.146,-0.287 1.678,-0.017 3.285,0.006 4.978,-0.251 0.711,-0.041 1.605,-0.347 2.336,-1.172 0.128,-0.204 0.181,-0.314 0.17,-0.321 0.038,-0.096 0.068,-0.182 0.093,-0.255 0,0 0,0 0,0 0.085,-0.251 0.16,-0.495 0.229,-0.728 0.24,-0.8 0.462,-1.6 0.673,-2.366 a 426.8,426.8 0 0 0 1.886,-7.12 416.69,416.69 0 0 0 1.9,-7.647 c 0.25,-1.048 0.478,-2.036 0.69,-3.025 0.144,-0.685 0.286,-1.357 0.384,-2.074 -0.034,-0.654 0.26,-1.452 0.499,-2.274 0.341,-1.067 0.672,-2.024 0.904,-3.118 0.255,-1.11 0.306,-2.281 -0.034,-3.433 -0.528,-1.43 -1.634,-2.374 -2.723,-2.866 -1.356,-0.302 -2.558,0.018 -3.347,0.27 -1.499,0.433 -2.861,1.024 -3.854,1.484 0,0 0,0 0,0 a 39.104,39.104 0 0 0 -3.671,1.926 c 0,0 0,0 0,0 -1.33,0.777 -1.83,1.177 -2.207,1.504 -0.31,0.268 -0.305,0.276 -0.305,0.276"
                id="path1307"
                style="fill:none;stroke:#666666"/>
        <path
                d="m 747.913,164.73 c 0.116,4.352 0.328,8.695 0.567,13.031 0.078,1.412 0.162,2.817 0.225,4.217 0.02,0.423 0.038,0.836 0.043,1.24 -0.013,0.269 0.02,0.392 0.006,0.353 -0.078,0.19 -0.072,0.286 -0.058,0.21 0.056,0.015 -0.099,0.017 -0.353,0.11 0,0 0,0 0,0 -1.546,0.35 -3.271,0.255 -5.085,0.32 v 0 c -1.649,0.047 -3.346,0.091 -5.063,0.343 -0.682,0.027 -1.667,0.2 -2.576,0.987 0,0 0,0 0,0 -0.304,0.39 -0.411,0.643 -0.392,0.702 -0.109,0.29 -0.196,0.57 -0.276,0.833 a 63.345,63.345 0 0 0 -0.713,2.594 260.81,260.81 0 0 0 -1.821,7.612 v 0 a 291.946,291.946 0 0 0 -1.692,7.916 v 0 c -0.193,0.98 -0.382,1.968 -0.546,2.967 v 0 c -0.091,0.525 -0.208,1.132 -0.216,1.824 0.07,1.086 0.596,1.892 1.171,2.365 0.726,0.586 1.397,0.72 1.774,0.72 0.888,0.171 1.764,0.258 2.613,0.324 v 0 c 2.476,0.198 4.947,0.235 7.4,0.22 v 0 a 115.74,115.74 0 0 0 8.08,-0.31 c 1.96,-0.142 4.008,-0.288 6.04,-0.845 v 0 l 10e-4,0.006 c 0,0 0,0 0,0 2.395,-0.659 4.788,-1.565 6.94,-2.972 2.006,-1.326 3.685,-3.055 5.074,-4.947 1.923,-2.611 3.537,-5.42 4.946,-8.305 2.573,-5.267 4.76,-10.683 6.972,-16.054 v 0 a 15754.9,15754.9 0 0 1 13.974,-33.838 c 3.531,-8.521 7.023,-17.058 10.523,-25.589 l 11.266,-28.715 -0.05,-0.048 -0.144,-0.135 -0.551,-0.519 c -0.28,-0.007 -0.558,-0.016 -0.837,-0.024 0,0 0,0 0,0 v 0 c -0.994,-0.029 -1.988,-0.056 -2.982,-0.081 v 0 a 805.086,805.086 0 0 0 -9.114,-0.186 v 0 c -3.106,-0.044 -6.22,-0.077 -9.343,-0.021 a 57.99,57.99 0 0 0 -3.296,0.127 c -0.343,0.025 -0.709,0.057 -1.093,0.12 0,0 0,0 0,0 -0.107,-0.033 -0.441,0.042 -0.94,0.338 0,0 0,0 0,0 -0.09,0.094 -0.16,0.167 -0.208,0.221 0,0 0,0 0,0 -0.134,0.131 -0.178,0.222 -0.161,0.243 0,0 0,0 0,0 -0.078,0.146 -0.14,0.278 -0.19,0.394 a 27.5,27.5 0 0 0 -0.496,1.198 157.434,157.434 0 0 0 -1.514,4.058 751.346,751.346 0 0 0 -4.441,12.69 c -1.649,4.82 -3.271,9.651 -4.856,14.495 v 0 c -1.205,3.683 -2.416,7.378 -3.5,11.123 0,0 0,0 0,0 -0.168,0.555 -0.346,1.064 -0.61,1.463 0,0 0,0 0,0 -0.295,0.196 -0.26,0.397 0.05,0.192 0.187,0.02 0.311,0.096 0.448,0.264 -0.041,0.015 -0.016,-0.183 -0.073,-0.519 -0.128,-1.68 0.047,-3.439 0.142,-5.263 0.406,-7.56 0.555,-15.118 0.731,-22.66 v 0 c 0.103,-4.343 0.225,-8.712 0.065,-13.1 -0.034,-0.966 -0.078,-1.968 -0.231,-2.992 0,0 0,0 0,0 0.002,-0.363 -0.105,-0.976 -0.58,-1.668 -0.529,-0.428 -0.848,-0.55 -0.88,-0.461 a 7.26,7.26 0 0 0 -0.807,-0.116 35.86,35.86 0 0 0 -2.395,-0.137 v 0 c -2.336,-0.077 -4.665,-0.077 -6.983,-0.068 -3.846,0.016 -7.701,0.049 -11.56,0.18 -0.956,-0.01 -2.052,0.288 -2.942,1.125 v 0 c -0.843,0.986 -1.117,2.156 -1.138,3.153 l 0.241,15.991 z"
                id="path1309"
                style="fill:none;stroke:#666666"/>
        <path
                d="m 814.486,103.67 c 0.345,0.374 0.77,0.654 1.237,0.822 0.74,0.251 1.443,0.323 2.056,0.363 3.37,0.272 6.71,0.168 9.993,0.166 0,0 0,0 0,0 3.71,0.014 7.652,0.44 11.566,-0.467 v 0 a 3.844,3.844 0 0 0 2.291,-1.356 c 0.527,-0.792 0.713,-1.586 0.825,-2.216 a 88.827,88.827 0 0 1 1.776,-6.81 v 0 c 0.264,-0.864 0.538,-1.713 0.85,-2.537 0.211,-0.536 0.37,-1.008 0.601,-1.342 v 0 c 0.317,-0.57 1.113,-0.918 1.957,-1.205 v 0 c 0.921,-0.251 1.876,-0.34 2.669,-0.069 0.193,0.083 0.364,0.157 0.315,0.21 0.2,0.426 0.128,1.094 0.153,1.896 a 14.1,14.1 0 0 1 -0.899,4.914 c -0.823,2.23 -2.107,4.315 -3.496,6.362 v 0 c -5.658,8.313 -12.618,15.727 -19.383,23.328 -6.467,7.26 -13.058,14.47 -19.059,22.2 -2.39,3.045 -4.887,6.313 -6.057,10.267 v 0 c -0.478,1.66 -0.825,3.325 -1.19,4.952 v 0 a 437.408,437.408 0 0 0 -1.66,7.74 v 0 l -1.862,10.193 v 0 l 1.305,1.623 v 0 a 3.743,3.743 0 0 0 1.63,0.931 c 1.316,0.33 2.594,0.353 3.764,0.398 8.3,0.375 16.59,0.253 24.844,0.302 7.304,0.045 14.615,0.085 21.931,-0.02 1.967,-0.03 3.944,-0.064 5.928,-0.161 v 0 c 0.58,-0.028 1.172,-0.062 1.772,-0.12 a 5.756,5.756 0 0 0 1.107,-0.176 c 0,0 0,0 0,0 0.668,-0.16 1.49,-0.456 2.23,-1.142 0.667,-0.754 0.943,-1.58 1.083,-2.251 0.36,-1.376 0.628,-2.746 0.91,-4.086 0.457,-2.16 0.899,-4.322 1.334,-6.484 0.412,-2.049 0.819,-4.1 1.209,-6.157 0.132,-0.695 0.263,-1.394 0.386,-2.1 0.037,-0.215 0.075,-0.437 0.11,-0.666 0,0 0,0 0,0 0.015,-0.073 0.04,-0.228 0.047,-0.468 -0.087,-0.72 -0.324,-1.136 -0.498,-1.275 a 7.34,7.34 0 0 0 -0.914,-1.102 3.674,3.674 0 0 0 -1.315,-0.856 c 0,0 0,0 0,0 -0.826,-0.28 -1.614,-0.35 -2.302,-0.39 -4.101,-0.302 -8.174,-0.166 -12.192,-0.165 0,0 0,0 0,0 -3.849,0 -7.668,0.08 -11.442,-0.148 0,0 0,0 0,0 -0.687,-0.051 -1.29,-0.058 -1.759,-0.213 -0.052,-0.188 -0.083,0.002 0.219,0.525 0,0 0,0 0,0 -0.123,0.116 0.159,-0.04 0.404,-0.548 0.524,-0.762 1.123,-1.5 1.739,-2.254 2.386,-2.915 4.914,-5.73 7.449,-8.559 a 1159.305,1159.305 0 0 0 15.333,-17.418 450.355,450.355 0 0 0 5.439,-6.415 v 0 c 1.052,-1.268 2.135,-2.552 3.132,-3.936 6.71,-9.322 10.727,-20.658 10.885,-32.173 0.043,-2.673 0.075,-5.455 -0.531,-8.22 v 0 c -0.524,-2.292 -1.574,-4.359 -2.728,-6.262 v 0 c -2.46,-4.04 -6.506,-6.849 -10.852,-8.408 -3.452,-1.235 -7.09,-1.43 -10.565,-1.532 v 0 c -4.057,-0.14 -8.17,-0.002 -12.217,0.742 -7.07,1.287 -14.048,4.358 -19.05,9.68 v 0 c -6.194,6.693 -8.848,15.735 -10.675,24.396 -0.327,1.716 -0.693,3.54 -0.62,5.464 0.119,0.57 0.445,1.27 1.158,1.898 l 0.37,-0.336"
                id="path1311"
                style="fill:none;stroke:#666666"/>
    </g>
</svg>
