<?xml version="1.0" encoding="UTF-8" standalone="no"?>
<svg
   xmlns:dc="http://purl.org/dc/elements/1.1/"
   xmlns:cc="http://creativecommons.org/ns#"
   xmlns:rdf="http://www.w3.org/1999/02/22-rdf-syntax-ns#"
   xmlns:svg="http://www.w3.org/2000/svg"
   xmlns="http://www.w3.org/2000/svg"
   xmlns:sodipodi="http://sodipodi.sourceforge.net/DTD/sodipodi-0.dtd"
   xmlns:inkscape="http://www.inkscape.org/namespaces/inkscape"
   width="69.849998mm"
   height="69.849998mm"
   viewBox="0 0 69.849998 69.849998"
   version="1.1"
   id="svg8"
   inkscape:version="1.0.1 (3bc2e813f5, 2020-09-07)"
   sodipodi:docname="ImageQuestionmark.svg">
  <defs
     id="defs2" />
  <sodipodi:namedview
     id="base"
     pagecolor="#ffffff"
     bordercolor="#666666"
     borderopacity="1.0"
     inkscape:pageopacity="0.0"
     inkscape:pageshadow="2"
     inkscape:zoom="4.2386365"
     inkscape:cx="130.19596"
     inkscape:cy="135.53887"
     inkscape:document-units="mm"
     inkscape:current-layer="layer8"
     inkscape:document-rotation="0"
     showgrid="false"
     fit-margin-top="0"
     fit-margin-left="0"
     fit-margin-right="0"
     fit-margin-bottom="0"
     inkscape:window-width="1602"
     inkscape:window-height="965"
     inkscape:window-x="63"
     inkscape:window-y="21"
     inkscape:window-maximized="0" />
  <metadata
     id="metadata5">
    <rdf:RDF>
      <cc:Work
         rdf:about="">
        <dc:format>image/svg+xml</dc:format>
        <dc:type
           rdf:resource="http://purl.org/dc/dcmitype/StillImage" />
        <dc:title></dc:title>
      </cc:Work>
    </rdf:RDF>
  </metadata>
  <g
     inkscape:label="Image"
     inkscape:groupmode="layer"
     id="layer1"
     transform="translate(-70.15239,-83.003571)"
     style="display:inline">
    <g
       id="g1351" />
    <rect
       style="display:inline;fill:#57a222;fill-opacity:1;stroke:#d3d3d3;stroke-width:2.7797;stroke-miterlimit:4;stroke-dasharray:none;stroke-opacity:1;image-rendering:auto"
       id="RoundedRectangle-9-0"
       width="39.420349"
       height="35"
       x="84.657387"
       y="99.802315"
       ry="2"
       rx="1.9999999"
       inkscape:label="#RoundedRectangle">
      <title
         id="title1955-7-4">Green rounded rectangle</title>
    </rect>
  </g>
  <g
     inkscape:groupmode="layer"
     id="layer7"
     inkscape:label="Gallery"
     style="display:none">
    <rect
       style="fill:#57a222;fill-opacity:1;stroke:#d3d3d3;stroke-width:0.8;stroke-miterlimit:4;stroke-dasharray:none;stroke-opacity:1;image-rendering:auto"
       id="RoundedRectangle"
       width="11.500002"
       height="10"
       x="13.515149"
       y="29.309"
       ry="2"
       rx="2"
       inkscape:label="#RoundedRectangle">
      <title
         id="title1955">Green rounded rectangle</title>
    </rect>
    <rect
       style="display:inline;fill:#57a222;fill-opacity:1;stroke:#d3d3d3;stroke-width:0.8;stroke-miterlimit:4;stroke-dasharray:none;stroke-opacity:1;image-rendering:auto"
       id="RoundedRectangle-9-3"
       width="11.500407"
       height="10.000407"
       x="13.499705"
       y="42.808998"
       ry="1.9999999"
       rx="1.9999998"
       inkscape:label="#RoundedRectangle">
      <title
         id="title1955-7-6">Green rounded rectangle</title>
    </rect>
    <rect
       style="fill:#57a222;fill-opacity:1;stroke:#d3d3d3;stroke-width:0.8;stroke-miterlimit:4;stroke-dasharray:none;stroke-opacity:1;image-rendering:auto"
       id="RoundedRectangle-98"
       width="11.500002"
       height="10"
       x="28.514999"
       y="29.309"
       ry="2"
       rx="2"
       inkscape:label="#RoundedRectangle">
      <title
         id="title1955-5">Green rounded rectangle</title>
    </rect>
    <rect
       style="display:inline;fill:#57a222;fill-opacity:1;stroke:#d3d3d3;stroke-width:0.8;stroke-miterlimit:4;stroke-dasharray:none;stroke-opacity:1;image-rendering:auto"
       id="RoundedRectangle-9-3-4"
       width="11.500407"
       height="10.000407"
       x="28.514999"
       y="42.808998"
       ry="1.9999999"
       rx="1.9999998"
       inkscape:label="#RoundedRectangle">
      <title
         id="title1955-7-6-7">Green rounded rectangle</title>
    </rect>
    <rect
       style="fill:#57a222;fill-opacity:1;stroke:#d3d3d3;stroke-width:0.8;stroke-miterlimit:4;stroke-dasharray:none;stroke-opacity:1;image-rendering:auto"
       id="RoundedRectangle-9-5"
       width="11.500002"
       height="10"
       x="28.514999"
       y="15.767655"
       ry="2"
       rx="2"
       inkscape:label="#RoundedRectangle">
      <title
         id="title1955-7-8">Green rounded rectangle</title>
    </rect>
    <rect
       style="fill:#57a222;fill-opacity:1;stroke:#d3d3d3;stroke-width:0.8;stroke-miterlimit:4;stroke-dasharray:none;stroke-opacity:1;image-rendering:auto"
       id="RoundedRectangle-4"
       width="11.500002"
       height="10"
       x="43.515003"
       y="29.309"
       ry="2"
       rx="2"
       inkscape:label="#RoundedRectangle">
      <title
         id="title1955-9">Green rounded rectangle</title>
    </rect>
    <rect
       style="display:inline;fill:#57a222;fill-opacity:1;stroke:#d3d3d3;stroke-width:0.8;stroke-miterlimit:4;stroke-dasharray:none;stroke-opacity:1;image-rendering:auto"
       id="RoundedRectangle-9-3-5"
       width="11.506443"
       height="9.5443287"
       x="43.514999"
       y="42.808998"
       ry="1.9999999"
       rx="1.9999999"
       inkscape:label="#RoundedRectangle">
      <title
         id="title1955-7-6-2">Green rounded rectangle</title>
    </rect>
    <rect
       style="fill:#57a222;fill-opacity:1;stroke:#d3d3d3;stroke-width:0.8;stroke-miterlimit:4;stroke-dasharray:none;stroke-opacity:1;image-rendering:auto"
       id="RoundedRectangle-9-2"
       width="11.500002"
       height="10"
       x="43.514999"
       y="15.918859"
       ry="2"
       rx="2"
       inkscape:label="#RoundedRectangle">
      <title
         id="title1955-7-0">Green rounded rectangle</title>
    </rect>
    <rect
       style="fill:#57a222;fill-opacity:1;stroke:#d3d3d3;stroke-width:0.8;stroke-miterlimit:4;stroke-dasharray:none;stroke-opacity:1;image-rendering:auto"
       id="RoundedRectangle-9"
       width="11.500001"
       height="10"
       x="13.515149"
       y="15.808897"
       ry="2"
       rx="2"
       inkscape:label="#RoundedRectangle">
      <title
         id="title1955-7">Green rounded rectangle</title>
    </rect>
  </g>
  <g
     inkscape:groupmode="layer"
     id="layer8"
     inkscape:label="Zero"
     style="display:none">
    <path
       style="display:inline;fill:#000000;stroke-width:0.264583"
       d="M 31.71153,41.53958 C 31.18162,41.2323 30.46724,40.4909 30.12403,39.89201 29.53555,38.86517 29.5,38.54687 29.5,34.30521 c 0,-4.3109 0.0275,-4.54632 0.66146,-5.66223 0.87081,-1.53282 2.045,-2.14298 4.12393,-2.14298 2.05764,0 3.161,0.68015 4.07815,2.51393 0.61738,1.2344 0.66146,1.58701 0.66146,5.29128 0,3.70427 -0.0441,4.05689 -0.66146,5.29128 -0.91862,1.83672 -2.02144,2.51558 -4.07402,2.50785 -1.15397,-0.004 -1.88935,-0.16544 -2.57799,-0.56476 z m 3.9558,-1.61354 c 0.85719,-0.71083 1.10871,-1.98284 1.10871,-5.60697 0,-4.41662 -0.34251,-5.54685 -1.81375,-5.98507 -1.27848,-0.3808 -2.25577,0.005 -2.86704,1.1312 -0.39176,0.72191 -0.4733,1.5289 -0.4757,4.70772 -0.003,4.16187 0.32005,5.43644 1.53238,6.04353 0.66998,0.3355 1.93702,0.18921 2.5154,-0.29041 z"
       id="Zero"
       inkscape:label="#zero">
      <title
         id="title2113">Zero for zero images</title>
    </path>
  </g>
  <g
     inkscape:groupmode="layer"
     id="layer9"
     inkscape:label="Question Mark"
     style="display:inline">
    <path
       style="display:inline;fill:#040603;stroke-width:0.264583"
       d="m 31.718502,46.562259 c -1.53894,-1.29493 -1.56623,-3.7825 -0.0533,-4.85979 1.47812,-1.05252 2.08656,-1.14111 3.38465,-0.49281 1.81029,0.9041 2.43882,2.69658 1.54894,4.41741 -0.88707,1.71541 -3.38433,2.19395 -4.88028,0.93519 z m -0.49518,-8.36118 c -0.45211,-0.45211 -0.40818,-1.5937 0.1113,-2.892 0.43728,-1.09288 1.64512,-2.12714 4.70242,-4.02666 1.52773,-0.94919 2.08706,-2.38854 1.35962,-3.49875 -0.55949,-0.85389 -2.3439,-1.69799 -3.58953,-1.69799 -1.25662,0 -2.85413,0.78389 -3.95451,1.94045 -0.50149,0.52709 -1.07204,0.95835 -1.26789,0.95835 -0.45577,0 -2.64046,-1.60415 -2.83858,-2.08427 -0.26924,-0.6525 0.76787,-1.988 2.64752,-3.40923 2.15422,-1.62884 2.99483,-1.91189 5.67804,-1.91189 2.45445,0 3.57252,0.29971 5.19749,1.39324 2.63297,1.77187 4.14395,4.88433 3.5401,7.29221 -0.43042,1.7163 -1.52006,3.33579 -2.7318,4.06019 -2.15384,1.28758 -3.16943,2.20461 -3.46246,3.12641 l -0.29437,0.92604 -2.38537,0.0753 c -1.62905,0.0514 -2.48893,-0.0283 -2.71198,-0.25136 z"
       id="path1478" />
  </g>
</svg>
