<?xml version="1.0" encoding="UTF-8"?>
<svg width="128mm" version="1.1" viewBox="0 0 1116.8905 263.7503" xmlns="http://www.w3.org/2000/svg" xmlns:cc="http://creativecommons.org/ns#" xmlns:dc="http://purl.org/dc/elements/1.1/" xmlns:rdf="http://www.w3.org/1999/02/22-rdf-syntax-ns#">
<g transform="translate(-53.79 -188.52)" display="none">
<rect x="7.0818" y="6.1663" width="1036.8" height="729.43" fill="#666" stroke="#000" stroke-linecap="round" stroke-linejoin="round" stroke-width="3"/>
</g>
<g transform="translate(-53.79 -496.79)" stroke-linejoin="round">
<path d="m149.06 676.41-56.685 0.17855c-1.5214 8e-3 0.79878-22.33 5.2042-38.661 4.4054-16.331 10.922-25.084 15.213-32.517 4.186-7.2502 24.609-26.615 24.609-26.615l33.904 16.003s-13.584 13.386-17.9 35.855c-1.7543 9.1339-4.3447 45.756-4.3447 45.756z" fill="#58a323" fill-rule="evenodd" stroke="#fff" stroke-width="2.9147"/>
<path d="m233.59 665.04 0.17842 56.685c8e-3 1.5218-22.33-0.79862-38.661-5.2041-16.331-4.4055-25.084-10.922-32.517-15.213-7.2503-4.1863-26.615-24.609-26.615-24.609l13.185-0.14949 2.818-33.754s13.385 13.584 35.855 17.9c9.134 1.7544 45.756 4.3446 45.756 4.3446z" fill="#0d6dab" fill-rule="evenodd" stroke="#fff" stroke-width="2.9147"/>
<path d="m222.03 580.33 56.685-0.17844c1.5217-8e-3 -0.79864 22.33-5.2041 38.661-4.4055 16.331-10.922 25.084-15.213 32.517-4.1862 7.2502-24.609 26.615-24.609 26.615l-0.0785-12.868-33.825-3.1353s13.584-13.385 17.9-35.855c1.7544-9.134 4.3447-45.756 4.3447-45.756z" fill="#e52626" fill-rule="evenodd" stroke="#fff" stroke-linecap="round" stroke-width="2.9147"/>
<path d="m137.33 591.8-0.17887-56.685c-8e-3 -1.5218 22.33 0.79862 38.661 5.2041 16.331 4.4055 25.084 10.922 32.516 15.213 7.2505 4.1863 26.615 24.609 26.615 24.609l-13.12 0.0145-2.8828 33.889s-13.386-13.585-35.855-17.9c-9.1339-1.7543-45.756-4.3447-45.756-4.3447z" fill="#f60" fill-rule="evenodd" stroke="#fff" stroke-width="2.9147"/>
<path d="m156.65 630.44c-0.7885 4.1049-0.49554 1.6523-1.2748 10.908m17.364-43.14s-12.21 12.034-16.089 32.232m-1.2752 10.908s12.032 12.211 32.23 16.09c2.2327 0.42874 5.7667 0.89211 10.496 1.3703m17.658-43.149s-12.089-12.243-32.287-16.123c-2.2543-0.433-5.9456-0.8463-10.732-1.3286m25.361 60.6s12.45-12.282 16.33-32.48c0.41222-2.1471 0.86871-6.1729 1.3288-10.669" fill="none" stroke="#666" stroke-linecap="round" stroke-width="1.0949"/>
<path d="m135.55 578.3s-23.407 22.645-30.444 36.23c-7.75 13.208-11.096 27.093-13.231 42.177-1.0393 7.0184-2.0684 21.656-2.0684 21.656l45.074-0.16623s22.402 23.525 36.42 30.636c12.81 7.4323 25.71 10.888 40.293 13.284 7.2788 1.0648 24.098 2.4044 24.098 2.4044l-0.01-46.266s22.318-20.261 29.418-34.224c7.4322-12.811 11.674-27.497 13.796-42.08 1.064-7.2791 1.8932-23.331 1.8932-23.331s-30.514-0.35334-45.034-0.33227c-10.704-10.952-21.361-22.414-35.13-29.576-13.539-7.9696-28.874-12.133-44.335-14.304-6.0143-0.98751-21.236-1.6048-21.236-1.6048z" fill="none" stroke="#666" stroke-width="1.1659"/>
</g>
<g transform="translate(-53.79 -188.52)" stroke="#fff" stroke-width="3">
<path d="m410.59 373.63c9.1459-1.1113 15.821-3.9713 20.672-8.858 5.4269-5.4656 8.8468-13.287 11.528-26.362 1.5512-7.5617 1.6691-11.724 0.46466-16.375-1.8896-7.2915-4.9796-11.678-17.821-25.295-7.2811-7.7206-8.457-9.4248-9.0443-13.098-0.45614-2.8506 0.70243-8.5968 2.0879-10.359 1.0915-1.388 4.2898-2.2801 6.1038-1.7046 0.91931 0.29213 1.0919 0.85544 1.0813 3.526-6e-3 2.8041-0.24569 4.3847-1.3979 9.4622-0.18168 0.7982 0.12486 1.6572 0.84315 2.3763 1.06 1.0608 1.8423 1.1279 13.152 1.1279 11.146 0 12.105-0.0746 13.107-1.0831 2.2315-2.2315 4.1365-12.571 3.8686-21.003-0.17942-5.6554-0.35397-6.5026-2.0372-9.9236-1.0877-2.2075-2.773-4.5366-4.1142-5.6852-6.7676-5.7924-21.222-7.4518-34.834-3.9995-8.7015 2.208-14.179 5.688-18.515 11.763-5.8838 8.2467-10.543 25.678-9.1746 34.332 0.97734 6.186 6.0686 13.624 17.66 25.802 3.6607 3.8455 7.2556 7.8405 7.9898 8.8794 1.766 2.4977 2.2766 5.6198 1.651 10.099-1.0629 7.6089-2.4294 9.5472-6.7299 9.5472-2.123 0-2.7971-0.23608-3.2873-1.1497-0.67439-1.2614-0.33601-5.4226 0.87705-10.776 0.68421-3.0236 0.66081-3.3331-0.34104-4.3348-0.99917-0.99918-1.976-1.0787-13.296-1.0787-11.185 0-12.299 0.0914-13.157 1.0367-0.51492 0.56917-1.6032 3.9045-2.4172 7.411-1.9061 8.2109-2.1098 17.041-0.50457 21.934 1.2266 3.7416 4.8019 8.0746 8.3664 10.14 5.964 3.4566 16.821 4.912 27.217 3.6486z" fill="#58a323"/>
<path d="m473.05 373.4c4.4877-0.94326 8.076-2.4293 10.758-4.4534 2.5025-1.8875 3.5582-1.835 4.3336 0.21947 0.87901 2.331 2.5921 2.802 10.193 2.802 6.9459 0 9.787-0.58421 10.391-2.1371 0.3169-0.81691 8.1343-38.871 13.22-64.357 1.9304-9.6707 1.8058-10.848-1.2129-11.452-3.0595-0.6125-28.746-0.41162-30.611 0.23928-0.94448 0.32897-1.8759 1.0115-2.0686 1.5161-0.19414 0.50449-1.3396 5.6781-2.5442 11.496-2.6045 12.568-2.4756 13.237 2.5728 13.237 1.0509 0 1.9105 0.0688 1.9105 0.16243 0 0.89479-4.5105 21.739-4.9453 22.856-1.031 2.6439-2.822 3.8288-5.787 3.8288h-2.6911v-3.4282c0-3.0622 10.773-58.517 13.097-67.416 1.1328-4.3357 2.6207-5.7822 5.9495-5.7822 3.7928 0 4.2396 0.75438 3.4105 5.7653-0.36495 2.2124-0.80783 4.6744-0.98138 5.4721-0.20748 0.94788 2e-3 1.7713 0.60978 2.3776 0.80863 0.80862 2.5541 0.92655 13.737 0.92655h12.81l0.77915-1.5374c0.42823-0.84597 1.3439-4.5554 2.0337-8.2437 3.354-17.919-0.96775-26.147-15.649-29.796-5.0243-1.2484-19.917-1.1937-25.729 0.0956-12.457 2.7635-20.018 9.9301-24.245 22.982-0.76953 2.3762-6.2479 28.546-14.637 69.914-3.4051 16.788-3.1814 22.421 1.1249 28.336 4.1428 5.6888 14.479 8.4156 24.171 6.3763z" fill="#0d6dab"/>
<path d="m323.66 370.75c0.93559-0.93714 2.3904-7.401 8.392-37.302l2.7356-13.628 3.767 0.26863c2.0719 0.15119 4.1476 0.58623 4.6136 0.97281 1.4392 1.194 1.0025 4.692-3.1 24.858-4.3072 21.174-4.3293 21.583-1.3058 24.426 1.3946 1.3111 1.6798 1.3444 12.91 1.5225 12.407 0.19565 14.473-0.1383 15.056-2.4602 0.19165-0.76352-0.0368-1.82-0.56725-2.5702-0.48958-0.69999-0.89135-1.9437-0.89135-2.7619 0-0.81946 1.7849-10.265 3.9676-20.99 3.3426-16.432 3.9277-20.132 3.7222-23.513-0.27474-4.5012-2.3168-9.4624-4.648-11.297-1.3335-1.0483-1.8728-2.8695-0.8493-2.8695 0.28194 0 1.9227-1.2877 3.6459-2.8629 4.8052-4.3925 6.4424-8.3752 9.28-22.586 2.567-12.858 2.6692-16.016 0.66464-20.547-1.5966-3.6102-4.866-6.9761-8.6129-8.8679-5.9767-3.0171-8.392-3.2879-29.439-3.2963-11.379-3e-3 -19.608 0.2126-20.21 0.53498-0.55874 0.29951-1.1898 0.99175-1.4009 1.5384-0.2111 0.54641-2.3648 10.684-4.7845 22.528-2.4197 11.843-5.3062 25.939-6.4161 31.322-1.1084 5.384-4.0064 19.605-6.4389 31.602-2.4325 11.997-4.957 24.394-5.6088 27.549-2.0403 9.8678-2.2501 9.7179 13.275 9.5146 9.7011-0.1276 11.439-0.28232 12.243-1.0856z" fill="#58a323"/>
<path d="m346.98 295.07c2.9786-1.4136 4.1211-3.7503 5.8189-11.903 1.7369-8.3441 1.52-9.6913-1.7811-11.071-2.0141-0.84194-8.127-1.1301-8.127-0.38367 0 0.41905-4.1654 20.951-4.7794 23.563-0.31232 1.3248-0.28105 1.3346 3.2537 1.0515 1.9631-0.15819 4.4905-0.72339 5.615-1.2572z" fill="#fff"/>
<path d="m616.62 370.85c0.47486-0.48569 2.1328-7.3103 3.9426-16.22 1.7194-8.4596 4.2601-20.918 5.6463-27.686 8.3673-40.837 15.358-75.957 15.358-77.156 0-0.80031-0.45747-1.6337-1.082-1.968-0.64861-0.34766-5.8712-0.57849-13.057-0.57849-11.195 0-12.041 0.068-12.97 1.0988-0.65101 0.71971-1.7362 4.7325-3.1381 11.606-1.1784 5.7783-3.7955 18.56-5.8155 28.404-2.0184 9.8442-5.9187 28.972-8.6649 42.508-2.7477 13.536-5.6371 27.73-6.4223 31.544-2.024 9.8322-2.3841 9.5868 13.797 9.4118 9.4433-0.0991 11.738-0.28057 12.405-0.96406z" fill="#0d6dab"/>
<path d="m655.3 370.78c1.1486-1.1495-0.0948 4.6796 16.431-77.115 4.631-22.919 8.5509-42.232 8.7111-42.919 0.18821-0.80597-0.1031-1.6519-0.83424-2.3773-1.0592-1.0592-1.8441-1.1271-12.911-1.1271-6.5605 0-12.233 0.24033-12.798 0.54334-0.55873 0.2995-1.1904 0.99174-1.4023 1.5384-0.36721 0.94391-7.4019 35.001-19.092 92.443-2.9113 14.304-5.2245 26.632-5.1387 27.393 0.28453 2.5403 1.9146 2.8404 14.54 2.6782 9.8193-0.12593 11.725-0.28628 12.495-1.0571z" fill="#0d6dab"/>
<path d="m708.64 372.79c7.7102-1.8409 13.804-5.9437 17.87-12.031 2.6374-3.951 4.1732-7.8116 5.9995-15.084 2.4763-9.8567 2.9099-9.5084-11.822-9.5084-13.212 0-12.469-0.33532-13.627 6.152-0.99916 5.601-2.1076 7.7284-4.3509 8.3476-1.0435 0.28858-2.7676 0.38272-3.8312 0.21016-1.8896-0.30659-1.9342-0.37473-1.8987-2.898 0.0256-1.4208 0.6036-5.226 1.2965-8.4563l1.2604-5.8732 17.081-0.15009c15.392-0.13137 17.168-0.24347 17.954-1.1182 0.84511-0.93857 5.4195-21.752 6.581-29.939 1.0958-7.7319-1.082-14.447-6.1727-19.023-5.0732-4.5618-12.262-6.358-23.201-5.7943-8.1891 0.42135-12.69 1.4504-18.184 4.1624-8.7554 4.3194-13.295 11.043-16.203 23.997-3.3594 14.974-9.535 46.506-9.535 48.693 0 3.1635 1.8311 8.734 3.6568 11.128 3.0521 4.001 9.7622 7.0036 17.977 8.0414 5.0559 0.63869 14.683 0.20732 19.148-0.85867z" fill="#0d6dab"/>
<path d="m787.93 283.42c-3.4057 2.2983-6.6072 2.9426-6.4368 0.39627 0.23212-3.4363-0.33209-3.575-14.449-3.575-12.299 0-12.468 9e-3 -13.123 1.2419-0.69816 1.3028-1.9745 7.1767-8.0878 37.231-2.0467 10.063-5.1816 25.464-6.9661 34.222-3.4444 16.905-3.467 17.467-0.7504 18.5 2.1709 0.82516 22.566 0.66458 24.26-0.19122 1.5967-0.80758 1.2424 0.59623 6.9446-27.522 1.9974-9.8433 4.0279-19.023 4.5132-20.396 1.5642-4.4298 3.5338-7.1785 6.3144-8.8131 2.4026-1.4114 3.1724-1.5586 8.4711-1.6218 4.7724-0.0598 5.9535-0.23975 6.5189-1.0129 0.37994-0.51998 5.3815-19.673 5.8365-23.005-0.0455-2.7604 4.0642-8.4375-0.70153-10.697-2.4857-0.66314-10.571 3.521-12.344 5.2434z" fill="#0d6dab"/>
<path d="m869.02 291.52c0.83987 0.92841 1.9985 1.0224 12.545 1.0224 12.651 0 13.006-0.0895 13.705-3.2547 1.0693-4.8448 2.5979-9.8469 3.3674-11.022 0.95673-1.4589 3.8243-2.2947 5.7642-1.6792 0.9703 0.30742 1.1663 0.82418 1.1663 3.0588 0 6.8462-4.1728 12.97-24.032 35.27-18.945 21.273-23.463 27.093-24.902 32.079-0.45674 1.583-1.7302 7.2596-2.8305 12.616l-1.9985 9.7386 1.1682 1.1685c1.1493 1.1495 1.6244 1.1713 29.538 1.3381 19.235 0.11994 29.041-0.0284 30.452-0.43709 1.7413-0.508 2.1684-0.94481 2.6252-2.6863 0.66382-2.5304 3.9636-18.938 3.9636-19.707 0-0.30305-0.50384-1.0538-1.1195-1.6694-1.0594-1.0594-1.8643-1.1182-15.102-1.1182-12.029 0-13.982-0.1207-13.982-0.83563 0-0.72199 3.0359-4.4308 9.8475-12.029 11.351-12.663 21.557-24.517 23.837-27.686 6.7095-9.3277 10.553-20.684 10.697-31.602 0.0952-7.2001-0.40856-9.4548-3.1158-13.953-2.1317-3.5408-5.7105-6.3054-10.336-7.9839-4.5715-1.6584-15.361-2.0206-22.26-0.74674-7.4562 1.3775-14.234 4.8135-18.501 9.38-4.2973 4.5984-7.7959 11.665-10.424 23.909-0.99796 5.3863-0.58215 6.2672-0.0723 6.8297z" fill="#e52626"/>
<path d="m715.09 310.86c1.7452-7.6108 1.7621-9.0858 0.1282-10.72-2.7234-2.7231-8.1702-1.479-10.296 2.351-1.0092 1.82-2.9462 9.4743-2.9462 11.645 0 0.61756 1.2577 0.77912 6.0928 0.77912h6.0913l0.92919-4.0559z" fill="#0d6dab"/>
<path d="m715.09 310.86c1.7452-7.6108 1.7621-9.0858 0.1282-10.72-2.7234-2.7231-8.1702-1.479-10.296 2.351-1.0092 1.82-2.9462 9.4743-2.9462 11.645 0 0.61756 1.2577 0.77912 6.0928 0.77912h6.0913l0.92919-4.0559z" fill="#fff"/>
<path d="m529.55 371.25c-3.0933-1.0056-5.969-3.5594-7.3107-6.4938-0.99593-2.1769-1.1798-3.6325-1.1678-9.2928 0.0286-12.743 3.7915-24.914 9.6412-31.169 3.568-3.8139 5.9269-5.0571 16.138-8.507 10.599-3.5815 12.574-4.4056 15.697-6.5557 3.9357-2.7073 5.3017-7.0692 2.9497-9.4208-3.5598-3.56-9.4171 1.2501-10.417 8.5558l-0.36059 2.6301h-11.111-11.11v-1.3088c0-2.7103 2.3112-10.321 4.466-14.707 2.5821-5.2544 7.0363-9.819 11.866-12.159 11.596-5.6167 31.439-4.5295 37.83 2.0746 3.1027 3.2067 4.1926 6.6241 4.1348 12.956-0.0383 4.7762-0.88072 9.6354-5.7299 33.279-4.6741 22.792-5.6948 28.65-5.7691 33.139l-0.0933 5.4541h-11.888-11.888v-2.8403-2.8406l-2.3765 2.0354c-1.3077 1.1185-4.0036 2.8354-5.991 3.8141-3.2818 1.6158-4.1559 1.7913-9.5089 1.9103-3.5035 0.0715-6.7492-0.14962-8.0034-0.55493z" fill="#0d6dab"/>
<path d="m553.72 351.91c2.8191-2.0429 3.5596-3.8345 5.6315-13.63 1.124-5.3136 1.9762-9.7508 1.8949-9.8605-0.37519-0.49258-8.4076 4.3316-10.375 6.2311-2.5662 2.4772-3.013 3.5072-4.3528 10.026-1.112 5.4177-0.82099 6.8507 1.6532 8.127 1.6112 0.83045 3.6138 0.50793 5.5478-0.89314z" fill="#fff"/>
<path d="m802.7 353.23c0.26146 9.8599 0.97731 18.442 0.81164 19.108-0.28123 1.1313-0.69006 1.2202-6.4359 1.3982-4.524 0.13582-6.3496 0.40918-6.9521 1.0281-0.68786 0.70864-5.3731 21.414-5.3731 23.751 0 0.42827 0.39565 1.1742 0.87842 1.6576 1.3725 1.3723 19.847 1.2654 24.931-0.14772v6e-3c5.3854-1.4936 8.5487-3.5734 11.479-7.5489 3.441-4.6677 5.5672-9.0191 11.799-24.147 5.9756-14.505 10.725-26.003 13.974-33.839 1.211-2.9219 5.9475-14.437 10.523-25.589 3.7248-9.0747 11.714-28.026 11.714-28.026s-26.12-0.81969-27.264 0.0575v4e-5c-0.72997 0.55989-12.06 33.694-15.015 43.906-0.41235 1.4269-1.0214 2.3776-1.5209 2.3776-0.7136 0-0.78387-0.96105-0.48133-6.5723 0.19459-3.6141 0.52325-13.798 0.73051-22.63 0.29676-12.654 0.0475-16.418-0.51504-17.097-0.60204-0.72335-19.57-0.31861-21.822-0.24178-2.0126 0.0687-2.9581 1.0068-3.1161 3.3047l0.24267 15.944z" fill="#0d6dab"/>
</g>
</svg>
