<svg xmlns="http://www.w3.org/2000/svg" width="978.017" height="281.334" viewBox="0 0 916.89 263.75">
	<g stroke-linejoin="round">
		<path d="M95.267 179.621l-56.685.179c-1.521.008.799-22.33 5.204-38.661 4.406-16.33 10.922-25.085 15.214-32.517 4.186-7.25 24.608-26.615 24.608-26.615l33.904 16.003s-13.584 13.386-17.9 35.855c-1.754 9.134-4.345 45.756-4.345 45.756z" fill="#58a323" fill-rule="evenodd" stroke="#fff" stroke-width="2.915"/>
		<path d="M179.804 168.246l.179 56.685c.008 1.522-22.33-.799-38.661-5.204-16.33-4.406-25.084-10.922-32.517-15.213-7.25-4.187-26.615-24.61-26.615-24.61l13.185-.149 2.818-33.754s13.386 13.585 35.855 17.9c9.135 1.755 45.756 4.345 45.756 4.345z" fill="#0d6dab" fill-rule="evenodd" stroke="#fff" stroke-width="2.915"/>
		<path d="M168.236 83.536l56.685-.178c1.522-.008-.798 22.33-5.204 38.66-4.405 16.331-10.922 25.085-15.213 32.517-4.186 7.25-24.609 26.616-24.609 26.616l-.078-12.868-33.826-3.136s13.585-13.385 17.9-35.855c1.755-9.134 4.345-45.756 4.345-45.756z" fill="#e52626" fill-rule="evenodd" stroke="#fff" stroke-width="2.915" stroke-linecap="round"/>
		<path d="M83.54 95.005l-.178-56.685c-.008-1.522 22.33.799 38.661 5.204 16.33 4.406 25.084 10.922 32.517 15.213 7.25 4.186 26.615 24.609 26.615 24.609l-13.12.014-2.883 33.889s-13.386-13.585-35.856-17.9c-9.134-1.755-45.755-4.345-45.755-4.345z" fill="#f60" fill-rule="evenodd" stroke="#fff" stroke-width="2.915"/>
		<path d="M102.863 133.65c-.789 4.105-.496 1.652-1.275 10.908m17.364-43.14s-12.21 12.034-16.09 32.232m-1.275 10.909s12.032 12.21 32.23 16.09c2.233.428 5.767.892 10.496 1.37m17.658-43.149s-12.09-12.243-32.287-16.123c-2.254-.433-5.945-.846-10.732-1.328m25.36 60.6s12.45-12.282 16.33-32.48c.412-2.147.869-6.173 1.329-10.669" fill="none" stroke="#666" stroke-width="1.095" stroke-linecap="round"/>
		<path d="M81.76 81.512s-23.408 22.645-30.444 36.23c-7.75 13.209-11.096 27.094-13.232 42.177-1.039 7.018-2.068 21.656-2.068 21.656l45.074-.166s22.402 23.525 36.42 30.637c12.811 7.432 25.71 10.887 40.294 13.284 7.279 1.065 24.097 2.404 24.097 2.404l-.01-46.266s22.318-20.26 29.418-34.224c7.432-12.81 11.674-27.497 13.796-42.08 1.064-7.28 1.893-23.33 1.893-23.33s-30.514-.354-45.034-.333c-10.704-10.952-21.36-22.414-35.13-29.576-13.539-7.97-28.874-12.133-44.335-14.304-6.014-.988-21.236-1.605-21.236-1.605z" fill="none" stroke="#666" stroke-width="1.166"/>
	</g>
	<g stroke="#fff" stroke-width="3">
		<path d="M356.796 185.106c9.146-1.111 15.82-3.971 20.673-8.858 5.426-5.465 8.846-13.287 11.528-26.362 1.551-7.562 1.669-11.724.465-16.375-1.89-7.291-4.98-11.677-17.821-25.295-7.281-7.72-8.457-9.425-9.045-13.098-.456-2.85.703-8.597 2.088-10.358 1.092-1.388 4.29-2.28 6.104-1.705.92.292 1.092.856 1.081 3.526-.006 2.804-.245 4.385-1.398 9.462-.181.799.125 1.658.844 2.377 1.06 1.06 1.842 1.128 13.152 1.128 11.146 0 12.104-.075 13.107-1.084 2.232-2.231 4.137-12.57 3.869-21.002-.18-5.656-.354-6.503-2.037-9.924-1.088-2.207-2.773-4.537-4.115-5.685-6.767-5.793-21.221-7.452-34.833-4-8.702 2.208-14.18 5.688-18.515 11.763-5.883 8.247-10.543 25.678-9.174 34.332.977 6.186 6.068 13.624 17.66 25.802 3.66 3.846 7.255 7.841 7.99 8.88 1.765 2.498 2.276 5.62 1.65 10.098-1.063 7.61-2.43 9.548-6.73 9.548-2.123 0-2.797-.236-3.287-1.15-.674-1.261-.336-5.423.877-10.776.684-3.024.66-3.333-.341-4.335-1-1-1.976-1.079-13.296-1.079-11.185 0-12.299.092-13.157 1.037-.515.57-1.603 3.905-2.417 7.411-1.906 8.211-2.11 17.041-.505 21.934 1.227 3.741 4.802 8.075 8.366 10.14 5.964 3.456 16.82 4.912 27.217 3.648z" fill="#58a323"/>
		<path d="M419.261 184.877c4.488-.943 8.076-2.43 10.759-4.453 2.502-1.888 3.558-1.835 4.333.219.88 2.331 2.592 2.802 10.194 2.802 6.946 0 9.787-.584 10.39-2.137.317-.817 8.135-38.871 13.22-64.357 1.93-9.67 1.806-10.848-1.213-11.451-3.06-.613-28.746-.412-30.611.239-.945.329-1.876 1.011-2.069 1.516-.194.504-1.34 5.678-2.544 11.496-2.605 12.567-2.476 13.237 2.573 13.237 1.05 0 1.91.069 1.91.162 0 .895-4.51 21.74-4.945 22.856-1.031 2.644-2.822 3.829-5.787 3.829h-2.691v-3.429c0-3.062 10.773-58.516 13.097-67.415 1.133-4.336 2.62-5.782 5.95-5.782 3.792 0 4.24.754 3.41 5.765-.365 2.212-.808 4.674-.981 5.472-.208.948.002 1.771.61 2.378.808.808 2.553.926 13.736.926h12.81l.78-1.537c.428-.846 1.343-4.556 2.033-8.244 3.354-17.919-.968-26.147-15.649-29.796-5.024-1.248-19.916-1.193-25.728.096-12.457 2.763-20.018 9.93-24.245 22.982-.77 2.376-6.248 28.546-14.637 69.914-3.405 16.788-3.181 22.421 1.125 28.336 4.143 5.688 14.479 8.415 24.17 6.376z" fill="#0d6dab"/>
		<path d="M269.867 182.229c.935-.938 2.39-7.401 8.391-37.302l2.736-13.628 3.767.269c2.072.15 4.148.586 4.614.972 1.439 1.194 1.002 4.692-3.1 24.858-4.308 21.174-4.33 21.583-1.306 24.427 1.395 1.31 1.68 1.344 12.91 1.522 12.407.196 14.473-.138 15.056-2.46.192-.764-.037-1.82-.567-2.57-.49-.7-.891-1.944-.891-2.762 0-.82 1.785-10.265 3.967-20.99 3.343-16.432 3.928-20.132 3.722-23.513-.274-4.5-2.316-9.462-4.648-11.296-1.333-1.049-1.872-2.87-.849-2.87.282 0 1.923-1.288 3.646-2.863 4.805-4.392 6.442-8.375 9.28-22.586 2.567-12.858 2.67-16.015.665-20.547-1.597-3.61-4.866-6.976-8.613-8.868-5.977-3.017-8.392-3.288-29.44-3.296-11.378-.003-19.608.212-20.21.535-.558.3-1.189.992-1.4 1.538-.211.547-2.365 10.685-4.785 22.528-2.42 11.843-5.306 25.939-6.416 31.322-1.108 5.384-4.006 19.604-6.439 31.602a12928.48 12928.48 0 01-5.608 27.548c-2.04 9.868-2.25 9.718 13.275 9.515 9.701-.127 11.439-.282 12.243-1.085z" fill="#58a323"/>
		<path d="M293.193 106.552c2.978-1.414 4.12-3.75 5.818-11.903 1.737-8.344 1.52-9.692-1.78-11.071-2.015-.842-8.128-1.13-8.128-.384 0 .42-4.165 20.951-4.78 23.563-.311 1.325-.28 1.335 3.255 1.052 1.963-.158 4.49-.723 5.615-1.257z" fill="#fff"/>
		<path d="M562.83 182.326c.476-.486 2.133-7.31 3.943-16.22 1.72-8.46 4.26-20.918 5.647-27.686 8.367-40.837 15.358-75.957 15.358-77.156 0-.8-.457-1.634-1.082-1.968-.649-.348-5.871-.579-13.057-.579-11.194 0-12.04.068-12.97 1.1-.65.719-1.736 4.732-3.138 11.606-1.178 5.778-3.795 18.56-5.815 28.404-2.019 9.844-5.919 28.972-8.665 42.508-2.748 13.536-5.637 27.73-6.422 31.543-2.024 9.833-2.385 9.587 13.796 9.412 9.444-.099 11.738-.28 12.406-.964zM601.513 182.256c1.149-1.15-.094 4.68 16.431-77.115 4.631-22.919 8.551-42.232 8.711-42.92.189-.805-.103-1.651-.834-2.376-1.059-1.06-1.844-1.128-12.91-1.128-6.561 0-12.233.24-12.799.544-.558.3-1.19.992-1.402 1.538-.367.944-7.402 35.002-19.092 92.443-2.912 14.304-5.225 26.632-5.139 27.393.285 2.54 1.915 2.84 14.54 2.678 9.819-.126 11.725-.286 12.494-1.057zM654.848 184.272c7.71-1.841 13.804-5.944 17.87-12.03 2.637-3.952 4.173-7.812 6-15.085 2.476-9.857 2.91-9.508-11.823-9.508-13.212 0-12.469-.336-13.627 6.152-.999 5.6-2.107 7.728-4.35 8.347-1.044.289-2.768.383-3.832.21-1.89-.306-1.934-.374-1.898-2.897.025-1.421.603-5.226 1.296-8.457l1.26-5.873 17.082-.15c15.392-.131 17.167-.243 17.954-1.118.845-.939 5.419-21.752 6.58-29.94 1.096-7.731-1.081-14.447-6.172-19.022-5.073-4.562-12.262-6.358-23.2-5.795-8.19.422-12.69 1.45-18.185 4.163-8.755 4.32-13.295 11.043-16.202 23.997-3.36 14.974-9.535 46.506-9.535 48.693 0 3.163 1.83 8.734 3.657 11.128 3.052 4 9.762 7.003 17.976 8.041 5.056.639 14.684.207 19.149-.859zM734.145 94.893c-3.406 2.298-6.608 2.943-6.437.396.232-3.436-.332-3.575-14.45-3.575-12.298 0-12.467.01-13.122 1.242-.699 1.303-1.975 7.177-8.088 37.23a116926.67 116926.67 0 01-6.966 34.223c-3.445 16.904-3.467 17.467-.75 18.5 2.17.825 22.566.665 24.26-.191 1.596-.808 1.242.596 6.944-27.522 1.998-9.843 4.028-19.023 4.513-20.396 1.565-4.43 3.534-7.179 6.315-8.814 2.402-1.411 3.172-1.558 8.47-1.621 4.773-.06 5.954-.24 6.52-1.013.38-.52 5.381-19.673 5.836-23.005-.045-2.76 4.065-8.438-.701-10.697-2.486-.664-10.57 3.52-12.344 5.243z" fill="#0d6dab"/>
		<path d="M815.227 102.999c.84.928 1.999 1.022 12.545 1.022 12.652 0 13.006-.09 13.706-3.254 1.069-4.845 2.597-9.847 3.367-11.022.957-1.459 3.824-2.295 5.764-1.68.97.308 1.166.825 1.166 3.06 0 6.846-4.172 12.97-24.031 35.27-18.945 21.272-23.463 27.092-24.902 32.079-.457 1.583-1.73 7.26-2.83 12.615l-2 9.739 1.169 1.168c1.149 1.15 1.624 1.172 29.538 1.339 19.234.12 29.04-.029 30.452-.437 1.74-.508 2.168-.945 2.625-2.687.664-2.53 3.963-18.937 3.963-19.707 0-.303-.503-1.054-1.12-1.67-1.058-1.059-1.863-1.118-15.101-1.118-12.03 0-13.982-.12-13.982-.835 0-.722 3.035-4.431 9.847-12.03 11.351-12.662 21.557-24.516 23.837-27.685 6.71-9.328 10.553-20.684 10.697-31.602.095-7.2-.409-9.455-3.116-13.953-2.132-3.54-5.71-6.305-10.336-7.984-4.572-1.658-15.361-2.02-22.26-.747-7.456 1.378-14.233 4.814-18.501 9.38-4.297 4.599-7.796 11.665-10.424 23.91-.998 5.385-.582 6.266-.073 6.829z" fill="#e52626"/>
		<path d="M661.297 122.339c1.746-7.61 1.762-9.086.128-10.72-2.723-2.723-8.17-1.479-10.295 2.351-1.01 1.82-2.946 9.475-2.946 11.646 0 .617 1.257.779 6.092.779h6.092l.929-4.056z" fill="#0d6dab"/>
		<path d="M661.297 122.339c1.746-7.61 1.762-9.086.128-10.72-2.723-2.723-8.17-1.479-10.295 2.351-1.01 1.82-2.946 9.475-2.946 11.646 0 .617 1.257.779 6.092.779h6.092l.929-4.056z" fill="#fff"/>
		<path d="M475.763 182.732c-3.093-1.006-5.969-3.56-7.31-6.494-.996-2.177-1.18-3.632-1.168-9.293.028-12.742 3.791-24.914 9.641-31.168 3.568-3.814 5.927-5.057 16.138-8.507 10.6-3.582 12.574-4.406 15.697-6.556 3.936-2.707 5.302-7.07 2.95-9.42-3.56-3.56-9.417 1.25-10.417 8.555l-.361 2.63h-22.221v-1.309c0-2.71 2.312-10.32 4.466-14.706 2.582-5.255 7.037-9.82 11.867-12.16 11.596-5.616 31.439-4.529 37.83 2.075 3.102 3.207 4.192 6.624 4.134 12.957-.038 4.776-.88 9.635-5.73 33.279-4.674 22.792-5.695 28.65-5.769 33.139l-.093 5.454h-23.775v-5.681l-2.377 2.035c-1.307 1.119-4.003 2.836-5.99 3.814-3.283 1.616-4.157 1.792-9.51 1.91-3.503.072-6.749-.149-8.003-.554z" fill="#0d6dab"/>
		<path d="M499.931 163.39c2.82-2.043 3.56-3.835 5.632-13.63 1.124-5.314 1.976-9.751 1.895-9.86-.375-.493-8.408 4.33-10.375 6.23-2.566 2.477-3.013 3.507-4.353 10.026-1.112 5.418-.82 6.85 1.654 8.127 1.61.83 3.613.508 5.547-.893z" fill="#fff"/>
		<path d="M748.913 164.704c.261 9.86.977 18.442.812 19.108-.282 1.131-.69 1.22-6.436 1.398-4.524.136-6.35.41-6.953 1.028-.687.71-5.373 21.414-5.373 23.751 0 .429.396 1.175.879 1.658 1.372 1.372 19.847 1.265 24.93-.148v.006c5.386-1.493 8.55-3.573 11.48-7.549 3.44-4.667 5.567-9.019 11.798-24.147a16972.17 16972.17 0 0113.974-33.839c1.211-2.922 5.948-14.437 10.523-25.589 3.725-9.074 11.714-28.025 11.714-28.025s-26.12-.82-27.264.057h0c-.73.56-12.06 33.695-15.015 43.906-.413 1.427-1.022 2.378-1.521 2.378-.714 0-.784-.961-.481-6.573.194-3.614.523-13.798.73-22.63.297-12.653.048-16.417-.515-17.096-.602-.723-19.57-.319-21.822-.242-2.013.069-2.958 1.007-3.116 3.305l.242 15.944z" fill="#0d6dab"/>
	</g>
	<g fill="none" stroke="#666">
		<path d="M357.149 186.429c7.725-.913 15.62-3.52 21.259-9.146 3.024-3.054 5.306-6.744 7-10.63 2.276-5.218 3.673-10.734 4.797-16.233 1.136-5.445 1.871-11.23.453-16.824h0c-.99-3.806-2.697-7.396-4.953-10.6-3.883-5.503-8.563-10.315-13.106-15.128-2.462-2.617-4.984-5.109-6.936-7.948h0a11.179 11.179 0 01-1.848-4.62h0c-.279-1.647-.002-3.427.347-5.232h0c.372-1.666.652-3.288 1.54-4.35.42-.607 1.315-.937 2.263-1.243.993-.248 1.974-.405 2.751-.126.125.025.253.128.236.21.213.608.133 1.423.148 2.36h0c.003 3.055-.672 6.13-1.373 9.242a3.656 3.656 0 001.11 3.305h0c1.054.932 2.306 1.205 3.355 1.25 3.543.302 7.055.172 10.504.17 0 0 0 0 0 0 3.43.002 6.919.12 10.438-.166h0c1.024-.029 2.297-.262 3.376-1.21h0c1-1.056 1.475-2.32 1.82-3.417.6-1.741 1.003-3.519 1.327-5.284.79-4.29 1.151-8.668 1.013-13.038h0c-.056-1.92-.065-3.934-.475-5.968-.34-1.599-1-3.031-1.665-4.364-1.057-2.18-2.428-4.332-4.36-6.003-4.325-3.653-9.976-5.11-15.385-5.7-6.804-.779-13.727-.189-20.341 1.491-3.881.979-7.733 2.372-11.184 4.557-3.114 1.982-5.772 4.612-7.897 7.594h0c-3.7 5.208-5.855 11.29-7.458 17.334-.841 3.144-1.498 6.353-1.866 9.608-.306 2.647-.448 5.389-.023 8.123.675 4.122 2.743 7.78 5.011 11.061h0c3.796 5.54 8.337 10.472 12.91 15.271h0a266.295 266.295 0 015.073 5.472h0c1.01 1.127 2.03 2.166 2.824 3.295 1.843 2.493 1.9 6.032 1.477 9.382-.413 2.667-.603 5.334-1.978 7.188-.647 1.085-2.226 1.45-3.761 1.496-.775-.018-1.446.019-1.926-.176 0 0 0 0 0 0-.179-.037-.357-.225-.48-.445-.476-.71-.2-1.937-.154-3.3h0c.183-2.262.615-4.522 1.125-6.782.223-.897.551-1.97.483-3.225-.15-.942-.614-1.615-1.092-2.038-1.093-.953-2.377-1.177-3.404-1.203-3.572-.288-7.114-.17-10.598-.168-3.463-.001-6.981-.111-10.528.167-.631.04-1.354.11-2.116.366a3.16 3.16 0 00-1.252.832 3.67 3.67 0 00-.662 1.19 23.294 23.294 0 00-.644 1.775 58.162 58.162 0 00-1.345 4.89h0c-.944 4.067-1.497 8.231-1.594 12.413h0c-.088 3.313.047 6.762 1.114 10.056 1.477 4.499 4.74 8.344 8.814 10.693 3.803 2.187 8.106 3.17 12.314 3.72 5.147.69 10.377.682 15.522.056M419.693 186.185c3.91-.808 7.85-2.16 11.153-4.633.938-.6 1.628-1.317 2.162-1.168.106-.226.279.38.633.942a4.936 4.936 0 003.247 2.886h0c2.675.715 5.37.577 7.881.563 0 0 0 0 0 0 2.527.007 5.153.024 7.775-.507 1.19-.118 2.73-.69 3.547-2.268.06-.166.085-.269.09-.303.035-.142.067-.28.097-.412 0 0 0 0 0 0 .107-.466.208-.929.308-1.389 0 0 0 0 0 0 .353-1.623.695-3.247 1.035-4.868h0c1.128-5.37 2.235-10.742 3.339-16.114a7486.066 7486.066 0 008.398-41.43c.608-2.939 1.584-6.085 1.263-9.426a3.445 3.445 0 00-1.073-2.297c-.748-.58-1.54-.807-2.187-.904h0c-.811-.156-1.573-.179-2.262-.21-1.248-.065-2.49-.097-3.726-.122-3.326-.066-6.65-.067-9.968-.041h0a333.15 333.15 0 00-9.747.196h0a91.17 91.17 0 00-3.451.178s0 0 0 0c-.376.028-.763.06-1.16.11 0 0 0 0 0 0-.19.016-.47.053-.82.165-.92.204-2.055.813-2.673 2.102-.19.511-.27.963-.35 1.318-.204.861-.396 1.722-.586 2.579a580.764 580.764 0 00-1.653 7.753c-.507 2.444-1.037 4.909-1.417 7.423-.214 1.295-.444 2.754-.169 4.3h0a3.201 3.201 0 001.884 2.35c1.18.413 2.309.388 3.253.365.438 0 .86.008 1.266.043 0 0 0 0 0 0 .132.013.232.02.296.035.235.453.062.122-.651-.915.009-.017-.017.059-.038.23 0 0 0 0 0 0-.041.253-.09.512-.14.777-.162.859-.336 1.72-.513 2.583a698.096 698.096 0 01-1.596 7.542 716.723 716.723 0 01-1.677 7.583h0c-.201.883-.403 1.763-.615 2.636 0 0 0 0 0 0-.068.277-.135.549-.205.814 0 0 0 0 0 0-.047.163-.07.274-.093.325-.413 1.007-.984 1.934-1.788 2.434-.805.566-1.923.737-3.066.757 0 0 0 0 0 0l-2.191.5h0l.5-2.928c-.005-.273.06-.615.112-1.027.101-.736.22-1.476.342-2.222.39-2.382.817-4.762 1.25-7.145 1.266-6.984 2.6-13.958 3.954-20.93h0c1.428-7.35 2.882-14.695 4.39-22.027h0a754.88 754.88 0 011.795-8.519c.388-1.782.767-3.551 1.22-5.285.456-1.598.88-3.151 1.88-4.052.67-.731 1.881-.947 3.101-.983.752.01 1.432.001 1.994.163.297.108.558.213.584.35.177.209.16.664.183 1.218-.015.917-.175 1.872-.337 2.871-.303 1.834-.586 3.65-.972 5.421h0a3.625 3.625 0 00.88 3.298c.44.407.918.639 1.356.743.8.213 1.566.273 2.261.314 0 0 0 0 0 0 3.639.244 7.254.163 10.825.162l13.255-.274 1.225-1.811h0c.558-1.136.767-2.28.998-3.268h0a94.054 94.054 0 001.126-5.243h0c.734-3.894 1.242-7.896 1.05-11.933-.138-3.05-.753-6.165-2.208-8.963-1.356-2.565-3.415-4.694-5.819-6.245-2.901-1.867-6.158-3.005-9.411-3.806-1.847-.454-3.702-.601-5.495-.72a101.52 101.52 0 00-7.318-.213h0c-2.485.009-4.975.087-7.462.268h0c-1.945.139-3.932.32-5.909.755-5.746 1.264-11.334 3.785-15.678 7.883-4.509 4.296-7.429 9.948-9.3 15.765-.23.721-.377 1.42-.527 2.07h0a296.45 296.45 0 00-.93 4.132h0c-1.039 4.741-2.037 9.489-3.03 14.234h0c-3.458 16.515-6.823 33.047-10.176 49.58-1.228 6.006-2.586 12.17-2.348 18.482.154 3.803 1.4 7.542 3.645 10.638 2.569 3.462 6.57 5.444 10.556 6.463 4.735 1.093 9.75.99 14.522-.187l-.103-.49M271.523 183.971c1.012-1.23 1.308-2.301 1.363-2.856.597-1.998 1.04-3.99 1.47-5.906 2.223-9.887 4.208-20.107 6.104-29.555l1.684-12.825s0 0 0 0l2.713 1.069s0 0 0 0c.905.067 1.79.18 2.64.36 0 0 0 0 0 0 .72.258 1.084.184.84.157-.078-.234-.134-.071-.009.25.134.916-.032 2.024-.17 3.277-.802 6.458-2.319 13.063-3.603 19.39-1.325 6.454-3.06 12.632-3.44 19.377 0 0 0 0 0 0-.116 1.205-.045 2.684.602 4.247.638 1.24 1.448 2.073 2.122 2.656.332.34.829.742 1.534 1.113.913.4 1.727.552 2.368.602 3.563.411 7.092.303 10.345.35 3.999.077 8.073.36 12.314-.312.865-.083 1.974-.383 3.124-1.16.883-.741 1.401-1.629 1.588-2.501.346-1.596-.024-3.1-.87-4.207-.318-.488-.526-1.086-.528-1.611-.014.03.025-.103.06-.404.065-.448.143-.906.224-1.374.266-1.543.555-3.091.846-4.63 0 0 0 0 0 0 .905-4.79 1.853-9.544 2.797-14.181 1.161-5.706 2.316-11.114 3.207-16.735.378-2.325.691-4.754.551-7.296a22.824 22.824 0 00-1.7-7.287c-.715-1.889-1.825-3.897-3.707-5.459-.32-.29-.587-.584-.627-.823.059-.111-.006.054-.08.55-.45.688-.863 1.003-1.379.976 1.229-.234 1.733-.478 1.548-.556 0 0 0 0 0 0 .367-.244.686-.487.97-.711a43.42 43.42 0 002.477-2.12c2.55-2.332 4.573-5.175 5.878-8.326 2.073-5.09 3.053-10.47 4.013-15.341.917-4.541 1.917-8.982 2.084-13.722a18.59 18.59 0 00-1.552-8.024c-1.959-4.393-5.49-7.814-9.54-9.843-1.396-.71-2.861-1.388-4.448-1.905-1.78-.568-3.57-.885-5.297-1.074-6.997-.775-14.307-.534-20.591-.532-4.898-.001-9.55.024-14.199.146-1.44.038-2.873.081-4.325.173-.422.026-.872.058-1.35.115 0 0 0 0 0 0-.032-.064-.476.01-1.28.338 0 0 0 0 0 0-1.032.516-1.862 1.414-2.32 2.58 0 0 0 0 0 0a5.13 5.13 0 00-.248.898c-.118.499-.229.992-.336 1.474-.37 1.668-.727 3.337-1.071 4.96a2050.006 2050.006 0 00-3.224 15.514c-2.467 12.075-4.341 21.261-6.414 31.315-2.296 11.151-4.766 23.352-6.44 31.605-2.523 12.445-3.783 18.714-5.607 27.538-.428 2.016-.89 3.829-1.008 5.99a6.529 6.529 0 00.285 2.464c.301.861.848 1.584 1.568 2.11 2.049 1.276 4.089 1.368 5.374 1.339 3.167.163 7.094.042 9.04.016 5.557-.069 6.869-.057 9.608-.297 0 0 0 0 0 0 1.495.155 2.872-.602 3.42-.95.613-.39.601-.424.601-.424"/>
		<path d="M293.432 106.89c2.978-1.414 4.12-3.75 5.818-11.902 1.737-8.343 1.52-9.69-1.781-11.07-2.014-.841-8.126-1.13-8.126-.383 0 .42-4.165 20.949-4.78 23.56-.311 1.325-.28 1.335 3.254 1.052 1.963-.158 4.49-.723 5.615-1.257zM563.756 183.355c.332-.414.453-.71.452-.818.14-.373.251-.737.353-1.084.347-1.173.64-2.348.922-3.511.912-3.756 1.713-7.531 2.48-11.305 1.875-9.229 3.755-18.456 5.645-27.682h0a9719.062 9719.062 0 0010.817-53.442c1.12-5.628 2.238-11.26 3.32-16.9h0c.308-1.61.617-3.224.908-4.845h0c.082-.457.164-.919.24-1.388.021-.137.044-.281.063-.432.01-.052.025-.165.03-.341a3.198 3.198 0 00-1.61-2.85c-.358-.164-.616-.221-.747-.227 0 0 0 0 0 0a11.973 11.973 0 00-.928-.123c-.955-.096-1.9-.146-2.83-.186h0c-3.014-.134-6.024-.16-9.023-.16-3.421-.002-6.904-.128-10.418.166-.998.024-2.255.276-3.293 1.262a4.026 4.026 0 00-.764 1.475 28.597 28.597 0 00-.746 2.43h0c-.733 2.713-1.31 5.449-1.865 8.17h0c-1.931 9.468-3.872 18.935-5.815 28.4h0c-2.904 14.166-5.789 28.335-8.664 42.506h0c-2.135 10.515-4.258 21.031-6.421 31.537-.383 1.833-.885 3.747-.993 5.796h0a5.364 5.364 0 00.24 2.085 3.318 3.318 0 001.24 1.605c1.644 1.034 3.472 1.092 4.974 1.112 3.139.149 6.25.049 9.324.015 3.155-.032 6.348-.017 9.56-.266.89.042 2.296.045 3.55-1M602.426 183.293c-.057.037.088-.036.365-.296.39-.462.552-.868.603-1.121h0c.833-2.471 1.242-4.988 1.752-7.397h0c4.878-22.897 9.35-45.87 13.982-68.802 2.007-9.931 4.016-19.862 6.032-29.792a8717.968 8717.968 0 012.448-12.017h0c.078-.378.145-.739.224-1.076h0a3.636 3.636 0 00-1.102-3.313c-1.041-.923-2.279-1.2-3.321-1.248-3.474-.3-6.916-.172-10.294-.17-2.891 0-5.789.036-8.689.159-.95.04-1.912.087-2.883.175a13.84 13.84 0 00-.94.111c-.107-.006-.369.043-.757.217a3.931 3.931 0 00-1.862 2.057 2.2 2.2 0 00-.09.295c-.036.139-.068.272-.098.4 0 0 0 0 0 0-.106.45-.205.896-.303 1.338-.36 1.63-.705 3.26-1.05 4.886h0a3814.547 3814.547 0 00-3.806 18.273h0c-4.639 22.46-9.218 44.932-13.791 67.403a1248.448 1248.448 0 00-3.696 18.789h0c-.377 2.007-.75 4.021-1.091 6.045-.1.595-.2 1.197-.285 1.81-.026.18-.05.372-.07.575 0 0 0 0 0 0-.015.06-.028.221-.01.482.04.668.295 1.44.91 2.115h0c.828.734 1.769 1.01 2.544 1.11 4.084.738 8.168.4 12.09.342 3.201-.04 6.446-.016 9.712-.29.927.014 2.281-.06 3.477-1.06M655.28 185.574c7.551-1.796 14.296-6.23 18.467-12.446 3.147-4.744 4.842-10.193 6.138-15.395.47-1.856 1.047-3.735 1.292-5.77a5.72 5.72 0 00-.059-2.05 3.082 3.082 0 00-1.035-1.652c-1.486-1.077-3.19-1.16-4.519-1.177-2.858-.173-5.73-.102-8.47-.102-2.542 0-5.029-.048-7.578.05-1.277.025-2.73.07-4.166.682a4.077 4.077 0 00-2.068 2.4c-.445 1.337-.592 2.661-.798 3.844-.387 2.09-.723 4.089-1.611 5.755-.475.873-1.19 1.617-2.021 1.804a8.17 8.17 0 01-3.405.186s0 0 0 0c-.698-.244-1.208-.107-.994-.178-.237-.12.002-.798-.064-1.716.016-1.094.21-2.236.386-3.414.25-1.635.546-3.252.888-4.848l.776-5.477 16.594.245c4.99-.042 9.659.02 14.507-.282.846-.047 1.763-.102 2.718-.344.465-.097.988-.35 1.462-.823.27-.355.38-.607.389-.707.119-.308.215-.606.3-.887a58.41 58.41 0 00.758-2.75c.717-2.805 1.355-5.619 1.958-8.36 1.345-6.119 2.584-11.863 3.422-17.76 1.081-7.496-1.261-15.143-6.494-19.906-2.85-2.55-6.325-4.176-9.826-5.045-4.74-1.175-9.6-1.242-14.091-1.003-6.687.335-12.981 1.52-18.574 4.263-4.396 2.165-8.104 5.298-10.679 9.097-3.277 4.883-4.935 10.537-6.055 15.576-2.334 10.405-4.428 20.975-6.032 29.165-.932 4.761-1.74 8.967-2.493 13.14-.269 1.49-.52 2.908-.748 4.338 0 0 0 0 0 0-.074.462-.145.923-.206 1.392 0 0 0 0 0 0a6.363 6.363 0 00-.079.872c.011 2.232.584 4.341 1.194 6.164.647 2.012 1.418 3.91 2.667 5.569 2.077 2.684 4.968 4.35 7.439 5.437 4.03 1.798 8.071 2.596 11.206 2.989 3.823.479 7.75.318 9.965.217 3.89-.374 5.78-.706 7.358-1.057 1.187-.263 2.07-.53 2.052-.525 0 0 0 0 0 0l-.128-.483"/>
		<path d="M661.497 122.675c1.744-7.61 1.761-9.084.128-10.718-2.724-2.723-8.17-1.479-10.295 2.35-1.01 1.82-2.946 9.474-2.946 11.645 0 .617 1.258.779 6.092.779h6.091l.929-4.056z"/>
		<path d="M661.497 122.675c1.744-7.61 1.761-9.084.128-10.718-2.724-2.723-8.17-1.479-10.295 2.35-1.01 1.82-2.946 9.474-2.946 11.645 0 .617 1.258.779 6.092.779h6.091l.929-4.056zM475.673 184.013c-3.493-1.136-6.408-3.751-7.91-7.028a12.574 12.574 0 01-1.044-3.631s0 0 0 0c-.257-2.072-.221-4.123-.214-6.08.012-6.3.883-12.487 2.682-18.308 1.519-4.964 3.713-9.754 7.228-13.538 1.694-1.815 3.63-3.418 5.841-4.59 3.471-1.823 7.21-3.004 10.705-4.18 3.666-1.24 7.171-2.362 10.586-3.79a26.658 26.658 0 004.863-2.641c1.593-1.12 2.932-2.602 3.445-4.319.373-1.287.232-2.802-.636-3.57-.6-.594-1.446-.97-2.22-.901-.89.026-1.797.533-2.606 1.17-2.256 1.813-3.466 4.79-3.892 7.714l-.856 3.062-11.605.432-11.609-.5-.5-1.808c.008-1.091.211-2.106.417-3.035a49.694 49.694 0 011.051-3.98c.85-2.803 1.825-5.532 3.1-8.131 2.71-5.534 7.077-10.062 12.327-12.617 6.856-3.304 14.49-4.034 21.355-3.643 3.528.19 6.97.721 10.236 1.766 2.704.845 5.352 2.086 7.389 4.156 1.577 1.625 2.8 3.566 3.486 5.697.837 2.661.963 5.415.93 7.962-.031 3.36-.545 6.662-1.076 9.724-1.396 8.103-3.269 16.894-4.674 23.744-1.851 9.029-3.285 15.826-4.603 23.401-.595 3.435-1.098 6.47-1.145 9.55l-.593 5.945-12.387.492-12.386-.5-.5-3.34.825-2.46-1.55 2.415c-2.06 1.757-4.317 3.028-6.2 3.95-1.45.724-2.764 1.296-4.222 1.6 0 0 0 0 0 0-2.063.406-4.419.389-5.706.413-2.15.045-3.75-.019-4.935-.1-1.213-.271-1.72-.4-2.366-.628-.47-.167-.801-.323-.877-.359l.156-.483"/>
		<path d="M500.148 163.722c2.819-2.043 3.56-3.835 5.63-13.629 1.125-5.313 1.977-9.75 1.896-9.86-.376-.492-8.407 4.332-10.374 6.231-2.566 2.477-3.013 3.507-4.352 10.024-1.112 5.418-.821 6.85 1.653 8.127 1.61.83 3.613.507 5.547-.893zM733.503 94.117c-1.356.879-2.677 1.684-4.025 1.797-.385-.013-.682.03-.693-.072-.06.075-.04-.184-.08-.486.088-.65.13-1.536-.272-2.512 0 0 0 0 0 0-.617-1.016-1.546-1.482-2.329-1.602-4.331-1.046-8.851-.542-12.845-.528-3.718-.002-7.298-.184-11.022.163-.537.02-1.246.106-2.006.5 0 0 0 0 0 0-.525.36-.829.77-.978 1.108 0 0 0 0 0 0-1.382 2.653-1.592 5.618-2.108 8.092-2.145 9.875-4.248 20.418-6.077 29.41a95764.561 95764.561 0 01-6.966 34.222c-1.09 5.312-2.48 10.06-2.705 15.361 0 0 0 0 0 0-.092.833-.04 1.915.604 2.966 0 0 0 0 0 0a3.981 3.981 0 001.975 1.308c.718.252 1.36.292 1.857.324 0 0 0 0 0 0 .99.094 1.971.142 2.928.179 2.672.104 5.323.117 7.887.097 2.655-.02 5.234-.077 7.8-.22a46.667 46.667 0 002.82-.225c.316-.037.647-.08.99-.148.174-.022.444-.085.785-.24 0 0 0 0 0 0 .348-.143.854-.43 1.338-1.026 0 0 0 0 0 0 .685-1.09.907-2.23 1.113-3.142 1.99-7.888 3.665-17.353 5.022-24.048a776.3 776.3 0 012.82-13.357c.351-1.588.694-3.11 1.057-4.623.204-.837.354-1.597.6-2.282 1.312-3.598 3.097-6.71 5.877-8.284.976-.563 1.897-1.033 2.831-1.197 1.613-.318 3.435-.261 5.146-.287 1.678-.017 3.285.006 4.978-.251.711-.041 1.605-.347 2.336-1.172.128-.204.181-.314.17-.321.038-.096.068-.182.093-.255 0 0 0 0 0 0 .085-.251.16-.495.229-.728.24-.8.462-1.6.673-2.366a426.8 426.8 0 001.886-7.12 416.69 416.69 0 001.9-7.647c.25-1.048.478-2.036.69-3.025.144-.685.286-1.357.384-2.074-.034-.654.26-1.452.499-2.274.341-1.067.672-2.024.904-3.118.255-1.11.306-2.281-.034-3.433-.528-1.43-1.634-2.374-2.723-2.866-1.356-.302-2.558.018-3.347.27-1.499.433-2.861 1.024-3.854 1.484 0 0 0 0 0 0a39.104 39.104 0 00-3.671 1.926s0 0 0 0c-1.33.777-1.83 1.177-2.207 1.504-.31.268-.305.276-.305.276"/>
		<path d="M747.913 164.73c.116 4.352.328 8.695.567 13.031.078 1.412.162 2.817.225 4.217.02.423.038.836.043 1.24-.013.269.02.392.006.353-.078.19-.072.286-.058.21.056.015-.099.017-.353.11 0 0 0 0 0 0-1.546.35-3.271.255-5.085.32h0c-1.649.047-3.346.091-5.063.343-.682.027-1.667.2-2.576.987 0 0 0 0 0 0-.304.39-.411.643-.392.702-.109.29-.196.57-.276.833a63.345 63.345 0 00-.713 2.594 260.81 260.81 0 00-1.821 7.612h0a291.946 291.946 0 00-1.692 7.916h0c-.193.98-.382 1.968-.546 2.967h0c-.091.525-.208 1.132-.216 1.824.07 1.086.596 1.892 1.171 2.365.726.586 1.397.72 1.774.72.888.171 1.764.258 2.613.324h0c2.476.198 4.947.235 7.4.22h0a115.74 115.74 0 008.08-.31c1.96-.142 4.008-.288 6.04-.845h0l.001.006s0 0 0 0c2.395-.659 4.788-1.565 6.94-2.972 2.006-1.326 3.685-3.055 5.074-4.947 1.923-2.611 3.537-5.42 4.946-8.305 2.573-5.267 4.76-10.683 6.972-16.054h0a15754.9 15754.9 0 0113.974-33.838c3.531-8.521 7.023-17.058 10.523-25.589l11.266-28.715-.05-.048-.144-.135-.551-.519c-.28-.007-.558-.016-.837-.024 0 0 0 0 0 0h0c-.994-.029-1.988-.056-2.982-.081h0a805.086 805.086 0 00-9.114-.186h0c-3.106-.044-6.22-.077-9.343-.021a57.99 57.99 0 00-3.296.127c-.343.025-.709.057-1.093.12 0 0 0 0 0 0-.107-.033-.441.042-.94.338 0 0 0 0 0 0-.09.094-.16.167-.208.221 0 0 0 0 0 0-.134.131-.178.222-.161.243 0 0 0 0 0 0-.078.146-.14.278-.19.394a27.5 27.5 0 00-.496 1.198 157.434 157.434 0 00-1.514 4.058 751.346 751.346 0 00-4.441 12.69c-1.649 4.82-3.271 9.651-4.856 14.495h0c-1.205 3.683-2.416 7.378-3.5 11.123 0 0 0 0 0 0-.168.555-.346 1.064-.61 1.463 0 0 0 0 0 0-.295.196-.26.397.05.192.187.02.311.096.448.264-.041.015-.016-.183-.073-.519-.128-1.68.047-3.439.142-5.263.406-7.56.555-15.118.731-22.66h0c.103-4.343.225-8.712.065-13.1-.034-.966-.078-1.968-.231-2.992 0 0 0 0 0 0 .002-.363-.105-.976-.58-1.668-.529-.428-.848-.55-.88-.461a7.26 7.26 0 00-.807-.116 35.86 35.86 0 00-2.395-.137h0c-2.336-.077-4.665-.077-6.983-.068-3.846.016-7.701.049-11.56.18-.956-.01-2.052.288-2.942 1.125h0c-.843.986-1.117 2.156-1.138 3.153l.241 15.991z"/>
		<path d="M814.486 103.67c.345.374.77.654 1.237.822.74.251 1.443.323 2.056.363 3.37.272 6.71.168 9.993.166 0 0 0 0 0 0 3.71.014 7.652.44 11.566-.467h0a3.844 3.844 0 002.291-1.356c.527-.792.713-1.586.825-2.216a88.827 88.827 0 011.776-6.81h0c.264-.864.538-1.713.85-2.537.211-.536.37-1.008.601-1.342h0c.317-.57 1.113-.918 1.957-1.205h0c.921-.251 1.876-.34 2.669-.069.193.083.364.157.315.21.2.426.128 1.094.153 1.896a14.1 14.1 0 01-.899 4.914c-.823 2.23-2.107 4.315-3.496 6.362h0c-5.658 8.313-12.618 15.727-19.383 23.328-6.467 7.26-13.058 14.47-19.059 22.2-2.39 3.045-4.887 6.313-6.057 10.267h0c-.478 1.66-.825 3.325-1.19 4.952h0a437.408 437.408 0 00-1.66 7.74h0l-1.862 10.193h0l1.305 1.623h0a3.743 3.743 0 001.63.931c1.316.33 2.594.353 3.764.398 8.3.375 16.59.253 24.844.302 7.304.045 14.615.085 21.931-.02 1.967-.03 3.944-.064 5.928-.161h0c.58-.028 1.172-.062 1.772-.12a5.756 5.756 0 001.107-.176s0 0 0 0c.668-.16 1.49-.456 2.23-1.142.667-.754.943-1.58 1.083-2.251.36-1.376.628-2.746.91-4.086.457-2.16.899-4.322 1.334-6.484.412-2.049.819-4.1 1.209-6.157.132-.695.263-1.394.386-2.1.037-.215.075-.437.11-.666 0 0 0 0 0 0 .015-.073.04-.228.047-.468-.087-.72-.324-1.136-.498-1.275a7.34 7.34 0 00-.914-1.102 3.674 3.674 0 00-1.315-.856s0 0 0 0c-.826-.28-1.614-.35-2.302-.39-4.101-.302-8.174-.166-12.192-.165 0 0 0 0 0 0-3.849 0-7.668.08-11.442-.148 0 0 0 0 0 0-.687-.051-1.29-.058-1.759-.213-.052-.188-.083.002.219.525 0 0 0 0 0 0-.123.116.159-.04.404-.548.524-.762 1.123-1.5 1.739-2.254 2.386-2.915 4.914-5.73 7.449-8.559a1159.305 1159.305 0 0015.333-17.418 450.355 450.355 0 005.439-6.415h0c1.052-1.268 2.135-2.552 3.132-3.936 6.71-9.322 10.727-20.658 10.885-32.173.043-2.673.075-5.455-.531-8.22h0c-.524-2.292-1.574-4.359-2.728-6.262h0c-2.46-4.04-6.506-6.849-10.852-8.408-3.452-1.235-7.09-1.43-10.565-1.532h0c-4.057-.14-8.17-.002-12.217.742-7.07 1.287-14.048 4.358-19.05 9.68h0c-6.194 6.693-8.848 15.735-10.675 24.396-.327 1.716-.693 3.54-.62 5.464.119.57.445 1.27 1.158 1.898l.37-.336"/>
	</g>
</svg>
