<svg xmlns="http://www.w3.org/2000/svg" width="359.157" height="360.503" viewBox="0 0 336.71 337.971">
	<path d="M106.186 250.892l-97.24.306c-2.61.008 1.37-38.306 8.927-66.321 7.557-28.015 18.736-43.03 26.098-55.781 7.18-12.438 42.215-45.657 42.215-45.657l58.16 27.453s-23.304 22.962-30.707 61.508c-3.01 15.669-7.453 78.492-7.453 78.492z" fill="#58a323" fill-rule="evenodd" stroke="#fff" stroke-width="5" stroke-linejoin="round"/>
	<path d="M251.206 231.378l.306 97.24c.008 2.61-38.306-1.37-66.321-8.927-28.015-7.557-43.031-18.736-55.781-26.097-12.438-7.181-45.657-42.216-45.657-42.216l22.618-.256 4.835-57.904s22.962 23.304 61.508 30.707c15.669 3.01 78.492 7.453 78.492 7.453z" fill="#0d6dab" fill-rule="evenodd" stroke="#fff" stroke-width="5" stroke-linejoin="round"/>
	<path d="M231.361 86.062l97.24-.306c2.61-.008-1.37 38.306-8.927 66.321-7.557 28.015-18.736 43.031-26.097 55.781-7.181 12.438-42.216 45.657-42.216 45.657l-.134-22.074-58.026-5.379s23.304-22.962 30.707-61.508c3.01-15.669 7.453-78.492 7.453-78.492z" fill="#e52626" fill-rule="evenodd" stroke="#fff" stroke-width="5" stroke-linecap="round" stroke-linejoin="round"/>
	<path d="M86.07 105.736l-.307-97.24c-.008-2.61 38.306 1.37 66.321 8.927 28.015 7.557 43.031 18.736 55.781 26.098 12.438 7.18 45.658 42.215 45.658 42.215l-22.508.026-4.946 58.134s-22.962-23.304-61.508-30.707c-15.669-3.01-78.492-7.453-78.492-7.453z" fill="#f60" fill-rule="evenodd" stroke="#fff" stroke-width="5" stroke-linejoin="round"/>
	<path d="M118.812 172.057c-1.364 7.1-.858 2.858-2.205 18.865m30.03-74.607s-21.116 20.812-27.825 55.742m-2.205 18.866s20.808 21.117 55.738 27.826c3.861.742 9.973 1.543 18.152 2.37m30.538-74.623s-20.907-21.174-55.837-27.883c-3.899-.749-10.283-1.463-18.561-2.298m43.86 104.804s21.53-21.241 28.24-56.172c.713-3.713 1.502-10.675 2.298-18.45" fill="none" stroke="#666" stroke-width="1.894" stroke-linecap="round" stroke-linejoin="round"/>
	<path d="M83.014 82.59s-40.154 38.846-52.225 62.151c-13.294 22.658-19.034 46.477-22.697 72.352-1.783 12.04-3.549 37.151-3.549 37.151l77.323-.285s38.43 40.356 62.478 52.556c21.975 12.75 44.104 18.677 69.12 22.788 12.487 1.827 41.34 4.125 41.34 4.125l-.017-79.367s38.286-34.756 50.466-58.71c12.75-21.977 20.026-47.17 23.666-72.188 1.825-12.486 3.247-40.022 3.247-40.022s-52.346-.606-77.254-.57c-18.361-18.788-36.643-38.45-60.263-50.735-23.226-13.672-49.533-20.814-76.055-24.54-10.317-1.693-36.43-2.753-36.43-2.753z" fill="none" stroke="#666" stroke-width="2" stroke-linejoin="round"/>
</svg>