<?xml version="1.0" encoding="UTF-8" standalone="no"?>
<!-- Created with Inkscape (http://www.inkscape.org/) -->

<svg
		xmlns:dc="http://purl.org/dc/elements/1.1/"
		xmlns:cc="http://creativecommons.org/ns#"
		xmlns:rdf="http://www.w3.org/1999/02/22-rdf-syntax-ns#"
		xmlns="http://www.w3.org/2000/svg"
		xmlns:sodipodi="http://sodipodi.sourceforge.net/DTD/sodipodi-0.dtd"
		xmlns:inkscape="http://www.inkscape.org/namespaces/inkscape"
		width="258.76688mm"
		height="74.436195mm"
		viewBox="0 0 916.8905 263.7503"
		id="svg4845"
		version="1.1"
		inkscape:version="0.91 r13725"
		sodipodi:docname="RSG2_logoText.16.svg">
	<defs
			id="defs4847">
		<inkscape:path-effect
				effect="skeletal"
				id="path-effect4650"
				is_visible="true"
				pattern="m 57.982756,4.2426407 1,0"
				copytype="single_stretched"
				prop_scale="1"
				scale_y_rel="false"
				spacing="0"
				normal_offset="1"
				tang_offset="0"
				prop_units="false"
				vertical_pattern="false"
				fuse_tolerance="0"/>
		<inkscape:path-effect
				effect="skeletal"
				id="path-effect4648"
				is_visible="true"
				pattern="m 57.982756,4.2426407 1,0"
				copytype="single_stretched"
				prop_scale="1"
				scale_y_rel="false"
				spacing="0"
				normal_offset="1"
				tang_offset="0"
				prop_units="false"
				vertical_pattern="false"
				fuse_tolerance="0"/>
		<inkscape:path-effect
				effect="skeletal"
				id="path-effect4641"
				is_visible="true"
				pattern="m 57.982756,4.7426407 c 7.07107,0 7.07107,0 7.07107,0 l 0,0"
				copytype="single_stretched"
				prop_scale="1"
				scale_y_rel="false"
				spacing="0"
				normal_offset="1"
				tang_offset="0.1"
				prop_units="false"
				vertical_pattern="false"
				fuse_tolerance="0"/>
		<inkscape:path-effect
				effect="skeletal"
				id="path-effect4634"
				is_visible="true"
				pattern="m 57.982756,4.7426407 c 7.07107,0 7.07107,0 7.07107,0 l 0,0"
				copytype="single_stretched"
				prop_scale="1"
				scale_y_rel="false"
				spacing="0"
				normal_offset="1"
				tang_offset="0"
				prop_units="false"
				vertical_pattern="false"
				fuse_tolerance="0"/>
		<inkscape:path-effect
				effect="skeletal"
				id="path-effect4632"
				is_visible="true"
				pattern="m 57.982756,4.2426407 1,0"
				copytype="single_stretched"
				prop_scale="1"
				scale_y_rel="false"
				spacing="0"
				normal_offset="1"
				tang_offset="0"
				prop_units="false"
				vertical_pattern="false"
				fuse_tolerance="0"/>
		<inkscape:path-effect
				effect="skeletal"
				id="path-effect4630"
				is_visible="true"
				pattern="m 57.982756,4.2426407 1,0"
				copytype="single_stretched"
				prop_scale="1"
				scale_y_rel="false"
				spacing="0"
				normal_offset="1"
				tang_offset="0"
				prop_units="false"
				vertical_pattern="false"
				fuse_tolerance="0"/>
		<inkscape:path-effect
				effect="skeletal"
				id="path-effect4613"
				is_visible="true"
				pattern="m 57.982756,4.7426407 c 7.07107,0 7.07107,0 7.07107,0 l 0,0"
				copytype="single_stretched"
				prop_scale="1"
				scale_y_rel="false"
				spacing="0"
				normal_offset="-1"
				tang_offset="0"
				prop_units="false"
				vertical_pattern="false"
				fuse_tolerance="0"/>
		<inkscape:path-effect
				effect="skeletal"
				id="path-effect4611"
				is_visible="true"
				pattern="m 57.982756,4.2426407 1,0"
				copytype="single_stretched"
				prop_scale="1"
				scale_y_rel="false"
				spacing="0"
				normal_offset="1"
				tang_offset="0"
				prop_units="false"
				vertical_pattern="false"
				fuse_tolerance="0"/>
		<inkscape:path-effect
				effect="skeletal"
				id="path-effect4604"
				is_visible="true"
				pattern="m 57.982756,4.2426407 1,0"
				copytype="single_stretched"
				prop_scale="1"
				scale_y_rel="false"
				spacing="0"
				normal_offset="1"
				tang_offset="0"
				prop_units="false"
				vertical_pattern="false"
				fuse_tolerance="0"/>
		<inkscape:path-effect
				effect="skeletal"
				id="path-effect4581"
				is_visible="true"
				pattern="m 57.982756,4.7426407 c 7.07107,0 7.07107,0 7.07107,0 l 0,0"
				copytype="single_stretched"
				prop_scale="1"
				scale_y_rel="false"
				spacing="0"
				normal_offset="2"
				tang_offset="0"
				prop_units="false"
				vertical_pattern="false"
				fuse_tolerance="0"/>
	</defs>
	<sodipodi:namedview
			id="base"
			pagecolor="#ffffff"
			bordercolor="#666666"
			borderopacity="1.0"
			inkscape:pageopacity="0.0"
			inkscape:pageshadow="2"
			inkscape:zoom="0.70710678"
			inkscape:cx="316.30022"
			inkscape:cy="-147.30914"
			inkscape:document-units="px"
			inkscape:current-layer="layer8"
			showgrid="false"
			inkscape:window-width="1618"
			inkscape:window-height="1027"
			inkscape:window-x="54"
			inkscape:window-y="-8"
			inkscape:window-maximized="1"
			fit-margin-left="10"
			fit-margin-top="10"
			fit-margin-right="10"
			fit-margin-bottom="10"/>
	<metadata
			id="metadata4850">
		<rdf:RDF>
			<cc:Work
					rdf:about="">
				<dc:format>image/svg+xml</dc:format>
				<dc:type
						rdf:resource="http://purl.org/dc/dcmitype/StillImage"/>
				<dc:title></dc:title>
			</cc:Work>
		</rdf:RDF>
	</metadata>
	<g
			inkscape:groupmode="layer"
			id="layer5"
			inkscape:label="Gray background"
			sodipodi:insensitive="true"
			style="display:none"
			transform="translate(-53.789845,-188.52269)">
		<rect
				style="opacity:1;fill:#666666;fill-opacity:1;stroke:#000000;stroke-width:3;stroke-linecap:round;stroke-linejoin:round;stroke-miterlimit:4;stroke-dasharray:none;stroke-opacity:1"
				id="rect4226"
				width="1036.782"
				height="729.42999"
				x="7.0818443"
				y="6.1662903"/>
	</g>
	<g
			inkscape:label="Logo image"
			inkscape:groupmode="layer"
			id="layer1"
			transform="translate(-53.789845,-496.79041)"
			style="display:inline">
		<path
				style="display:inline;fill:#58a323;fill-opacity:1;fill-rule:evenodd;stroke:#ffffff;stroke-width:2.91467881;stroke-linecap:butt;stroke-linejoin:round;stroke-miterlimit:4;stroke-dasharray:none;stroke-opacity:1"
				d="m 149.057,676.41162 -56.684898,0.17855 c -1.521435,0.008 0.798783,-22.33017 5.204231,-38.66087 4.405357,-16.33063 10.921867,-25.08445 15.213127,-32.51689 4.18598,-7.25021 24.60866,-26.61524 24.60866,-26.61524 L 171.302,594.8004 c 0,0 -13.5845,13.38554 -17.90028,35.85533 -1.75429,9.13394 -4.34472,45.75589 -4.34472,45.75589 z"
				id="path4282"
				inkscape:connector-curvature="0"
				sodipodi:nodetypes="csssccsc"
				inkscape:export-xdpi="25.637558"
				inkscape:export-ydpi="25.637558"/>
		<path
				sodipodi:nodetypes="cssscccsc"
				inkscape:connector-curvature="0"
				id="path4294"
				d="m 233.59433,665.03629 0.17842,56.68487 c 0.008,1.52177 -22.33018,-0.79862 -38.66089,-5.2041 -16.33068,-4.40547 -25.08444,-10.92203 -32.51688,-15.2129 -7.25026,-4.18627 -26.61524,-24.609 -26.61524,-24.609 l 13.18527,-0.14949 2.81804,-33.75405 c 0,0 13.38546,13.5844 35.85527,17.90006 9.13404,1.75436 45.75601,4.34461 45.75601,4.34461 z"
				style="display:inline;fill:#0d6dab;fill-opacity:1;fill-rule:evenodd;stroke:#ffffff;stroke-width:2.91467881;stroke-linecap:butt;stroke-linejoin:round;stroke-miterlimit:4;stroke-dasharray:none;stroke-opacity:1"
				inkscape:export-xdpi="25.637558"
				inkscape:export-ydpi="25.637558"/>
		<path
				style="display:inline;fill:#e52626;fill-opacity:1;fill-rule:evenodd;stroke:#ffffff;stroke-width:2.91467881;stroke-linecap:round;stroke-linejoin:round;stroke-miterlimit:4;stroke-dasharray:none;stroke-opacity:1"
				d="m 222.02616,580.32639 56.68487,-0.17844 c 1.52171,-0.008 -0.79864,22.3302 -5.20412,38.66094 -4.40548,16.33071 -10.92201,25.08439 -15.21297,32.51697 -4.18618,7.25021 -24.60895,26.61524 -24.60895,26.61524 l -0.0785,-12.86818 -33.82538,-3.13533 c 0,0 13.5844,-13.38526 17.90007,-35.85524 1.75435,-9.13403 4.34468,-45.75596 4.34468,-45.75596 z"
				id="path4298"
				inkscape:connector-curvature="0"
				sodipodi:nodetypes="cssscccsc"
				inkscape:export-xdpi="25.637558"
				inkscape:export-ydpi="25.637558"/>
		<path
				sodipodi:nodetypes="cssscccsc"
				inkscape:connector-curvature="0"
				id="path4286"
				d="m 137.33055,591.79525 -0.17887,-56.68487 c -0.008,-1.52178 22.33017,0.79862 38.66127,5.20409 16.33055,4.40548 25.08405,10.92204 32.51649,15.21291 7.25046,4.18627 26.61524,24.609 26.61524,24.609 l -13.12042,0.0145 -2.88281,33.88854 c 0,0 -13.38554,-13.5846 -35.85534,-17.90036 -9.13391,-1.75428 -45.75556,-4.34466 -45.75556,-4.34466 z"
				style="display:inline;fill:#ff6600;fill-opacity:1;fill-rule:evenodd;stroke:#ffffff;stroke-width:2.91467881;stroke-linecap:butt;stroke-linejoin:round;stroke-miterlimit:4;stroke-dasharray:none;stroke-opacity:1"
				inkscape:export-xdpi="25.637558"
				inkscape:export-ydpi="25.637558"/>
		<path
				inkscape:connector-curvature="0"
				id="path4156"
				style="display:inline;fill:none;fill-opacity:1;fill-rule:evenodd;stroke:#666666;stroke-width:1.09489763;stroke-linecap:round;stroke-linejoin:round;stroke-miterlimit:4;stroke-dasharray:none;stroke-opacity:1"
				d="m 156.65242,630.44048 c -0.7885,4.10494 -0.49554,1.65227 -1.27482,10.90807 m 17.36405,-43.13957 c 0,0 -12.21007,12.03378 -16.08923,32.2315 m -1.27522,10.90848 c 0,0 12.03203,12.21081 32.22967,16.09009 2.23272,0.42874 5.76673,0.89211 10.49571,1.37032 m 17.65831,-43.14897 c 0,0 -12.08926,-12.24339 -32.28676,-16.12278 -2.2543,-0.433 -5.94563,-0.8463 -10.73248,-1.32864 m 25.36061,60.60039 c 0,0 12.4505,-12.28233 16.32983,-32.48004 0.41222,-2.14714 0.86871,-6.17287 1.3288,-10.66893"
				inkscape:export-xdpi="25.637558"
				inkscape:export-ydpi="25.637558"/>
		<path
				style="display:inline;fill:none;fill-opacity:1;fill-rule:evenodd;stroke:#666666;stroke-width:1.16587245;stroke-linecap:butt;stroke-linejoin:round;stroke-miterlimit:4;stroke-dasharray:none;stroke-opacity:1"
				d="m 135.5493,578.30255 c 0,0 -23.40732,22.64451 -30.44371,36.2299 -7.75002,13.20848 -11.09598,27.09347 -13.231339,42.17702 -1.039288,7.01841 -2.068403,21.65642 -2.068403,21.65642 l 45.074082,-0.16623 c 0,0 22.40215,23.52507 36.42049,30.63646 12.81041,7.43233 25.71002,10.88764 40.2932,13.28423 7.27882,1.06475 24.09753,2.40436 24.09753,2.40436 l -0.01,-46.26582 c 0,0 22.31769,-20.26084 29.41783,-34.22446 7.4322,-12.81075 11.67425,-27.49695 13.79598,-42.08019 1.06399,-7.27909 1.89315,-23.33068 1.89315,-23.33068 0,0 -30.51442,-0.35334 -45.03427,-0.33227 -10.70351,-10.95207 -21.36052,-22.41356 -35.12987,-29.57557 -13.53906,-7.96962 -28.87432,-12.13297 -44.33488,-14.30447 -6.0143,-0.98751 -21.23627,-1.60484 -21.23627,-1.60484 z"
				id="path4298-3"
				inkscape:connector-curvature="0"
				sodipodi:nodetypes="ccccccccccccccccc"
				inkscape:export-xdpi="25.637558"
				inkscape:export-ydpi="25.637558"/>
	</g>
	<g
			inkscape:groupmode="layer"
			id="layer4"
			inkscape:label="Text line"
			style="display:inline"
			transform="translate(-53.789845,-188.52269)">
		<path
				inkscape:connector-curvature="0"
				style="display:inline;fill:#58a323;fill-opacity:1;stroke:#ffffff;stroke-width:3;stroke-miterlimit:4;stroke-dasharray:none;stroke-opacity:1"
				d="m 410.58588,373.62892 c 9.14591,-1.11131 15.82068,-3.97131 20.67248,-8.85798 5.42691,-5.46561 8.84676,-13.28708 11.52839,-26.36216 1.55115,-7.56168 1.66909,-11.72376 0.46466,-16.37489 -1.88963,-7.29146 -4.97962,-11.67756 -17.82085,-25.29492 -7.28107,-7.72059 -8.45695,-9.42485 -9.04429,-13.09796 -0.45614,-2.85063 0.70243,-8.59685 2.08793,-10.35856 1.09152,-1.38796 4.28981,-2.28013 6.10376,-1.70457 0.91931,0.29213 1.09187,0.85544 1.08127,3.52603 -0.006,2.80408 -0.24569,4.38471 -1.3979,9.46215 -0.18168,0.7982 0.12486,1.6572 0.84315,2.37633 1.05996,1.06085 1.84228,1.12791 13.15217,1.12791 11.14601,0 12.10465,-0.0746 13.1074,-1.08314 2.23153,-2.23153 4.1365,-12.57128 3.86856,-21.00283 -0.17942,-5.65545 -0.35397,-6.50255 -2.03716,-9.92361 -1.08769,-2.2075 -2.77304,-4.53662 -4.11415,-5.68525 -6.76757,-5.7924 -21.2216,-7.45178 -34.83366,-3.99947 -8.70152,2.20795 -14.17933,5.68797 -18.51451,11.76308 -5.88376,8.24666 -10.54323,25.67807 -9.17456,34.33199 0.97734,6.18599 6.06862,13.62394 17.65976,25.80209 3.66069,3.84554 7.25557,7.84051 7.98978,8.87942 1.76599,2.49774 2.27663,5.61979 1.65096,10.09859 -1.06291,7.60891 -2.42938,9.54725 -6.72992,9.54725 -2.12298,0 -2.7971,-0.23608 -3.28733,-1.14969 -0.67439,-1.26145 -0.33601,-5.42263 0.87705,-10.77614 0.68421,-3.0236 0.66081,-3.33311 -0.34104,-4.33484 -0.99917,-0.99918 -1.97602,-1.07867 -13.29613,-1.07867 -11.18461,0 -12.29852,0.0914 -13.15703,1.03673 -0.51492,0.56917 -1.60317,3.90452 -2.41719,7.41103 -1.90607,8.21094 -2.10978,17.0409 -0.50457,21.93373 1.22657,3.74159 4.80188,8.07465 8.36635,10.13974 5.96399,3.45659 16.82052,4.91201 27.21662,3.64861 z"
				id="path4267"
				inkscape:export-xdpi="25.637558"
				inkscape:export-ydpi="25.637558"/>
		<path
				inkscape:connector-curvature="0"
				id="path4259"
				style="display:inline;fill:#0d6dab;fill-opacity:1;stroke:#ffffff;stroke-width:3;stroke-miterlimit:4;stroke-dasharray:none;stroke-opacity:1"
				d="m 473.0513,373.39966 c 4.48769,-0.94326 8.07597,-2.42934 10.75823,-4.45339 2.5025,-1.88754 3.55821,-1.83503 4.33363,0.21947 0.87901,2.33104 2.59208,2.80202 10.19333,2.80202 6.94588,0 9.78701,-0.58421 10.39059,-2.13708 0.3169,-0.81691 8.13433,-38.8714 13.2196,-64.35652 1.93038,-9.67071 1.80576,-10.84845 -1.2129,-11.45188 -3.05953,-0.6125 -28.74585,-0.41162 -30.61127,0.23928 -0.94448,0.32897 -1.87594,1.01151 -2.0686,1.51608 -0.19414,0.50449 -1.33955,5.67813 -2.54421,11.4958 -2.60454,12.56773 -2.47563,13.23713 2.5728,13.23713 1.05093,0 1.91051,0.0688 1.91051,0.16243 0,0.89479 -4.51053,21.73911 -4.9453,22.85552 -1.031,2.64387 -2.82202,3.8288 -5.78703,3.8288 l -2.69107,0 0,-3.42822 c 0,-3.06219 10.77339,-58.51654 13.09719,-67.41561 1.13276,-4.3357 2.62066,-5.7822 5.94953,-5.7822 3.79279,0 4.23964,0.75438 3.4105,5.76526 -0.36495,2.21241 -0.80783,4.67439 -0.98138,5.4721 -0.20748,0.94788 0.002,1.7713 0.60978,2.3776 0.80863,0.80862 2.55406,0.92655 13.73666,0.92655 l 12.81011,0 0.77915,-1.53742 c 0.42823,-0.84597 1.34393,-4.55542 2.03374,-8.2437 3.35396,-17.91869 -0.96775,-26.14707 -15.64856,-29.79578 -5.02426,-1.24843 -19.91697,-1.19366 -25.7288,0.0956 -12.45661,2.76353 -20.01799,9.93007 -24.24502,22.98227 -0.76953,2.3762 -6.24792,28.54621 -14.63661,69.91392 -3.40506,16.78794 -3.18141,22.42128 1.12489,28.33557 4.14276,5.68876 14.47873,8.41558 24.17051,6.37633 z"
				inkscape:export-xdpi="25.637558"
				inkscape:export-ydpi="25.637558"/>
		<path
				id="path4207"
				style="display:inline;fill:#58a323;fill-opacity:1;stroke:#ffffff;stroke-width:3;stroke-miterlimit:4;stroke-dasharray:none;stroke-opacity:1"
				d="m 323.65639,370.75125 c 0.93559,-0.93714 2.39042,-7.40104 8.39195,-37.30183 l 2.73558,-13.6278 3.76702,0.26863 c 2.07186,0.15119 4.14761,0.58623 4.61361,0.97281 1.43922,1.19402 1.00248,4.692 -3.10001,24.85784 -4.3072,21.17395 -4.32928,21.5827 -1.30579,24.42641 1.39461,1.31112 1.67985,1.34435 12.90996,1.52252 12.40692,0.19565 14.47345,-0.1383 15.05634,-2.4602 0.19165,-0.76352 -0.0368,-1.82004 -0.56725,-2.57018 -0.48958,-0.69999 -0.89135,-1.94371 -0.89135,-2.76187 0,-0.81946 1.7849,-10.265 3.9676,-20.98968 3.34262,-16.432 3.92769,-20.1324 3.72223,-23.51284 -0.27474,-4.50124 -2.31682,-9.46237 -4.64795,-11.29675 -1.33353,-1.04827 -1.8728,-2.86953 -0.8493,-2.86953 0.28194,0 1.92274,-1.28772 3.64588,-2.86289 4.80525,-4.39249 6.44238,-8.37523 9.27998,-22.58572 2.56696,-12.858 2.66916,-16.01568 0.66464,-20.54746 -1.59655,-3.61025 -4.86595,-6.97613 -8.61293,-8.86791 -5.97673,-3.01707 -8.39201,-3.28788 -29.43936,-3.29629 -11.37871,-0.003 -19.60829,0.2126 -20.20958,0.53498 -0.55874,0.29951 -1.18982,0.99175 -1.40092,1.53836 -0.2111,0.54641 -2.36481,10.68439 -4.78453,22.52769 -2.41973,11.8433 -5.30622,25.93887 -6.41607,31.32176 -1.10837,5.38402 -4.00641,19.60462 -6.43892,31.6019 -2.43252,11.99694 -4.95702,24.39446 -5.60885,27.54896 -2.04031,9.86781 -2.25013,9.71787 13.27543,9.51464 9.70112,-0.1276 11.43909,-0.28232 12.24259,-1.08555 z"
				inkscape:connector-curvature="0"
				inkscape:export-xdpi="25.637558"
				inkscape:export-ydpi="25.637558"/>
		<path
				style="display:inline;fill:#ffffff;fill-opacity:1;stroke:#ffffff;stroke-width:3;stroke-miterlimit:4;stroke-dasharray:none;stroke-opacity:1"
				d="m 346.98236,295.07443 c 2.97864,-1.41363 4.12113,-3.7503 5.8189,-11.903 1.7369,-8.34414 1.52001,-9.69134 -1.78109,-11.0707 -2.01414,-0.84194 -8.12704,-1.13011 -8.12704,-0.38367 0,0.41905 -4.16538,20.95102 -4.7794,23.56307 -0.31232,1.32482 -0.28105,1.33457 3.25368,1.05149 1.96314,-0.15819 4.49053,-0.72339 5.61495,-1.25719 z"
				id="path4199"
				inkscape:connector-curvature="0"
				inkscape:export-xdpi="25.637558"
				inkscape:export-ydpi="25.637558"/>
		<path
				style="display:inline;fill:#0d6dab;fill-opacity:1;stroke:#ffffff;stroke-width:3;stroke-miterlimit:4;stroke-dasharray:none;stroke-opacity:1"
				d="m 616.62052,370.84878 c 0.47486,-0.48569 2.13278,-7.31033 3.94263,-16.2199 1.71938,-8.4596 4.26014,-20.91843 5.64628,-27.68612 8.36729,-40.83672 15.35842,-75.95744 15.35842,-77.15614 0,-0.80031 -0.45747,-1.6337 -1.082,-1.96796 -0.64861,-0.34766 -5.87123,-0.57849 -13.0567,-0.57849 -11.1948,0 -12.04058,0.068 -12.97004,1.09877 -0.65101,0.71971 -1.7362,4.73249 -3.13809,11.60626 -1.17844,5.77829 -3.79554,18.56014 -5.81546,28.40446 -2.01843,9.84424 -5.91868,28.97248 -8.66491,42.50768 -2.74771,13.53616 -5.63714,27.73016 -6.42227,31.54368 -2.024,9.83218 -2.38408,9.58684 13.79688,9.41182 9.44328,-0.0991 11.73806,-0.28057 12.40526,-0.96406 z"
				id="path4191"
				inkscape:connector-curvature="0"
				inkscape:export-xdpi="25.637558"
				inkscape:export-ydpi="25.637558"/>
		<path
				style="display:inline;fill:#0d6dab;fill-opacity:1;stroke:#ffffff;stroke-width:3;stroke-miterlimit:4;stroke-dasharray:none;stroke-opacity:1"
				d="m 655.30318,370.77852 c 1.14864,-1.14946 -0.0948,4.67964 16.43105,-77.11504 4.63103,-22.91854 8.55093,-42.23173 8.71106,-42.919 0.18821,-0.80597 -0.1031,-1.65188 -0.83424,-2.37727 -1.05917,-1.05919 -1.84409,-1.12708 -12.91087,-1.12708 -6.56046,0 -12.2326,0.24033 -12.79804,0.54334 -0.55873,0.2995 -1.19044,0.99174 -1.4023,1.53836 -0.36721,0.94391 -7.40191,35.00141 -19.09235,92.44265 -2.91134,14.30438 -5.22448,26.6318 -5.13867,27.39293 0.28453,2.54034 1.91464,2.84043 14.53969,2.67825 9.81929,-0.12593 11.72528,-0.28628 12.49467,-1.05714 z"
				id="path4183"
				inkscape:connector-curvature="0"
				inkscape:export-xdpi="25.637558"
				inkscape:export-ydpi="25.637558"/>
		<path
				style="display:inline;fill:#0d6dab;fill-opacity:1;stroke:#ffffff;stroke-width:3;stroke-miterlimit:4;stroke-dasharray:none;stroke-opacity:1"
				d="m 708.63767,372.79463 c 7.71021,-1.84093 13.80439,-5.94369 17.87004,-12.03058 2.63743,-3.95104 4.1732,-7.81163 5.99947,-15.08417 2.47634,-9.85669 2.90991,-9.50844 -11.82205,-9.50844 -13.21202,0 -12.46881,-0.33532 -13.62687,6.15204 -0.99916,5.60098 -2.10762,7.7284 -4.35088,8.34763 -1.04352,0.28858 -2.76756,0.38272 -3.83124,0.21016 -1.88959,-0.30659 -1.93425,-0.37473 -1.89868,-2.898 0.0256,-1.42076 0.6036,-5.22601 1.29646,-8.45627 l 1.26038,-5.8732 17.0813,-0.15009 c 15.39223,-0.13137 17.16758,-0.24347 17.95379,-1.11822 0.84511,-0.93857 5.41947,-21.75197 6.58096,-29.93926 1.09585,-7.73191 -1.08198,-14.44722 -6.17267,-19.02286 -5.07323,-4.56179 -12.26185,-6.35801 -23.20055,-5.79429 -8.18907,0.42135 -12.68979,1.45044 -18.18389,4.16242 -8.75536,4.31935 -13.2949,11.043 -16.20255,23.9972 -3.35936,14.9739 -9.53504,46.50611 -9.53504,48.69293 0,3.16352 1.83106,8.73395 3.65682,11.12772 3.05207,4.00101 9.76222,7.00355 17.97672,8.04144 5.05587,0.63869 14.6833,0.20732 19.14848,-0.85867 z"
				id="path4229"
				inkscape:connector-curvature="0"
				inkscape:export-xdpi="25.637558"
				inkscape:export-ydpi="25.637558"/>
		<path
				style="display:inline;fill:#0d6dab;fill-opacity:1;stroke:#ffffff;stroke-width:3;stroke-miterlimit:4;stroke-dasharray:none;stroke-opacity:1"
				d="m 787.93453,283.4156 c -3.40571,2.29827 -6.60721,2.94265 -6.43676,0.39627 0.23212,-3.43626 -0.33209,-3.57501 -14.44937,-3.57501 -12.29878,0 -12.46758,0.009 -13.12294,1.24189 -0.69816,1.30279 -1.97452,7.17672 -8.08775,37.23068 -2.04671,10.06341 -5.1816,25.464 -6.96613,34.222 -3.44438,16.9046 -3.46698,17.46726 -0.7504,18.50043 2.17091,0.82516 22.56643,0.66458 24.26023,-0.19122 1.59668,-0.80758 1.24244,0.59623 6.94464,-27.522 1.99742,-9.84334 4.02791,-19.02252 4.51315,-20.39639 1.56424,-4.42982 3.53376,-7.17848 6.31435,-8.81307 2.40258,-1.41145 3.17245,-1.55864 8.47112,-1.62181 4.77241,-0.0598 5.95352,-0.23975 6.51893,-1.01287 0.37994,-0.51998 5.38153,-19.67287 5.83652,-23.0052 -0.0455,-2.76038 4.06424,-8.43748 -0.70153,-10.69705 -2.48566,-0.66314 -10.57067,3.52105 -12.34406,5.24335 z"
				id="path4402"
				inkscape:connector-curvature="0"
				sodipodi:nodetypes="ccsccscccccccccc"
				inkscape:export-xdpi="25.637558"
				inkscape:export-ydpi="25.637558"/>
		<path
				style="display:inline;fill:#e52626;fill-opacity:1;stroke:#ffffff;stroke-width:3;stroke-miterlimit:4;stroke-dasharray:none;stroke-opacity:1"
				d="m 869.01732,291.52161 c 0.83987,0.92841 1.9985,1.02239 12.54498,1.02239 12.65142,0 13.0056,-0.0895 13.70511,-3.25472 1.06934,-4.84477 2.59792,-9.84691 3.36743,-11.02163 0.95673,-1.45889 3.82429,-2.29471 5.76423,-1.67915 0.9703,0.30742 1.16627,0.82418 1.16627,3.0588 0,6.84615 -4.17275,12.97022 -24.03157,35.26982 -18.94534,21.27281 -23.46288,27.09279 -24.90241,32.07908 -0.45674,1.58303 -1.73021,7.25963 -2.83046,12.61586 l -1.99854,9.73864 1.16823,1.16847 c 1.14928,1.14952 1.62435,1.17127 29.53784,1.33813 19.23458,0.11994 29.04131,-0.0284 30.45201,-0.43709 1.74134,-0.508 2.16841,-0.94481 2.62518,-2.68627 0.66382,-2.53045 3.9636,-18.9375 3.9636,-19.70745 0,-0.30305 -0.50384,-1.05384 -1.11948,-1.66941 -1.05935,-1.05936 -1.86431,-1.11823 -15.10188,-1.11823 -12.02913,0 -13.9824,-0.1207 -13.9824,-0.83563 0,-0.72199 3.03588,-4.43075 9.84754,-12.02869 11.35117,-12.66267 21.55719,-24.5169 23.83659,-27.68611 6.70952,-9.32766 10.55316,-20.68415 10.69689,-31.60178 0.0952,-7.20007 -0.40856,-9.45477 -3.11575,-13.95297 -2.13173,-3.54077 -5.71048,-6.30544 -10.33591,-7.98387 -4.57153,-1.65838 -15.36141,-2.02061 -22.25968,-0.74674 -7.45619,1.3775 -14.23369,4.81347 -18.50145,9.37996 -4.29731,4.5984 -7.79589,11.66459 -10.42411,23.90885 -0.99796,5.38629 -0.58215,6.26719 -0.0723,6.82974 z"
				id="path4283"
				inkscape:connector-curvature="0"
				inkscape:export-xdpi="25.637558"
				inkscape:export-ydpi="25.637558"/>
		<path
				style="display:inline;fill:#0d6dab;fill-opacity:1;stroke:#ffffff;stroke-width:3;stroke-miterlimit:4;stroke-dasharray:none;stroke-opacity:1"
				d="m 715.08714,310.8616 c 1.74523,-7.61083 1.76214,-9.08576 0.1282,-10.71967 -2.72345,-2.72311 -8.17024,-1.47902 -10.29559,2.35105 -1.00924,1.81995 -2.94623,9.47427 -2.94623,11.64538 0,0.61756 1.25767,0.77912 6.09277,0.77912 l 6.09129,0 0.92919,-4.05588 z"
				id="path4221"
				inkscape:connector-curvature="0"
				inkscape:export-xdpi="25.637558"
				inkscape:export-ydpi="25.637558"/>
		<path
				style="display:inline;fill:#ffffff;fill-opacity:1;stroke:#ffffff;stroke-width:3;stroke-miterlimit:4;stroke-dasharray:none;stroke-opacity:1"
				d="m 715.08714,310.8616 c 1.74523,-7.61083 1.76214,-9.08576 0.1282,-10.71967 -2.72345,-2.72311 -8.17024,-1.47902 -10.29559,2.35105 -1.00924,1.81995 -2.94623,9.47427 -2.94623,11.64538 0,0.61756 1.25767,0.77912 6.09277,0.77912 l 6.09129,0 0.92919,-4.05588 z"
				id="path4221-4"
				inkscape:connector-curvature="0"
				inkscape:export-xdpi="25.637558"
				inkscape:export-ydpi="25.637558"/>
		<path
				style="display:inline;fill:#0d6dab;fill-opacity:1;stroke:#ffffff;stroke-width:3;stroke-miterlimit:4;stroke-dasharray:none;stroke-opacity:1"
				d="m 529.55319,371.25454 c -3.09332,-1.00556 -5.96898,-3.55943 -7.31073,-6.49377 -0.99593,-2.17688 -1.17983,-3.63246 -1.16777,-9.29284 0.0286,-12.74266 3.79147,-24.91391 9.64119,-31.16859 3.56795,-3.81388 5.92693,-5.05714 16.13821,-8.50703 10.59929,-3.58149 12.57412,-4.40562 15.69717,-6.5557 3.93566,-2.70732 5.30167,-7.06919 2.94967,-9.4208 -3.55976,-3.56001 -9.41706,1.25014 -10.41745,8.55582 l -0.36059,2.6301 -11.1111,0 -11.10962,0 0,-1.30881 c 0,-2.71027 2.31121,-10.32074 4.46603,-14.70651 2.58213,-5.25435 7.03627,-9.81902 11.86637,-12.15899 11.59626,-5.61674 31.43928,-4.52946 37.82951,2.07459 3.10271,3.20666 4.19258,6.62406 4.13485,12.95635 -0.0383,4.77621 -0.88072,9.63536 -5.7299,33.27921 -4.67412,22.79191 -5.69481,28.65008 -5.76913,33.13888 l -0.0933,5.45407 -11.88752,0 -11.88752,0 0,-2.84033 0,-2.84057 -2.37646,2.03543 c -1.30771,1.11854 -4.00361,2.83538 -5.99104,3.81413 -3.28176,1.61579 -4.15589,1.79134 -9.50892,1.91029 -3.50349,0.0715 -6.74925,-0.14962 -8.0034,-0.55493 z"
				id="path4247-3"
				inkscape:connector-curvature="0"
				inkscape:export-xdpi="25.637558"
				inkscape:export-ydpi="25.637558"/>
		<path
				style="display:inline;fill:#ffffff;fill-opacity:1;stroke:#ffffff;stroke-width:3;stroke-miterlimit:4;stroke-dasharray:none;stroke-opacity:1"
				d="m 553.72119,351.91229 c 2.81911,-2.04291 3.55958,-3.83448 5.63147,-13.62993 1.12395,-5.31358 1.97623,-9.75075 1.89494,-9.86053 -0.37519,-0.49258 -8.4076,4.33161 -10.37463,6.2311 -2.56616,2.47718 -3.013,3.50719 -4.35279,10.02555 -1.11198,5.41772 -0.82099,6.85074 1.65322,8.12695 1.61118,0.83045 3.61381,0.50793 5.54779,-0.89314 z"
				id="path4241"
				inkscape:connector-curvature="0"
				inkscape:export-xdpi="25.637558"
				inkscape:export-ydpi="25.637558"/>
		<path
				style="display:inline;fill:#0d6dab;fill-opacity:1;stroke:#ffffff;stroke-width:3;stroke-miterlimit:4;stroke-dasharray:none;stroke-opacity:1"
				d="m 802.70271,353.22706 c 0.26146,9.85989 0.97731,18.44207 0.81164,19.10771 -0.28123,1.13134 -0.69006,1.22025 -6.4359,1.39824 -4.52398,0.13582 -6.34965,0.40918 -6.95211,1.02813 -0.68786,0.70864 -5.37309,21.41357 -5.37309,23.75091 0,0.42827 0.39565,1.17422 0.87842,1.6576 1.37248,1.37229 19.84748,1.26543 24.93073,-0.14772 l 0,0.006 c 5.3854,-1.49362 8.5487,-3.57339 11.4788,-7.54893 3.44101,-4.66768 5.56717,-9.01914 11.79891,-24.14714 5.97558,-14.50473 10.72455,-26.00326 13.97407,-33.83918 1.21096,-2.92191 5.94751,-14.43683 10.52301,-25.58868 3.72476,-9.07474 11.71375,-28.02556 11.71375,-28.02556 0,0 -26.12043,-0.81969 -27.26434,0.0575 l 0,4e-5 c -0.72997,0.55989 -12.05977,33.69428 -15.01494,43.90592 -0.41235,1.4269 -1.0214,2.3776 -1.5209,2.3776 -0.7136,0 -0.78387,-0.96105 -0.48133,-6.57232 0.19459,-3.61411 0.52325,-13.7985 0.73051,-22.62984 0.29676,-12.65404 0.0475,-16.41805 -0.51504,-17.09676 -0.60204,-0.72335 -19.56994,-0.31861 -21.82217,-0.24178 -2.01265,0.0687 -2.95814,1.00679 -3.11609,3.30467 l 0.24267,15.94419 z"
				id="path4422"
				inkscape:connector-curvature="0"
				sodipodi:nodetypes="scccscccccccccccscccsccs"
				inkscape:export-xdpi="25.637558"
				inkscape:export-ydpi="25.637558"/>
	</g>
	<g
			inkscape:groupmode="layer"
			id="layer8"
			inkscape:label="Text outline around"
			style="display:inline"
			transform="translate(-53.789845,-188.52269)">
		<path
				inkscape:connector-curvature="0"
				style="display:inline;fill:none;stroke:#666666;stroke-width:1;stroke-miterlimit:4;stroke-dasharray:none;stroke-opacity:1"
				d="m 410.93856,374.95121 c 7.72558,-0.91209 15.62039,-3.51984 21.25928,-9.14507 3.02423,-3.05473 5.30556,-6.74445 6.99962,-10.63042 2.27664,-5.21755 3.67374,-10.7337 4.79757,-16.23268 1.13615,-5.44569 1.87114,-11.23079 0.45309,-16.82473 l 0,-1e-5 c -0.98946,-3.8057 -2.69751,-7.39607 -4.95363,-10.59929 -3.8829,-5.50311 -8.5624,-10.31526 -13.10586,-15.1282 -2.46134,-2.61664 -4.98376,-5.1088 -6.93615,-7.94807 l -10e-6,-1e-5 c -0.95365,-1.37359 -1.58602,-2.96484 -1.84719,-4.62038 l 0,-2e-5 c -0.27916,-1.64624 -0.002,-3.42643 0.34609,-5.23137 l 10e-6,-2e-5 c 0.37251,-1.66672 0.65251,-3.2881 1.54024,-4.34984 0.41982,-0.60698 1.3148,-0.93747 2.26349,-1.24346 0.99291,-0.24785 1.97418,-0.40483 2.75096,-0.126 0.12474,0.0255 0.25279,0.1276 0.23573,0.21097 0.21339,0.60661 0.13336,1.4219 0.14797,2.35835 l 10e-6,3e-5 c 0.003,3.05525 -0.67208,6.13048 -1.37287,9.24271 -0.22756,1.32096 0.27922,2.52952 1.11065,3.30456 l 10e-6,10e-6 c 1.05334,0.93254 2.30547,1.20524 3.35415,1.25105 3.54336,0.301 7.05516,0.17154 10.50411,0.16975 10e-6,0 2e-5,0 2e-5,0 3.42999,0.002 6.91886,0.12055 10.43821,-0.16624 l 10e-6,0 c 1.02377,-0.0289 2.29693,-0.26177 3.37607,-1.21063 l 2e-5,-10e-6 c 1.00042,-1.05507 1.47459,-2.31859 1.82037,-3.41691 0.59868,-1.7406 1.00261,-3.51856 1.32599,-5.2835 0.79102,-4.29011 1.15151,-8.66837 1.0129,-13.03803 l 0,-10e-6 c -0.0556,-1.91983 -0.0648,-3.93379 -0.47452,-5.96838 -0.33973,-1.59845 -1.00063,-3.03063 -1.66482,-4.36403 -1.05762,-2.18018 -2.42806,-4.33145 -4.36042,-6.00246 -4.32437,-3.65319 -9.97621,-5.10983 -15.38484,-5.69987 -6.80401,-0.77905 -13.72732,-0.18882 -20.34135,1.49106 -3.8807,0.97858 -7.73236,2.37193 -11.18378,4.5562 -3.11408,1.98281 -5.77142,4.61202 -7.8968,7.59414 l -1e-5,2e-5 c -3.70086,5.2085 -5.85546,11.2896 -7.45819,17.33398 -0.84126,3.14474 -1.49821,6.35303 -1.86631,9.6082 -0.30536,2.64721 -0.44782,5.38876 -0.0228,8.12303 0.67517,4.12215 2.74331,7.78075 5.01167,11.06146 l 1e-5,2e-5 c 3.79594,5.53929 8.33677,10.47118 12.90963,15.27104 l 2e-5,2e-5 c 1.71592,1.80271 3.4103,3.62362 5.07266,5.47105 l 10e-6,2e-5 c 1.00993,1.12777 2.03119,2.16607 2.824,3.29511 1.84327,2.49292 1.90087,6.03241 1.47698,9.38197 -0.41251,2.66697 -0.60312,5.3341 -1.97766,7.18833 -0.64691,1.08487 -2.22594,1.44952 -3.7612,1.49625 -0.77523,-0.0186 -1.44539,0.0185 -1.92559,-0.17614 0,0 -1e-5,0 -1e-5,0 -0.1793,-0.0371 -0.35736,-0.22475 -0.47985,-0.44549 -0.47679,-0.70965 -0.20028,-1.93657 -0.15412,-3.29997 l 0,-3e-5 c 0.18228,-2.2618 0.61429,-4.52155 1.12477,-6.78199 0.22325,-0.89693 0.55113,-1.96927 0.4834,-3.22442 -0.15031,-0.94202 -0.61401,-1.6156 -1.09249,-2.03789 -1.09251,-0.95318 -2.37745,-1.17693 -3.40368,-1.20362 -3.57189,-0.28742 -7.11398,-0.1695 -10.59819,-0.16792 -3.46306,-0.001 -6.98132,-0.11117 -10.52846,0.16695 -0.63103,0.0399 -1.35377,0.10998 -2.11561,0.36618 -0.47735,0.17228 -0.90581,0.45611 -1.25236,0.83184 -0.38687,0.47139 -0.56575,0.90134 -0.66206,1.19069 -0.24833,0.59552 -0.45432,1.19095 -0.64406,1.77456 -0.52638,1.61458 -0.96354,3.24996 -1.34406,4.89035 l 0,2e-5 c -0.94452,4.06631 -1.49787,8.2307 -1.59453,12.41301 l 0,2e-5 c -0.0884,3.3128 0.0471,6.76158 1.11385,10.05611 1.47692,4.49811 4.74011,8.34344 8.81433,10.69231 3.8033,2.18693 8.10635,3.16957 12.31343,3.71984 5.1473,0.68949 10.37715,0.68191 15.52215,0.0559"
				id="path4267-0-8"
				inkscape:path-effect="#path-effect4604"
				inkscape:original-d="m 410.81795,373.95851 c 9.14506,-1.11114 15.81898,-3.97097 20.67027,-8.85696 5.4264,-5.4651 8.84591,-13.28572 11.5272,-26.35944 1.55098,-7.56083 1.66892,-11.7224 0.46466,-16.37302 -1.88946,-7.29061 -4.97911,-11.67637 -17.81898,-25.2922 -7.28022,-7.71991 -8.4561,-9.42383 -9.04327,-13.0966 -0.45614,-2.85029 0.70226,-8.59583 2.08776,-10.35737 1.09135,-1.38779 4.2893,-2.27996 6.10308,-1.7044 0.91914,0.29196 1.0917,0.85544 1.0811,3.52552 -0.006,2.80391 -0.24569,4.38437 -1.39773,9.4613 -0.18168,0.79803 0.12486,1.65703 0.84298,2.37616 1.05996,1.06051 1.84211,1.12757 13.15081,1.12757 11.14482,0 12.10329,-0.0734 13.10604,-1.0828 2.23119,-2.23136 4.13599,-12.57009 3.86805,-21.00079 -0.17942,-5.65477 -0.3538,-6.5017 -2.03699,-9.92242 -1.08752,-2.20733 -2.7727,-4.53611 -4.11364,-5.68457 -6.76689,-5.79189 -21.21922,-7.4511 -34.82992,-3.99913 -8.7005,2.20778 -14.1778,5.68746 -18.51247,11.76189 -5.88309,8.24564 -10.54205,25.67518 -9.17355,34.32825 0.97717,6.18531 6.06794,13.62241 17.6579,25.7992 3.66018,3.8452 7.25472,7.83966 7.98893,8.8784 1.76582,2.49757 2.27629,5.61928 1.65079,10.09757 -1.06291,7.60806 -2.42921,9.54623 -6.72924,9.54623 -2.12281,0 -2.79693,-0.23608 -3.28699,-1.14952 -0.67439,-1.26145 -0.33601,-5.42212 0.87688,-10.77495 0.68421,-3.02343 0.66081,-3.33277 -0.34087,-4.33433 -0.99917,-0.99918 -1.97585,-1.07867 -13.29478,-1.07867 -11.18342,0 -12.29716,0.0914 -13.1555,1.03656 -0.51492,0.56917 -1.603,3.90418 -2.41702,7.41018 -1.9059,8.21009 -2.10961,17.0392 -0.50457,21.93135 1.22657,3.74125 4.80154,8.07397 8.3655,10.13872 5.96331,3.45625 16.81866,4.9115 27.21357,3.64827 z"
				inkscape:export-xdpi="25.637558"
				inkscape:export-ydpi="25.637558"/>
		<path
				inkscape:connector-curvature="0"
				id="path4259-9-89"
				style="display:inline;fill:none;stroke:#666666;stroke-width:1;stroke-miterlimit:4;stroke-dasharray:none;stroke-opacity:1"
				d="m 473.48246,374.70786 c 3.91098,-0.80828 7.8499,-2.16035 11.1536,-4.63321 0.93753,-0.60031 1.62788,-1.31662 2.1614,-1.16795 0.10614,-0.22556 0.27891,0.38038 0.63382,0.94215 0.58398,1.44028 1.80245,2.47792 3.24611,2.88607 l 2e-5,0 c 2.67552,0.71438 5.3698,0.57695 7.8818,0.5626 0,0 10e-6,0 10e-6,0 2.52679,0.007 5.15233,0.0239 7.77418,-0.50667 1.19104,-0.11822 2.73125,-0.69062 3.54738,-2.26806 0.0592,-0.16658 0.0847,-0.26911 0.0892,-0.30309 0.0355,-0.14189 0.0675,-0.27938 0.098,-0.41196 0,0 0,-2e-5 0,-2e-5 0.10713,-0.46557 0.20827,-0.92891 0.30825,-1.38889 0,0 0,-2e-5 0,-2e-5 0.35285,-1.62319 0.69455,-3.24668 1.03507,-4.86831 l 0,-3e-5 c 1.12749,-5.36925 2.23455,-10.74169 3.33807,-16.11377 2.83523,-13.80223 5.64076,-27.61104 8.39818,-41.42993 0.6084,-2.93863 1.58387,-6.08473 1.26299,-9.42607 -0.041,-0.75317 -0.35208,-1.60407 -1.07316,-2.29697 -0.74783,-0.58038 -1.53931,-0.80683 -2.18702,-0.90376 l -2e-5,0 c -0.8107,-0.15664 -1.57259,-0.17899 -2.26138,-0.21035 -1.24765,-0.0647 -2.49007,-0.0969 -3.72575,-0.12143 -3.3261,-0.0662 -6.6495,-0.0678 -9.96868,-0.0417 l -3e-5,0 c -3.24472,0.0253 -6.49428,0.0754 -9.74625,0.19595 l -2e-5,0 c -1.1423,0.0422 -2.29372,0.0912 -3.45175,0.17795 0,0 -2e-5,1e-5 -2e-5,1e-5 -0.37567,0.0279 -0.76261,0.0606 -1.15906,0.11079 0,0 -2e-5,0 -2e-5,0 -0.19084,0.016 -0.46986,0.053 -0.82046,0.16442 -0.92045,0.2039 -2.05467,0.81262 -2.67296,2.10219 -0.18987,0.5113 -0.27093,0.96267 -0.34925,1.31784 -0.20438,0.86138 -0.39674,1.7218 -0.58644,2.57903 -0.5714,2.58167 -1.11824,5.16698 -1.65366,7.75287 -0.50704,2.44388 -1.03725,4.90903 -1.41628,7.42359 -0.2142,1.29471 -0.44418,2.75359 -0.16947,4.30017 l 1e-5,2e-5 c 0.18636,0.99742 0.84839,1.89375 1.88423,2.34844 1.18054,0.41353 2.30871,0.38932 3.25318,0.36623 0.43731,6.2e-4 0.86013,0.008 1.26606,0.0426 0,0 1e-5,0 1e-5,0 0.13188,0.0128 0.23126,0.02 0.29533,0.0351 0.23469,0.45273 0.0618,0.12203 -0.65106,-0.91527 0.009,-0.0172 -0.0163,0.0589 -0.0376,0.22996 0,0 0,2e-5 0,2e-5 -0.0415,0.25373 -0.0898,0.51264 -0.13971,0.77754 -0.16208,0.85865 -0.3369,1.719 -0.51386,2.58302 -0.51526,2.51536 -1.05181,5.02821 -1.5956,7.54135 -0.54787,2.53193 -1.10253,5.06065 -1.67704,7.58313 l 0,1e-5 c -0.20121,0.88333 -0.40312,1.76278 -0.61541,2.63598 0,0 -10e-6,1e-5 -10e-6,1e-5 -0.0674,0.27697 -0.13424,0.54881 -0.20487,0.81435 0,0 0,2e-5 0,2e-5 -0.0462,0.16292 -0.0689,0.27396 -0.0925,0.32446 -0.41318,1.00792 -0.98395,1.93445 -1.78804,2.43469 -0.80473,0.56559 -1.92287,0.73625 -3.06656,0.75689 0,0 -1e-5,0 -1e-5,0 l -2.19073,0.5 0,-10e-6 0.5,-2.92787 c -0.005,-0.27363 0.0596,-0.61514 0.11218,-1.02729 0.10139,-0.73617 0.22007,-1.47611 0.34208,-2.2217 0.38998,-2.38188 0.81686,-4.76203 1.24915,-7.14552 1.26679,-6.98413 2.60028,-13.95823 3.95476,-20.93033 l 1e-5,-3e-5 c 1.42799,-7.35034 2.88229,-14.69437 4.39056,-22.02609 l 10e-6,-2e-5 c 0.58518,-2.84454 1.17718,-5.68554 1.79422,-8.51896 0.38845,-1.78243 0.76704,-3.55151 1.22023,-5.28565 0.45638,-1.5976 0.88082,-3.15093 1.88045,-4.05216 0.66894,-0.73096 1.88085,-0.94647 3.10086,-0.98224 0.75205,0.01 1.43207,0.001 1.99319,0.16279 0.29774,0.10786 0.5586,0.21297 0.58434,0.34989 0.17664,0.20866 0.15921,0.66382 0.1831,1.21766 -0.0145,0.91702 -0.17488,1.87282 -0.33709,2.87139 -0.30319,1.83383 -0.58567,3.64983 -0.97159,5.42136 l 0,3e-5 c -0.2615,1.1238 0.0154,2.36738 0.87989,3.29797 0.4401,0.40699 0.91795,0.63833 1.35555,0.74238 0.80046,0.21324 1.56622,0.27339 2.26168,0.31437 0,0 3e-5,0 3e-5,0 3.63856,0.24398 7.2532,0.16333 10.82476,0.16231 l 13.25458,-0.27397 1.22525,-1.81161 1e-5,-3e-5 c 0.55769,-1.13624 0.76691,-2.27951 0.99746,-3.26788 l 0,-3e-5 c 0.42901,-1.73896 0.79898,-3.48874 1.12694,-5.24263 l 0,-3e-5 c 0.7333,-3.89435 1.24153,-7.89591 1.05004,-11.93323 -0.1386,-3.0508 -0.7534,-6.16524 -2.20887,-8.96267 -1.35526,-2.56558 -3.41481,-4.69425 -5.81847,-6.24546 -2.90149,-1.86713 -6.15847,-3.00511 -9.41132,-3.80559 -1.84719,-0.45392 -3.70195,-0.60168 -5.49473,-0.7202 -2.44169,-0.16706 -4.88362,-0.22235 -7.31792,-0.21308 l -3e-5,0 c -2.48479,0.009 -4.97469,0.0866 -7.46241,0.26767 l -3e-5,0 c -1.94481,0.13908 -3.93141,0.31976 -5.90871,0.75542 -5.74558,1.26432 -11.33414,3.78474 -15.67829,7.88247 -4.50826,4.29652 -7.42857,9.94809 -9.29879,15.76524 -0.23134,0.72123 -0.37759,1.41999 -0.52806,2.06946 l 0,3e-5 c -0.32289,1.37841 -0.62763,2.75726 -0.92924,4.13301 l -10e-6,3e-5 c -1.03944,4.74094 -2.0374,9.48823 -3.03085,14.23371 l -10e-6,2e-5 c -3.45731,16.51459 -6.82304,33.04659 -10.17561,49.57953 -1.22804,6.00677 -2.586,12.17013 -2.34824,18.48192 0.15363,3.80319 1.40026,7.54199 3.64463,10.63801 2.56923,3.46227 6.56991,5.44427 10.55665,6.46377 4.7344,1.09267 9.74953,0.98929 14.52229,-0.18749 l -0.1033,-0.48922"
				inkscape:path-effect="#path-effect4611"
				inkscape:original-d="m 473.27674,373.72925 c 4.48718,-0.94326 8.07512,-2.429 10.75704,-4.45288 2.50216,-1.88737 3.5577,-1.83486 4.33312,0.21947 0.87901,2.3307 2.59174,2.80168 10.19231,2.80168 6.94503,0 9.78582,-0.58421 10.3894,-2.13674 0.3169,-0.81691 8.13348,-38.86732 13.21824,-64.34972 1.93004,-9.66952 1.80542,-10.84709 -1.21273,-11.45052 -3.05936,-0.6125 -28.74279,-0.41162 -30.60804,0.23928 -0.94448,0.32897 -1.87577,1.01134 -2.06843,1.51591 -0.19414,0.50432 -1.33938,5.67745 -2.54387,11.49461 -2.60437,12.56637 -2.47529,13.2356 2.57246,13.2356 1.05093,0 1.91034,0.0688 1.91034,0.16243 0,0.89462 -4.51002,21.73673 -4.94479,22.85297 -1.03083,2.64353 -2.82168,3.82846 -5.78635,3.82846 l -2.69073,0 0,-3.42788 c 0,-3.06185 10.7722,-58.51025 13.09566,-67.4083 1.13259,-4.33519 2.62049,-5.78169 5.94885,-5.78169 3.79245,0 4.2393,0.75438 3.41016,5.76475 -0.36495,2.21224 -0.80766,4.67388 -0.98121,5.47159 -0.20748,0.94771 0.002,1.77096 0.60961,2.37726 0.80863,0.80862 2.55389,0.92655 13.7353,0.92655 l 12.80858,0 0.77915,-1.53742 c 0.42823,-0.84597 1.34376,-4.55491 2.03357,-8.24268 3.35345,-17.91682 -0.96775,-26.14435 -15.64686,-29.79255 -5.02375,-1.24843 -19.91493,-1.19349 -25.72608,0.0956 -12.45525,2.76319 -20.01578,9.92888 -24.2423,22.97955 -0.76953,2.37603 -6.24741,28.54332 -14.63508,69.90644 -3.40472,16.78624 -3.18107,22.4189 1.12472,28.33251 4.14242,5.68808 14.4772,8.41473 24.16796,6.37565 z"
				inkscape:export-xdpi="25.637558"
				inkscape:export-ydpi="25.637558"/>
		<path
				id="path4207-0-7"
				style="display:inline;fill:none;stroke:#666666;stroke-width:1;stroke-miterlimit:4;stroke-dasharray:none;stroke-opacity:1"
				d="m 325.31323,372.49418 c 1.01183,-1.22989 1.30734,-2.30162 1.3622,-2.8568 0.59747,-1.99721 1.04009,-3.98884 1.46978,-5.90594 2.22395,-9.88627 4.20865,-20.10676 6.10475,-29.55441 0.5673,-4.32162 1.11635,-8.50415 1.68365,-12.82577 0,0 5e-5,2e-5 5e-5,2e-5 0.90441,0.35638 1.80882,0.71277 2.71323,1.06915 0,0 6e-5,10e-6 6e-5,10e-6 0.90514,0.0673 1.78895,0.1801 2.64065,0.36042 0,0 6e-5,10e-6 6e-5,10e-6 0.7195,0.25786 1.08281,0.1843 0.83946,0.15683 -0.0785,-0.23423 -0.13459,-0.0715 -0.009,0.25082 0.13348,0.91531 -0.0327,2.02303 -0.17044,3.2762 -0.80156,6.45751 -2.31834,13.06263 -3.60296,19.39014 -1.32441,6.45335 -3.06025,12.63168 -3.43894,19.37682 0,0 0,6e-5 0,6e-5 -0.11678,1.20456 -0.0457,2.68433 0.60085,4.24678 0.63809,1.23956 1.44777,2.07315 2.12209,2.65574 0.33254,0.33952 0.82895,0.7426 1.53425,1.11354 0.9129,0.39982 1.72669,0.55154 2.36807,0.60165 3.56307,0.41162 7.0916,0.30335 10.34472,0.34989 3.99866,0.0774 8.07337,0.3594 12.31457,-0.31166 0.86462,-0.0833 1.97368,-0.38326 3.12379,-1.16077 0.88232,-0.74048 1.40089,-1.62796 1.58775,-2.50031 0.34643,-1.59565 -0.0245,-3.09967 -0.87095,-4.20735 -0.31706,-0.48803 -0.525,-1.0855 -0.52732,-1.61106 -0.0139,0.0313 0.0254,-0.10254 0.0593,-0.40363 0.0663,-0.44758 0.14405,-0.90555 0.22459,-1.37346 0.26602,-1.54323 0.55559,-3.09162 0.8465,-4.63101 0,0 10e-6,-5e-5 10e-6,-5e-5 0.90508,-4.78868 1.85299,-9.54352 2.79671,-14.18054 1.16151,-5.70582 2.31615,-11.11419 3.2069,-16.73502 0.37871,-2.32472 0.69133,-4.75334 0.55128,-7.29567 -0.1568,-2.5375 -0.75637,-5.00328 -1.69935,-7.28716 -0.71602,-1.88851 -1.82593,-3.89651 -3.70793,-5.45861 -0.3195,-0.29111 -0.5863,-0.58481 -0.62698,-0.8234 0.059,-0.11116 -0.006,0.0538 -0.0803,0.54993 -0.449,0.68833 -0.8622,1.0031 -1.37822,0.97628 1.22864,-0.23422 1.73301,-0.47772 1.54725,-0.55618 0,0 5e-5,-3e-5 5e-5,-3e-5 0.36699,-0.24406 0.68684,-0.48709 0.97008,-0.71141 0.87196,-0.68545 1.69313,-1.40084 2.47746,-2.11872 2.55047,-2.33316 4.57262,-5.17609 5.87783,-8.3265 2.07291,-5.09027 3.05283,-10.471 4.01305,-15.34146 0.91712,-4.54084 1.91659,-8.98138 2.08403,-13.72156 0.0841,-2.78045 -0.45534,-5.52655 -1.55158,-8.02422 -1.95937,-4.39307 -5.48973,-7.81413 -9.53984,-9.84333 -1.39685,-0.70993 -2.8619,-1.38738 -4.44898,-1.90478 -1.78,-0.56772 -3.57012,-0.88467 -5.29703,-1.0736 -6.99694,-0.77526 -14.30619,-0.5348 -20.59096,-0.53236 -4.89779,-0.001 -9.54985,0.0237 -14.19816,0.14623 -1.44066,0.0377 -2.87328,0.0812 -4.3252,0.17281 -0.42256,0.026 -0.87252,0.0581 -1.34971,0.11469 0,0 -1e-5,-1e-5 -1e-5,-1e-5 -0.033,-0.064 -0.47634,0.0106 -1.27971,0.33848 0,0 -1.3e-4,6e-5 -1.3e-4,6e-5 -1.03256,0.51595 -1.86225,1.41398 -2.32153,2.58026 0,0 -2e-5,7e-5 -2e-5,7e-5 -0.16496,0.46416 -0.22824,0.76962 -0.24704,0.89715 -0.1186,0.49924 -0.22892,0.99245 -0.33597,1.47441 -0.37057,1.66775 -0.72677,3.33718 -1.07149,4.96033 -1.13104,5.32527 -2.21708,10.58908 -3.22319,15.51365 -2.46711,12.07482 -4.34184,21.26081 -6.41473,31.31513 -2.29581,11.15073 -4.76618,23.35145 -6.43948,31.60465 -2.52359,12.44545 -3.78311,18.71369 -5.60683,27.53848 -0.42867,2.01556 -0.89117,3.82812 -1.00881,5.9892 -0.0589,0.70277 0.002,1.54175 0.28588,2.46417 0.3006,0.8617 0.84731,1.58381 1.56702,2.11013 2.04903,1.27639 4.08926,1.36834 5.37399,1.33899 3.16747,0.16273 7.09488,0.0425 9.04083,0.0158 5.55657,-0.0687 6.86824,-0.0571 9.60741,-0.29707 0,0 0,0 0,0 1.49572,0.15575 2.87258,-0.60176 3.42043,-0.94984 0.61288,-0.38939 0.60127,-0.42417 0.60127,-0.42417"
				inkscape:connector-curvature="0"
				inkscape:path-effect="#path-effect4581"
				inkscape:original-d="m 323.89797,371.08101 c 0.93559,-0.93697 2.39008,-7.40002 8.3911,-37.29758 l 2.73524,-13.62644 3.76651,0.26863 c 2.07169,0.15119 4.14727,0.58623 4.61327,0.97281 1.43905,1.19385 1.00231,4.69132 -3.09967,24.85512 -4.30686,21.17157 -4.32894,21.58032 -1.30579,24.42369 1.39444,1.31095 1.67985,1.34418 12.9086,1.52235 12.40556,0.19565 14.47192,-0.13787 15.05464,-2.45986 0.19165,-0.76352 -0.0368,-1.81987 -0.56708,-2.57001 -0.48958,-0.69982 -0.89135,-1.94337 -0.89135,-2.76153 0,-0.81929 1.78473,-10.26381 3.96726,-20.98747 3.34228,-16.43013 3.92735,-20.13019 3.72172,-23.51029 -0.27457,-4.50073 -2.31648,-9.46135 -4.64744,-11.29539 -1.33319,-1.04827 -1.87246,-2.86919 -0.84913,-2.86919 0.28194,0 1.92257,-1.28772 3.64554,-2.86255 4.80474,-4.39215 6.4417,-8.37455 9.27896,-22.58334 2.56662,-12.85664 2.66882,-16.01398 0.66464,-20.54525 -1.59638,-3.60991 -4.86561,-6.97545 -8.61208,-8.86689 -5.97605,-3.0169 -8.39116,-3.28754 -29.4363,-3.29612 -11.37735,-0.003 -19.60608,0.21277 -20.20737,0.53498 -0.55857,0.29951 -1.18965,0.99158 -1.40075,1.53819 -0.2111,0.54641 -2.36447,10.68337 -4.78385,22.52531 -2.41956,11.84211 -5.30571,25.93598 -6.41539,31.31836 -1.10837,5.38334 -4.00607,19.60241 -6.43823,31.5985 -2.43235,11.99558 -4.95651,24.39174 -5.60834,27.5459 -2.03997,9.86679 -2.24979,9.71685 13.27406,9.51362 9.7001,-0.1276 11.4379,-0.28232 12.24123,-1.08555 z"
				inkscape:export-xdpi="25.637558"
				inkscape:export-ydpi="25.637558"/>
		<path
				style="display:inline;fill:none;stroke:#666666;stroke-width:1;stroke-miterlimit:4;stroke-dasharray:none;stroke-opacity:1"
				d="m 347.22139,295.41252 c 2.97847,-1.41346 4.12079,-3.74996 5.81822,-11.90164 1.7369,-8.34329 1.52001,-9.69032 -1.78075,-11.06951 -2.01397,-0.84194 -8.12619,-1.13011 -8.12619,-0.38367 0,0.41905 -4.16487,20.94864 -4.77889,23.56052 -0.31232,1.32465 -0.28105,1.3344 3.25334,1.05132 1.96297,-0.15819 4.49002,-0.72322 5.61427,-1.25702 z"
				id="path4199-2-0"
				inkscape:connector-curvature="0"
				inkscape:export-xdpi="25.637558"
				inkscape:export-ydpi="25.637558"/>
		<path
				style="display:inline;fill:none;stroke:#666666;stroke-width:1;stroke-miterlimit:4;stroke-dasharray:none;stroke-opacity:1"
				d="m 617.54535,371.8778 c 0.33267,-0.4141 0.45307,-0.71059 0.45234,-0.81765 0.1398,-0.37332 0.25147,-0.73708 0.35343,-1.08417 0.34642,-1.17297 0.63898,-2.34792 0.9215,-3.51164 0.91263,-3.7557 1.71344,-7.53065 2.47997,-11.30472 1.87549,-9.2286 3.75575,-18.45607 5.64527,-27.68147 l 0,-1e-5 c 3.64812,-17.80454 7.26847,-35.61568 10.81697,-53.44203 1.12045,-5.62869 2.23768,-11.26003 3.31939,-16.90018 l 0,-10e-6 c 0.30887,-1.61044 0.61717,-3.22449 0.9084,-4.84513 l 10e-6,-10e-6 c 0.0821,-0.45683 0.16436,-0.91909 0.23938,-1.38794 0.022,-0.13713 0.0444,-0.28113 0.0643,-0.43234 0.0103,-0.0517 0.0243,-0.16523 0.0288,-0.34086 0.0289,-1.1166 -0.53932,-2.22668 -1.60989,-2.84933 -0.35714,-0.16505 -0.61496,-0.22181 -0.74674,-0.22713 0,0 -10e-6,0 -10e-6,0 -0.32437,-0.0579 -0.63445,-0.094 -0.92731,-0.12315 -0.95496,-0.0967 -1.89986,-0.14585 -2.83041,-0.18667 l -2e-5,0 c -3.01426,-0.13324 -6.02347,-0.16002 -9.02296,-0.15983 -3.42093,-0.002 -6.90346,-0.12766 -10.41746,0.16637 -0.99868,0.024 -2.25509,0.27542 -3.29315,1.26194 -0.45902,0.5618 -0.65577,1.09882 -0.76418,1.47527 -0.29895,0.8153 -0.53161,1.63115 -0.74641,2.42892 l 0,2e-5 c -0.73312,2.71348 -1.31031,5.44949 -1.86489,8.17112 l 0,2e-5 c -1.93108,9.4679 -3.87231,18.93406 -5.81472,28.40029 l 0,2e-5 c -2.90446,14.16528 -5.78916,28.33436 -8.66431,42.50513 l -10e-6,2e-5 c -2.13448,10.51531 -4.25816,21.03124 -6.42102,31.53752 -0.38254,1.8323 -0.88512,3.74694 -0.99284,5.79595 l 0,2e-5 c -0.044,0.62691 -0.007,1.34203 0.23968,2.08481 0.23813,0.65554 0.6716,1.21343 1.24066,1.60465 1.64374,1.03378 3.47213,1.09167 4.97372,1.11176 3.13897,0.14932 6.25001,0.0492 9.32425,0.0152 3.15522,-0.0322 6.34818,-0.0168 9.55968,-0.26576 0.89091,0.0414 2.29654,0.0448 3.54923,-0.99963"
				id="path4191-5-2"
				inkscape:connector-curvature="0"
				inkscape:path-effect="#path-effect4630"
				inkscape:original-d="m 616.83032,371.17871 c 0.47486,-0.48569 2.13261,-7.30965 3.94229,-16.2182 1.71904,-8.45875 4.25963,-20.91622 5.6456,-27.68306 8.36644,-40.8323 15.35689,-75.94928 15.35689,-77.14781 0,-0.80031 -0.45764,-1.63353 -1.082,-1.96779 -0.64861,-0.34749 -5.87055,-0.57832 -13.05534,-0.57832 -11.19344,0 -12.03922,0.068 -12.96851,1.0986 -0.65101,0.71954 -1.73603,4.73198 -3.13775,11.6049 -1.17844,5.77778 -3.7952,18.55827 -5.81495,28.4014 -2.01826,9.84322 -5.918,28.96942 -8.66389,42.50309 -2.74737,13.53463 -5.63663,27.72727 -6.42159,31.54028 -2.02383,9.83116 -2.38374,9.58582 13.79535,9.4108 9.44226,-0.0991 11.73687,-0.2804 12.4039,-0.96389 z"
				inkscape:export-xdpi="25.637558"
				inkscape:export-ydpi="25.637558"/>
		<path
				style="display:inline;fill:none;stroke:#666666;stroke-width:1;stroke-miterlimit:4;stroke-dasharray:none;stroke-opacity:1"
				d="m 656.21626,371.8153 c -0.057,0.0369 0.0872,-0.0359 0.36466,-0.29545 0.38899,-0.46175 0.55188,-0.86803 0.60281,-1.12164 l 0,-2e-5 c 0.83317,-2.47059 1.24246,-4.98781 1.75199,-7.396 l 0,-10e-6 c 4.87826,-22.89738 9.34954,-45.87102 13.98255,-68.80239 2.00683,-9.93157 4.01595,-19.86255 6.03133,-29.79211 0.63253,-3.11642 1.26531,-6.23247 1.90113,-9.34761 0.18176,-0.89049 0.36352,-1.78046 0.54668,-2.66959 l 0,-1e-5 c 0.0782,-0.37818 0.14589,-0.73851 0.22475,-1.07605 l 10e-6,-1e-5 c 0.2357,-1.31787 -0.26392,-2.53223 -1.10238,-3.31248 -1.04099,-0.92284 -2.27881,-1.20051 -3.32108,-1.24833 -3.47395,-0.3002 -6.91585,-0.17195 -10.294,-0.17011 -2.89106,-1.3e-4 -5.78851,0.036 -8.68867,0.15892 -0.95034,0.04 -1.91257,0.0875 -2.88339,0.17576 -0.29804,0.0267 -0.61207,0.0589 -0.93967,0.11079 -0.10668,-0.006 -0.36918,0.0429 -0.75729,0.21628 -0.82427,0.42304 -1.50364,1.14387 -1.86214,2.05761 -0.0551,0.15246 -0.0814,0.25217 -0.0895,0.29526 -0.0359,0.13811 -0.0679,0.27138 -0.098,0.39922 0,0 -1e-5,2e-5 -1e-5,2e-5 -0.10622,0.44944 -0.20539,0.89616 -0.3031,1.33884 -0.35968,1.62909 -0.70521,3.25856 -1.04954,4.88554 l -10e-6,1e-5 c -1.28856,6.08836 -2.54826,12.18127 -3.80641,18.27293 l 0,2e-5 c -4.63883,22.46004 -9.21801,44.93154 -13.7915,67.40334 -1.27254,6.2524 -2.51842,12.51266 -3.69574,18.78821 l 0,10e-6 c -0.37674,2.00792 -0.7503,4.02154 -1.09121,6.04575 -0.10018,0.59431 -0.19984,1.19678 -0.28491,1.80935 -0.0253,0.18102 -0.0505,0.37261 -0.0701,0.57528 0,0 0,1e-5 0,1e-5 -0.0149,0.0598 -0.0274,0.22128 -0.01,0.48255 0.0402,0.66723 0.2956,1.4386 0.9097,2.11483 l 2e-5,10e-6 c 0.82859,0.73366 1.76917,1.00964 2.54468,1.10921 4.08372,0.73858 8.16835,0.40137 12.09017,0.3421 3.20119,-0.04 6.4462,-0.0157 9.71147,-0.29017 0.92682,0.0144 2.28164,-0.059 3.47687,-1.06021"
				id="path4183-5-6"
				inkscape:connector-curvature="0"
				inkscape:path-effect="#path-effect4632"
				inkscape:original-d="m 655.5089,371.10845 c 1.14847,-1.14929 -0.0948,4.67913 16.42918,-77.10671 4.63052,-22.91599 8.55008,-42.22714 8.71021,-42.91441 0.18804,-0.8058 -0.1032,-1.65154 -0.83424,-2.37693 -1.059,-1.05902 -1.84392,-1.12691 -12.90934,-1.12691 -6.55978,0 -12.23141,0.24033 -12.79668,0.54317 -0.55873,0.2995 -1.19044,0.99157 -1.4023,1.53819 -0.36721,0.94374 -7.40106,34.99767 -19.09031,92.43262 -2.911,14.30285 -5.2238,26.62891 -5.13799,27.39004 0.28453,2.54 1.9143,2.84009 14.53799,2.67791 9.81827,-0.12593 11.72409,-0.28628 12.49348,-1.05697 z"
				inkscape:export-xdpi="25.637558"
				inkscape:export-ydpi="25.637558"/>
		<path
				style="display:inline;fill:none;stroke:#666666;stroke-width:1;stroke-miterlimit:4;stroke-dasharray:none;stroke-opacity:1"
				d="m 709.06966,374.09688 c 7.55126,-1.79658 14.29657,-6.23059 18.46759,-12.44657 3.147,-4.74339 4.84132,-10.19246 6.13719,-15.39434 0.47021,-1.85594 1.04716,-3.7351 1.29232,-5.77046 0.0838,-0.60641 0.10773,-1.3033 -0.0589,-2.04977 -0.15194,-0.63198 -0.50578,-1.21281 -1.03459,-1.65205 -1.48602,-1.07705 -3.19109,-1.16078 -4.5192,-1.17715 -2.85841,-0.17268 -5.73116,-0.10225 -8.47032,-0.10143 -2.54144,-3.5e-4 -5.02841,-0.0483 -7.57806,0.0497 -1.27651,0.0247 -2.72977,0.0702 -4.16589,0.68205 -1.0449,0.5164 -1.74704,1.41543 -2.06843,2.39987 -0.44454,1.33728 -0.59157,2.66145 -0.79741,3.84405 -0.38717,2.08991 -0.72264,4.08871 -1.61114,5.7548 -0.4745,0.87312 -1.18991,1.6168 -2.02122,1.80376 -1.10519,0.30147 -2.28489,0.36481 -3.40434,0.18679 0,0 -5e-5,-2e-5 -5e-5,-2e-5 -0.6981,-0.24412 -1.20793,-0.10741 -0.99473,-0.17853 -0.23646,-0.12009 0.002,-0.79771 -0.064,-1.71595 0.0159,-1.0939 0.20981,-2.2363 0.38663,-3.41406 0.25,-1.63502 0.54528,-3.25159 0.88754,-4.84749 0.0869,-0.61322 0.68888,-4.86418 0.77572,-5.47739 10e-6,0 16.59483,0.24498 16.59483,0.24498 4.98956,-0.0419 9.65864,0.0191 14.50617,-0.28224 0.84639,-0.0466 1.76367,-0.10133 2.71816,-0.34331 0.46502,-0.0976 0.98847,-0.34985 1.46237,-0.82383 0.27077,-0.35465 0.37907,-0.60631 0.3888,-0.70687 0.11918,-0.30797 0.21485,-0.60579 0.30102,-0.8871 0.28438,-0.92291 0.52595,-1.84574 0.75682,-2.7491 0.71774,-2.8053 1.35556,-5.61949 1.95804,-8.36106 1.34574,-6.11835 2.58464,-11.86283 3.42226,-17.76032 1.08096,-7.49547 -1.26129,-15.1426 -6.49352,-19.90485 -2.85025,-2.55112 -6.32522,-4.17644 -9.82601,-5.04516 -4.74011,-1.17522 -9.59953,-1.24176 -14.09196,-1.00348 -6.68698,0.33552 -12.98088,1.52056 -18.57315,4.26384 -4.39683,2.16443 -8.10423,5.2978 -10.67923,9.09688 -3.27734,4.88235 -4.9354,10.53657 -6.05465,15.57556 -2.33441,10.40517 -4.42859,20.97544 -6.03234,29.16525 -0.93235,4.76089 -1.73939,8.96651 -2.49274,13.13926 -0.26925,1.4911 -0.52084,2.90854 -0.74886,4.33897 0,0 0,2e-5 0,2e-5 -0.0737,0.46184 -0.14488,0.92277 -0.20586,1.39174 0,0 0,10e-6 0,10e-6 -0.0336,0.23223 -0.0742,0.52128 -0.0785,0.87137 0.0113,2.23194 0.58408,4.34164 1.19354,6.16406 0.64689,2.01214 1.41855,3.90947 2.66766,5.56894 2.07619,2.68395 4.96792,4.35042 7.43846,5.43769 4.02934,1.79778 8.07148,2.5955 11.20616,2.98854 3.82277,0.47909 7.74982,0.31821 9.96477,0.21674 3.89087,-0.37387 5.78094,-0.70547 7.35838,-1.05609 1.18646,-0.26372 2.06946,-0.5302 2.05203,-0.5251 0,0 0,0 0,0 -0.12867,-0.48382 -0.12867,-0.48382 -0.12867,-0.48382"
				id="path4229-3-6"
				inkscape:connector-curvature="0"
				inkscape:path-effect="#path-effect4634"
				inkscape:original-d="m 708.83744,373.12422 c 7.70953,-1.84059 13.80303,-5.94301 17.86817,-12.02922 2.63709,-3.95053 4.17286,-7.81078 5.99896,-15.08264 2.476,-9.8555 2.9094,-9.50725 -11.82086,-9.50725 -13.21066,0 -12.46745,-0.33532 -13.62534,6.15136 -0.99916,5.6003 -2.10745,7.72755 -4.35054,8.34678 -1.04335,0.28841 -2.76722,0.38255 -3.83073,0.20999 -1.88942,-0.30642 -1.93408,-0.37473 -1.89851,-2.89766 0.0256,-1.42059 0.6036,-5.22533 1.29629,-8.45525 l 1.26021,-5.87252 17.07943,-0.15009 c 15.39053,-0.13137 17.16571,-0.24347 17.95192,-1.11822 0.84494,-0.9384 5.41879,-21.74959 6.58028,-29.93603 1.09568,-7.73106 -1.08198,-14.44552 -6.17199,-19.02082 -5.07272,-4.56128 -12.26066,-6.35716 -23.198,-5.79361 -8.18822,0.42135 -12.68843,1.45027 -18.18202,4.16191 -8.75434,4.31901 -13.29337,11.04198 -16.20068,23.99465 -3.35919,14.97237 -9.53402,46.50101 -9.53402,48.68766 0,3.16318 1.83072,8.73293 3.65631,11.12653 3.05173,4.00067 9.7612,7.0027 17.97485,8.04059 5.05536,0.63852 14.6816,0.20732 19.14627,-0.85867 z"
				inkscape:export-xdpi="25.637558"
				inkscape:export-ydpi="25.637558"/>
		<path
				style="display:inline;fill:none;fill-opacity:1;stroke:#666666;stroke-width:1;stroke-miterlimit:4;stroke-dasharray:none;stroke-opacity:1"
				d="m 715.2864,311.19799 c 1.74489,-7.60998 1.7618,-9.08474 0.1282,-10.71848 -2.72328,-2.72277 -8.16956,-1.47885 -10.29457,2.35071 -1.00924,1.81978 -2.94589,9.47325 -2.94589,11.64419 0,0.61756 1.2575,0.77895 6.09209,0.77895 l 6.09061,0 0.92902,-4.05537 z"
				id="path4221-3-1"
				inkscape:connector-curvature="0"
				inkscape:export-xdpi="25.637558"
				inkscape:export-ydpi="25.637558"/>
		<path
				style="display:inline;fill:none;fill-opacity:1;stroke:#666666;stroke-width:1;stroke-miterlimit:4;stroke-dasharray:none;stroke-opacity:1"
				d="m 715.2864,311.19799 c 1.74489,-7.60998 1.7618,-9.08474 0.1282,-10.71848 -2.72328,-2.72277 -8.16956,-1.47885 -10.29457,2.35071 -1.00924,1.81978 -2.94589,9.47325 -2.94589,11.64419 0,0.61756 1.2575,0.77895 6.09209,0.77895 l 6.09061,0 0.92902,-4.05537 z"
				id="path4221-4-0-8"
				inkscape:connector-curvature="0"
				inkscape:export-xdpi="25.637558"
				inkscape:export-ydpi="25.637558"/>
		<path
				style="display:inline;fill:none;stroke:#666666;stroke-width:1;stroke-miterlimit:4;stroke-dasharray:none;stroke-opacity:1"
				d="m 529.46333,372.53547 c -3.49344,-1.13559 -6.40853,-3.75078 -7.91026,-7.02815 -0.52528,-1.1491 -0.88402,-2.37326 -1.04453,-3.63098 0,0 0,-5e-5 0,-5e-5 -0.25647,-2.07146 -0.22068,-4.12274 -0.21368,-6.07909 0.0124,-6.30085 0.88336,-12.4874 2.682,-18.30848 1.51898,-4.96414 3.71293,-9.75442 7.22787,-13.53764 1.6944,-1.81563 3.63086,-3.41822 5.84123,-4.591 3.47134,-1.82274 7.21051,-3.0032 10.70532,-4.17928 3.66515,-1.23949 7.17074,-2.36201 10.58583,-3.78967 1.7211,-0.71829 3.35395,-1.60165 4.86301,-2.64176 1.59311,-1.11977 2.93171,-2.60167 3.4448,-4.31829 0.3726,-1.28689 0.23191,-2.80209 -0.63567,-3.57057 -0.6013,-0.5942 -1.44675,-0.97021 -2.22102,-0.90123 -0.89032,0.0269 -1.79641,0.53327 -2.60507,1.17013 -2.25623,1.81355 -3.46655,4.79024 -3.89251,7.71471 -0.42955,1.53657 -0.42641,1.52536 -0.85597,3.06192 0,0 -11.6051,0.43208 -11.6051,0.43208 0,0 -11.60843,-0.5 -11.60843,-0.5 -0.16667,-0.60288 -0.33333,-1.20576 -0.5,-1.80864 0.008,-1.09108 0.21072,-2.1058 0.41713,-3.03463 0.29274,-1.35827 0.65731,-2.68584 1.05078,-3.98018 0.84908,-2.80299 1.82516,-5.5323 3.10011,-8.13118 2.70898,-5.53423 7.07626,-10.06223 12.32675,-12.6166 6.85637,-3.30409 14.48924,-4.03424 21.35531,-3.64366 3.52768,0.19032 6.96899,0.72157 10.236,1.76612 2.70361,0.84507 5.35201,2.08618 7.38852,4.15656 1.57691,1.62493 2.79948,3.56614 3.48632,5.69674 0.83629,2.6614 0.96233,5.41456 0.92951,7.96203 -0.031,3.35923 -0.54474,6.66214 -1.07529,9.72448 -1.39665,8.10254 -3.2694,16.8936 -4.67445,23.74349 -1.85142,9.02888 -3.28467,15.82564 -4.60339,23.40118 -0.59458,3.43533 -1.09807,6.47034 -1.14481,9.55007 -0.21157,2.12022 -0.38167,3.82488 -0.59323,5.9451 -26.70133,1.05943 14.31506,-0.56797 -12.38626,0.49145 -4.12872,-0.16667 -8.25744,-0.33333 -12.38616,-0.5 -0.0735,-0.49113 -0.42648,-2.84886 -0.5,-3.33999 0.4259,-1.26979 0.39937,-1.1907 0.82527,-2.46049 -0.33944,0.52853 -1.21172,1.88673 -1.55115,2.41525 -2.05974,1.75789 -4.31619,3.02897 -6.19904,3.95104 -1.45008,0.72322 -2.76422,1.2958 -4.22206,1.59957 0,0 0,0 0,0 -2.06305,0.40556 -4.41892,0.38847 -5.70626,0.41317 -2.15041,0.0444 -3.75002,-0.0193 -4.93475,-0.10078 -1.21329,-0.27094 -1.72006,-0.39893 -2.36612,-0.62785 -0.47017,-0.1666 -0.80128,-0.32289 -0.8767,-0.35821 0.15533,-0.48389 0.15533,-0.48389 0.15533,-0.48389"
				id="path4247-3-6-75"
				inkscape:connector-curvature="0"
				inkscape:path-effect="#path-effect4613"
				inkscape:original-d="m 529.77251,371.58447 c -3.09298,-1.00556 -5.9683,-3.55909 -7.31005,-6.49309 -0.99576,-2.17671 -1.17966,-3.63212 -1.1676,-9.29199 0.0286,-12.74113 3.79096,-24.91102 9.64017,-31.16519 3.56761,-3.81337 5.92625,-5.05663 16.13634,-8.50601 10.59827,-3.58115 12.57276,-4.40528 15.69564,-6.55502 3.93515,-2.70698 5.30099,-7.06851 2.94933,-9.41978 -3.55942,-3.55967 -9.41604,1.24997 -10.41643,8.55497 l -0.36059,2.62976 -11.10974,0 -11.10843,0 0,-1.30864 c 0,-2.70993 2.31087,-10.31972 4.46552,-14.70498 2.58179,-5.25367 7.03559,-9.81783 11.86518,-12.15763 11.5949,-5.61623 31.43571,-4.52895 37.82526,2.07442 3.10237,3.20615 4.19224,6.62321 4.13451,12.95482 -0.0383,4.7757 -0.88072,9.63434 -5.72939,33.27564 -4.67361,22.78936 -5.69413,28.64702 -5.76845,33.13531 l -0.0933,5.45339 -11.88633,0 -11.88616,0 0,-2.83999 0,-2.84023 -2.37612,2.03526 c -1.30771,1.11837 -4.00313,2.83504 -5.99053,3.81362 -3.28142,1.61562 -4.15538,1.79117 -9.5079,1.91012 -3.50298,0.0715 -6.74849,-0.14962 -8.00255,-0.55476 z"
				inkscape:export-xdpi="25.637558"
				inkscape:export-ydpi="25.637558"/>
		<path
				style="display:inline;fill:none;stroke:#666666;stroke-width:1;stroke-miterlimit:4;stroke-dasharray:none;stroke-opacity:1"
				d="m 553.93779,352.24426 c 2.81894,-2.04274 3.55924,-3.83414 5.63096,-13.6284 1.12378,-5.31307 1.97606,-9.7499 1.8946,-9.85951 -0.37502,-0.49258 -8.40658,4.3311 -10.37344,6.23042 -2.56582,2.47701 -3.01266,3.50685 -4.35228,10.02436 -1.11198,5.41721 -0.82099,6.85006 1.65305,8.1261 1.61101,0.83045 3.61347,0.50793 5.54711,-0.89297 z"
				id="path4241-5-2"
				inkscape:connector-curvature="0"
				inkscape:export-xdpi="25.637558"
				inkscape:export-ydpi="25.637558"/>
		<path
				style="display:inline;fill:none;fill-opacity:1;stroke:#666666;stroke-width:1;stroke-miterlimit:4;stroke-dasharray:none;stroke-opacity:1"
				d="m 787.29323,282.63982 c -1.35646,0.87888 -2.67697,1.68355 -4.02549,1.79644 -0.38454,-0.0125 -0.6821,0.03 -0.6929,-0.0718 -0.0608,0.0755 -0.0398,-0.18367 -0.0793,-0.48555 0.0872,-0.65035 0.12977,-1.53669 -0.27265,-2.51198 0,0 -4e-5,-6e-5 -4e-5,-6e-5 -0.61699,-1.01637 -1.54606,-1.48193 -2.3286,-1.60189 -4.3318,-1.04644 -8.8514,-0.54276 -12.84583,-0.52817 -3.71775,-0.002 -7.29734,-0.18367 -11.02145,0.16301 -0.53738,0.0202 -1.24653,0.1056 -2.00606,0.49984 0,0 -7e-5,4e-5 -7e-5,4e-5 -0.52535,0.3606 -0.82863,0.76972 -0.97755,1.1081 0,0 -2e-5,4e-5 -2e-5,4e-5 -1.38276,2.65335 -1.59223,5.61746 -2.10822,8.09222 -2.14514,9.87473 -4.2481,20.4173 -6.07725,29.40999 -2.47824,12.18518 -4.77352,23.46125 -6.96607,34.22168 -1.08953,5.31199 -2.47921,10.05996 -2.70487,15.36113 0,0 0,3e-5 0,3e-5 -0.0921,0.83252 -0.0398,1.91504 0.60407,2.96607 0,0 3e-5,3e-5 3e-5,3e-5 0.63051,0.7726 1.38541,1.13102 1.97485,1.30754 0.71765,0.25178 1.35977,0.29259 1.85722,0.32461 0,0 3e-5,0 3e-5,0 0.98978,0.0935 1.97079,0.14145 2.92745,0.17849 2.67251,0.1042 5.32365,0.11725 7.8876,0.0969 2.6551,-0.0207 5.23412,-0.0768 7.79937,-0.22055 0.93682,-0.0521 1.8742,-0.11417 2.82042,-0.22439 0.31617,-0.0364 0.64671,-0.0807 0.98956,-0.14771 0.1745,-0.0219 0.44412,-0.0855 0.78512,-0.24084 0,0 2e-5,-10e-6 2e-5,-10e-6 0.34845,-0.14232 0.85415,-0.43005 1.33809,-1.0252 0,0 3e-5,-4e-5 3e-5,-4e-5 0.68548,-1.09081 0.90732,-2.2304 1.11307,-3.14204 1.98939,-7.88835 3.66499,-17.35262 5.02232,-24.04835 0.95781,-4.72002 1.88012,-9.10912 2.81999,-13.35703 0.35122,-1.58725 0.69341,-3.10972 1.05651,-4.62248 0.20378,-0.83739 0.35398,-1.59769 0.59954,-2.28269 1.31226,-3.59791 3.09727,-6.70933 5.87807,-8.28392 0.97587,-0.56267 1.89659,-1.03302 2.83089,-1.19649 1.61308,-0.31814 3.43456,-0.26133 5.1458,-0.28754 1.6782,-0.0169 3.285,0.006 4.97796,-0.25066 0.71094,-0.041 1.60459,-0.34647 2.33606,-1.17201 0.12818,-0.20401 0.18098,-0.31341 0.17015,-0.32127 0.038,-0.096 0.068,-0.18135 0.0926,-0.25473 0,0 0,-10e-6 0,-10e-6 0.085,-0.25091 0.15933,-0.49516 0.22898,-0.72786 0.23976,-0.79937 0.4623,-1.60019 0.67328,-2.36585 0.68206,-2.47456 1.31982,-4.91575 1.88631,-7.11939 0.71284,-2.7727 1.33113,-5.24742 1.90044,-7.64823 0.24839,-1.04732 0.47715,-2.03558 0.68936,-3.02424 0.14412,-0.68566 0.28627,-1.35739 0.38344,-2.07435 -0.0338,-0.65379 0.2605,-1.45151 0.49887,-2.27409 0.34193,-1.06667 0.67283,-2.02358 0.90414,-3.11787 0.25506,-1.11027 0.30634,-2.28128 -0.0336,-3.4326 -0.52782,-1.4301 -1.63443,-2.37391 -2.72317,-2.86678 -1.35615,-0.30122 -2.55779,0.0188 -3.34706,0.27103 -1.49856,0.43236 -2.86079,1.02302 -3.85417,1.48301 0,0 -10e-6,10e-6 -10e-6,10e-6 -1.60841,0.7419 -2.83291,1.42653 -3.67086,1.92627 0,0 0,0 0,0 -1.33052,0.77719 -1.82945,1.17748 -2.2069,1.50387 -0.31045,0.26846 -0.30485,0.27669 -0.30485,0.27669"
				id="path4402-5-3"
				inkscape:connector-curvature="0"
				sodipodi:nodetypes="ccsccscccccccccc"
				inkscape:path-effect="#path-effect4641"
				inkscape:original-d="m 787.93453,283.4156 c -3.40571,2.29827 -6.60721,2.94265 -6.43676,0.39627 0.23212,-3.43626 -0.33209,-3.57501 -14.44937,-3.57501 -12.29878,0 -12.46758,0.009 -13.12294,1.24189 -0.69816,1.30279 -1.97452,7.17672 -8.08775,37.23068 -2.04671,10.06341 -5.1816,25.464 -6.96613,34.222 -3.44438,16.9046 -3.46698,17.46726 -0.7504,18.50043 2.17091,0.82516 22.56643,0.66458 24.26023,-0.19122 1.59668,-0.80758 1.24244,0.59623 6.94464,-27.522 1.99742,-9.84334 4.02791,-19.02252 4.51315,-20.39639 1.56424,-4.42982 3.53376,-7.17848 6.31435,-8.81307 2.40258,-1.41145 3.17245,-1.55864 8.47112,-1.62181 4.77241,-0.0598 5.95352,-0.23975 6.51893,-1.01287 0.37994,-0.51998 5.38153,-19.67287 5.83652,-23.0052 -0.0455,-2.76038 4.06424,-8.43748 -0.70153,-10.69705 -2.48566,-0.66314 -10.57067,3.52105 -12.34406,5.24335 z"
				inkscape:export-xdpi="25.637558"
				inkscape:export-ydpi="25.637558"/>
		<path
				style="display:inline;fill:none;fill-opacity:1;stroke:#666666;stroke-width:1;stroke-miterlimit:4;stroke-dasharray:none;stroke-opacity:1"
				d="m 801.70306,353.25357 c 0.11548,4.35155 0.32792,8.69456 0.56716,13.03027 0.0778,1.41139 0.16131,2.81649 0.22501,4.21655 0.0191,0.42282 0.0374,0.83609 0.0426,1.23996 -0.0133,0.26935 0.0194,0.39228 0.006,0.35304 -0.0777,0.19028 -0.0719,0.28626 -0.0582,0.21037 0.056,0.0152 -0.0988,0.0169 -0.35234,0.11043 0,0 -2e-5,10e-6 -2e-5,10e-6 -1.54628,0.34915 -3.27184,0.2549 -5.08533,0.31927 l -2e-5,0 c -1.64894,0.0473 -3.34609,0.0915 -5.0628,0.34325 -0.68265,0.0272 -1.66725,0.20006 -2.57589,0.98742 0,0 -2e-5,3e-5 -2e-5,3e-5 -0.3046,0.38964 -0.41147,0.6421 -0.39226,0.70187 -0.10864,0.28971 -0.1963,0.5689 -0.27585,0.83262 -0.26364,0.86887 -0.49179,1.73645 -0.71282,2.59399 -0.65312,2.53159 -1.24725,5.07268 -1.82182,7.61251 l 0,10e-6 c -0.59467,2.62806 -1.16847,5.26492 -1.69152,7.91583 l -1e-5,2e-5 c -0.19339,0.97969 -0.3823,1.96762 -0.54593,2.967 l -10e-6,1e-5 c -0.0916,0.52479 -0.20847,1.13116 -0.21578,1.82402 0.0694,1.08546 0.59547,1.89156 1.17111,2.36451 0.72589,0.58635 1.39661,0.72041 1.77331,0.72033 0.88837,0.17108 1.76424,0.25735 2.61359,0.32413 l 2e-5,0 c 2.47571,0.19805 4.94677,0.23433 7.40008,0.21929 l 10e-6,0 c 2.69053,-0.0156 5.38656,-0.10482 8.07978,-0.30901 1.95981,-0.14238 4.00799,-0.28904 6.0388,-0.84583 l 0,0 c 0,0 0.002,0.006 0.002,0.006 0,0 0,0 0,0 2.39524,-0.65856 4.78759,-1.56524 6.93959,-2.97134 2.00638,-1.32656 3.68506,-3.05526 5.07417,-4.94737 1.92283,-2.61135 3.53742,-5.41925 4.94646,-8.30527 2.57226,-5.26648 4.76011,-10.68267 6.97211,-16.0543 l 10e-6,-10e-6 c 4.64853,-11.28354 9.29897,-22.56561 13.97321,-33.83712 3.53179,-8.52182 7.02308,-17.0583 10.52315,-25.58903 l 11.26656,-28.71508 c -0.0171,-0.0161 -0.034,-0.032 -0.0511,-0.0481 0,0 -0.14322,-0.13477 -0.14322,-0.13477 -0.18382,-0.17299 -0.36762,-0.34595 -0.55138,-0.51889 -0.27888,-0.008 -0.55767,-0.0166 -0.83637,-0.0247 0,0 -2e-5,0 -2e-5,0 l 0,0 c -0.99421,-0.0287 -1.98836,-0.0556 -2.98242,-0.081 l -2e-5,0 0,0 c -3.03667,-0.0777 -6.07465,-0.14253 -9.11391,-0.18587 l -2e-5,0 c -3.10596,-0.0444 -6.22079,-0.0766 -9.34283,-0.021 -1.08396,0.019 -2.18394,0.0447 -3.29599,0.12738 -0.34313,0.0247 -0.70893,0.0571 -1.09339,0.11981 0,0 -3e-5,0 -3e-5,0 -0.10616,-0.0336 -0.44096,0.0423 -0.93894,0.3381 0,0 -6e-5,6e-5 -6e-5,6e-5 -0.0905,0.0935 -0.16016,0.16714 -0.20891,0.2208 0,0 -3e-5,3e-5 -3e-5,3e-5 -0.13336,0.13112 -0.17797,0.22173 -0.16105,0.24334 0,0 10e-6,1e-5 10e-6,1e-5 -0.0777,0.14535 -0.13909,0.27752 -0.19023,0.39312 -0.18214,0.40678 -0.34214,0.80858 -0.49527,1.19853 -0.53139,1.3508 -1.02586,2.70748 -1.51464,4.05771 -1.52692,4.21729 -2.99164,8.45296 -4.44049,12.68994 -1.64855,4.82086 -3.27105,9.65152 -4.85597,14.49533 l -1e-5,2e-5 c -1.20527,3.68292 -2.41631,7.37761 -3.50037,11.12278 0,0 0,1e-5 0,1e-5 -0.16793,0.55535 -0.34523,1.06396 -0.60942,1.46265 0,0 -2e-5,2e-5 -2e-5,2e-5 -0.29485,0.19674 -0.26031,0.39746 0.0492,0.19272 0.18718,0.0197 0.31153,0.096 0.44812,0.26372 -0.0409,0.0149 -0.0151,-0.18298 -0.0725,-0.51868 -0.12838,-1.67992 0.0469,-3.43898 0.14161,-5.26356 0.40683,-7.55915 0.55489,-15.11757 0.73168,-22.66016 l 0,-3e-5 c 0.10246,-4.34269 0.22429,-8.71203 0.0643,-13.09919 -0.0336,-0.96623 -0.0779,-1.96872 -0.23084,-2.99253 0,0 0,-2e-5 0,-2e-5 0.002,-0.36331 -0.10458,-0.9758 -0.57898,-1.6674 -0.52932,-0.4282 -0.84897,-0.55116 -0.88049,-0.46189 -0.29517,-0.0611 -0.56585,-0.0928 -0.80752,-0.11545 -0.81471,-0.0807 -1.61465,-0.11178 -2.39529,-0.13693 l -2e-5,0 c -2.33598,-0.0768 -4.6642,-0.0772 -6.98221,-0.0677 -3.84677,0.0152 -7.70143,0.0482 -11.56001,0.17975 -0.95618,-0.0108 -2.0527,0.28799 -2.9418,1.12428 l -2e-5,2e-5 c -0.84368,0.98659 -1.11761,2.15605 -1.13894,3.15311 l 0.24167,15.99173 z"
				id="path4422-9-6"
				inkscape:connector-curvature="0"
				sodipodi:nodetypes="scccscccccccccccscccsccs"
				inkscape:path-effect="#path-effect4648"
				inkscape:original-d="m 802.70271,353.22706 c 0.26146,9.85989 0.97731,18.44207 0.81164,19.10771 -0.28123,1.13134 -0.69006,1.22025 -6.4359,1.39824 -4.52398,0.13582 -6.34965,0.40918 -6.95211,1.02813 -0.68786,0.70864 -5.37309,21.41357 -5.37309,23.75091 0,0.42827 0.39565,1.17422 0.87842,1.6576 1.37248,1.37229 19.84748,1.26543 24.93073,-0.14772 l 0,0.006 c 5.3854,-1.49362 8.5487,-3.57339 11.4788,-7.54893 3.44101,-4.66768 5.56717,-9.01914 11.79891,-24.14714 5.97558,-14.50473 10.72455,-26.00326 13.97407,-33.83918 1.21096,-2.92191 5.94751,-14.43683 10.52301,-25.58868 3.72476,-9.07474 11.71375,-28.02556 11.71375,-28.02556 0,0 -26.12043,-0.81969 -27.26434,0.0575 l 0,4e-5 c -0.72997,0.55989 -12.05977,33.69428 -15.01494,43.90592 -0.41235,1.4269 -1.0214,2.3776 -1.5209,2.3776 -0.7136,0 -0.78387,-0.96105 -0.48133,-6.57232 0.19459,-3.61411 0.52325,-13.7985 0.73051,-22.62984 0.29676,-12.65404 0.0475,-16.41805 -0.51504,-17.09676 -0.60204,-0.72335 -19.56994,-0.31861 -21.82217,-0.24178 -2.01265,0.0687 -2.95814,1.00679 -3.11609,3.30467 l 0.24267,15.94419 z"
				inkscape:export-xdpi="25.637558"
				inkscape:export-ydpi="25.637558"/>
		<path
				style="display:inline;fill:none;fill-opacity:1;stroke:#666666;stroke-width:1;stroke-miterlimit:4;stroke-dasharray:none;stroke-opacity:1"
				d="m 868.27574,292.19247 c 0.34524,0.37452 0.76942,0.65407 1.2376,0.82265 0.74039,0.25056 1.44232,0.32232 2.05529,0.36254 3.36969,0.27213 6.7097,0.1679 9.99367,0.16634 10e-6,0 2e-5,0 2e-5,0 3.70959,0.0138 7.65135,0.44053 11.5659,-0.46754 l 10e-6,-10e-6 c 0.76891,-0.14214 1.62758,-0.54271 2.29097,-1.35578 0.52688,-0.79199 0.71221,-1.58647 0.82468,-2.21573 0.50671,-2.29492 1.09124,-4.5697 1.77603,-6.81052 l 10e-6,-10e-6 c 0.26417,-0.86343 0.5382,-1.71289 0.84994,-2.53687 0.21129,-0.53551 0.37054,-1.00815 0.60134,-1.34171 l 0,-1e-5 c 0.31711,-0.57107 1.11267,-0.91767 1.95678,-1.20558 l 2e-5,-10e-6 c 0.92107,-0.25057 1.8756,-0.33947 2.66883,-0.0685 0.1931,0.0832 0.36358,0.15649 0.31476,0.20949 0.20083,0.42628 0.1285,1.09398 0.15375,1.89608 0.002,1.6683 -0.31418,3.34088 -0.89951,4.91452 -0.82285,2.22981 -2.10723,4.31507 -3.49561,6.36226 l -10e-6,10e-6 c -5.65806,8.31213 -12.61801,15.72633 -19.38323,23.32797 -6.46713,7.2603 -13.05764,14.46981 -19.05902,22.19885 -2.39041,3.04623 -4.88678,6.31392 -6.05739,10.268 l 0,1e-5 c -0.4781,1.66068 -0.82479,3.32473 -1.18887,4.95134 l 0,1e-5 c -0.57784,2.57562 -1.12952,5.15638 -1.66037,7.74067 l 0,1e-5 -1.86235,10.19275 10e-6,10e-6 1.30442,1.62249 10e-6,10e-6 c 0.45782,0.44575 1.01755,0.76462 1.63133,0.93161 1.31516,0.32908 2.59281,0.35311 3.76292,0.39789 8.30099,0.37546 16.58935,0.25263 24.84465,0.30157 7.30373,0.0456 14.61461,0.0859 21.93061,-0.0204 1.96713,-0.0285 3.9441,-0.0632 5.92804,-0.1603 l 1e-5,0 c 0.58027,-0.0282 1.17155,-0.0619 1.77183,-0.12005 0.2974,-0.0228 0.67231,-0.0584 1.10676,-0.17608 0,0 3e-5,-1e-5 3e-5,-1e-5 0.66828,-0.15884 1.49046,-0.45614 2.23031,-1.14188 0.66653,-0.75354 0.94314,-1.58034 1.08299,-2.2509 0.3601,-1.37549 0.6281,-2.74621 0.91048,-4.08556 0.45642,-2.16031 0.89844,-4.32248 1.33334,-6.48491 0.41196,-2.04827 0.81901,-4.09956 1.20903,-6.15612 0.13184,-0.69508 0.26323,-1.39442 0.38565,-2.09949 0.0376,-0.21607 0.0754,-0.43825 0.10965,-0.66711 0,0 0,-2e-5 0,-2e-5 0.0162,-0.0725 0.0412,-0.2281 0.0482,-0.46797 -0.0871,-0.7194 -0.32443,-1.13612 -0.49839,-1.27455 -0.27253,-0.40485 -0.58206,-0.77164 -0.914,-1.10199 -0.34821,-0.3537 -0.78895,-0.65586 -1.31487,-0.85592 0,0 -3e-5,-1e-5 -3e-5,-1e-5 -0.82595,-0.28105 -1.61384,-0.35052 -2.3025,-0.39059 -4.10087,-0.30132 -8.17386,-0.16593 -12.19157,-0.16458 -10e-6,0 -2e-5,0 -2e-5,0 -3.84866,-8.3e-4 -7.66818,0.0798 -11.4422,-0.14792 0,0 -2e-5,0 -2e-5,0 -0.68714,-0.0512 -1.2898,-0.0582 -1.7584,-0.21298 -0.0523,-0.18851 -0.083,0.002 0.21821,0.52522 0,0 3e-5,5e-5 3e-5,5e-5 -0.1231,0.1151 0.15917,-0.0405 0.40443,-0.54851 0.52349,-0.76223 1.12278,-1.50001 1.73875,-2.2539 2.38591,-2.91506 4.91406,-5.7308 7.44896,-8.55877 5.16199,-5.75837 10.28512,-11.55459 15.33343,-17.41816 1.82688,-2.12185 3.64723,-4.25406 5.43859,-6.41497 l 10e-6,-2e-5 c 1.05261,-1.2684 2.13489,-2.55238 3.13177,-3.93655 6.71017,-9.32184 10.72783,-20.65769 10.88499,-32.17251 0.0431,-2.67289 0.0757,-5.45529 -0.53093,-8.22083 l -10e-6,-2e-5 c -0.52393,-2.29098 -1.57321,-4.3582 -2.72795,-6.26101 l -10e-6,-2e-5 c -2.46033,-4.04092 -6.50566,-6.84899 -10.85161,-8.40819 -3.45165,-1.23528 -7.08979,-1.42996 -10.56481,-1.53236 l -3e-5,0 c -4.05719,-0.1393 -8.16988,-0.002 -12.21753,0.74229 -7.07021,1.28745 -14.04744,4.35758 -19.05043,9.68054 l -1e-5,2e-5 c -6.19361,6.69279 -8.84772,15.7343 -10.67399,24.3956 -0.32717,1.71587 -0.6932,3.5393 -0.62009,5.4643 0.1186,0.56908 0.44445,1.26879 1.15781,1.89743 l 0.37052,-0.33557"
				id="path4283-9-4"
				inkscape:connector-curvature="0"
				inkscape:path-effect="#path-effect4650"
				inkscape:original-d="m 869.01732,291.52161 c 0.83987,0.92841 1.9985,1.02239 12.54498,1.02239 12.65142,0 13.0056,-0.0895 13.70511,-3.25472 1.06934,-4.84477 2.59792,-9.84691 3.36743,-11.02163 0.95673,-1.45889 3.82429,-2.29471 5.76423,-1.67915 0.9703,0.30742 1.16627,0.82418 1.16627,3.0588 0,6.84615 -4.17275,12.97022 -24.03157,35.26982 -18.94534,21.27281 -23.46288,27.09279 -24.90241,32.07908 -0.45674,1.58303 -1.73021,7.25963 -2.83046,12.61586 l -1.99854,9.73864 1.16823,1.16847 c 1.14928,1.14952 1.62435,1.17127 29.53784,1.33813 19.23458,0.11994 29.04131,-0.0284 30.45201,-0.43709 1.74134,-0.508 2.16841,-0.94481 2.62518,-2.68627 0.66382,-2.53045 3.9636,-18.9375 3.9636,-19.70745 0,-0.30305 -0.50384,-1.05384 -1.11948,-1.66941 -1.05935,-1.05936 -1.86431,-1.11823 -15.10188,-1.11823 -12.02913,0 -13.9824,-0.1207 -13.9824,-0.83563 0,-0.72199 3.03588,-4.43075 9.84754,-12.02869 11.35117,-12.66267 21.55719,-24.5169 23.83659,-27.68611 6.70952,-9.32766 10.55316,-20.68415 10.69689,-31.60178 0.0952,-7.20007 -0.40856,-9.45477 -3.11575,-13.95297 -2.13173,-3.54077 -5.71048,-6.30544 -10.33591,-7.98387 -4.57153,-1.65838 -15.36141,-2.02061 -22.25968,-0.74674 -7.45619,1.3775 -14.23369,4.81347 -18.50145,9.37996 -4.29731,4.5984 -7.79589,11.66459 -10.42411,23.90885 -0.99796,5.38629 -0.58215,6.26719 -0.0723,6.82974 z"
				inkscape:export-xdpi="25.637558"
				inkscape:export-ydpi="25.637558"/>
	</g>
</svg>
