<svg xmlns="http://www.w3.org/2000/svg" width="978.017" height="281.334" viewBox="0 0 916.89 263.75">
	<g stroke-linejoin="round">
		<path d="M95.267 179.621l-56.685.179c-1.521.008.799-22.33 5.204-38.661 4.406-16.33 10.922-25.085 15.214-32.517 4.186-7.25 24.608-26.615 24.608-26.615l33.904 16.003s-13.584 13.386-17.9 35.855c-1.754 9.134-4.345 45.756-4.345 45.756z" fill="#58a323" fill-rule="evenodd" stroke="#fff" stroke-width="2.915"/>
		<path d="M179.804 168.246l.179 56.685c.008 1.522-22.33-.799-38.661-5.204-16.33-4.406-25.084-10.922-32.517-15.213-7.25-4.187-26.615-24.61-26.615-24.61l13.185-.149 2.818-33.754s13.386 13.585 35.855 17.9c9.135 1.755 45.756 4.345 45.756 4.345z" fill="#0d6dab" fill-rule="evenodd" stroke="#fff" stroke-width="2.915"/>
		<path d="M168.236 83.536l56.685-.178c1.522-.008-.798 22.33-5.204 38.66-4.405 16.331-10.922 25.085-15.213 32.517-4.186 7.25-24.609 26.616-24.609 26.616l-.078-12.868-33.826-3.136s13.585-13.385 17.9-35.855c1.755-9.134 4.345-45.756 4.345-45.756z" fill="#e52626" fill-rule="evenodd" stroke="#fff" stroke-width="2.915" stroke-linecap="round"/>
		<path d="M83.54 95.005l-.178-56.685c-.008-1.522 22.33.799 38.661 5.204 16.33 4.406 25.084 10.922 32.517 15.213 7.25 4.186 26.615 24.609 26.615 24.609l-13.12.014-2.883 33.889s-13.386-13.585-35.856-17.9c-9.134-1.755-45.755-4.345-45.755-4.345z" fill="#f60" fill-rule="evenodd" stroke="#fff" stroke-width="2.915"/>
		<path d="M102.863 133.65c-.789 4.105-.496 1.652-1.275 10.908m17.364-43.14s-12.21 12.034-16.09 32.232m-1.275 10.909s12.032 12.21 32.23 16.09c2.233.428 5.767.892 10.496 1.37m17.658-43.149s-12.09-12.243-32.287-16.123c-2.254-.433-5.945-.846-10.732-1.328m25.36 60.6s12.45-12.282 16.33-32.48c.412-2.147.869-6.173 1.329-10.669" fill="none" stroke="#666" stroke-width="1.095" stroke-linecap="round"/>
		<path d="M81.76 81.512s-23.408 22.645-30.444 36.23c-7.75 13.209-11.096 27.094-13.232 42.177-1.039 7.018-2.068 21.656-2.068 21.656l45.074-.166s22.402 23.525 36.42 30.637c12.811 7.432 25.71 10.887 40.294 13.284 7.279 1.065 24.097 2.404 24.097 2.404l-.01-46.266s22.318-20.26 29.418-34.224c7.432-12.81 11.674-27.497 13.796-42.08 1.064-7.28 1.893-23.33 1.893-23.33s-30.514-.354-45.034-.333c-10.704-10.952-21.36-22.414-35.13-29.576-13.539-7.97-28.874-12.133-44.335-14.304-6.014-.988-21.236-1.605-21.236-1.605z" fill="none" stroke="#666" stroke-width="1.166"/>
	</g>
	<g stroke="#fff" stroke-width="3">
		<path d="M356.796 185.106c9.146-1.111 15.82-3.971 20.673-8.858 5.426-5.465 8.846-13.287 11.528-26.362 1.551-7.562 1.669-11.724.465-16.375-1.89-7.291-4.98-11.677-17.821-25.295-7.281-7.72-8.457-9.425-9.045-13.098-.456-2.85.703-8.597 2.088-10.358 1.092-1.388 4.29-2.28 6.104-1.705.92.292 1.092.856 1.081 3.526-.006 2.804-.245 4.385-1.398 9.462-.181.799.125 1.658.844 2.377 1.06 1.06 1.842 1.128 13.152 1.128 11.146 0 12.104-.075 13.107-1.084 2.232-2.231 4.137-12.57 3.869-21.002-.18-5.656-.354-6.503-2.037-9.924-1.088-2.207-2.773-4.537-4.115-5.685-6.767-5.793-21.221-7.452-34.833-4-8.702 2.208-14.18 5.688-18.515 11.763-5.883 8.247-10.543 25.678-9.174 34.332.977 6.186 6.068 13.624 17.66 25.802 3.66 3.846 7.255 7.841 7.99 8.88 1.765 2.498 2.276 5.62 1.65 10.098-1.063 7.61-2.43 9.548-6.73 9.548-2.123 0-2.797-.236-3.287-1.15-.674-1.261-.336-5.423.877-10.776.684-3.024.66-3.333-.341-4.335-1-1-1.976-1.079-13.296-1.079-11.185 0-12.299.092-13.157 1.037-.515.57-1.603 3.905-2.417 7.411-1.906 8.211-2.11 17.041-.505 21.934 1.227 3.741 4.802 8.075 8.366 10.14 5.964 3.456 16.82 4.912 27.217 3.648z" fill="#58a323"/>
		<path d="M419.261 184.877c4.488-.943 8.076-2.43 10.759-4.453 2.502-1.888 3.558-1.835 4.333.219.88 2.331 2.592 2.802 10.194 2.802 6.946 0 9.787-.584 10.39-2.137.317-.817 8.135-38.871 13.22-64.357 1.93-9.67 1.806-10.848-1.213-11.451-3.06-.613-28.746-.412-30.611.239-.945.329-1.876 1.011-2.069 1.516-.194.504-1.34 5.678-2.544 11.496-2.605 12.567-2.476 13.237 2.573 13.237 1.05 0 1.91.069 1.91.162 0 .895-4.51 21.74-4.945 22.856-1.031 2.644-2.822 3.829-5.787 3.829h-2.691v-3.429c0-3.062 10.773-58.516 13.097-67.415 1.133-4.336 2.62-5.782 5.95-5.782 3.792 0 4.24.754 3.41 5.765-.365 2.212-.808 4.674-.981 5.472-.208.948.002 1.771.61 2.378.808.808 2.553.926 13.736.926h12.81l.78-1.537c.428-.846 1.343-4.556 2.033-8.244 3.354-17.919-.968-26.147-15.649-29.796-5.024-1.248-19.916-1.193-25.728.096-12.457 2.763-20.018 9.93-24.245 22.982-.77 2.376-6.248 28.546-14.637 69.914-3.405 16.788-3.181 22.421 1.125 28.336 4.143 5.688 14.479 8.415 24.17 6.376z" fill="#0d6dab"/>
		<path d="M269.867 182.229c.935-.938 2.39-7.401 8.391-37.302l2.736-13.628 3.767.269c2.072.15 4.148.586 4.614.972 1.439 1.194 1.002 4.692-3.1 24.858-4.308 21.174-4.33 21.583-1.306 24.427 1.395 1.31 1.68 1.344 12.91 1.522 12.407.196 14.473-.138 15.056-2.46.192-.764-.037-1.82-.567-2.57-.49-.7-.891-1.944-.891-2.762 0-.82 1.785-10.265 3.967-20.99 3.343-16.432 3.928-20.132 3.722-23.513-.274-4.5-2.316-9.462-4.648-11.296-1.333-1.049-1.872-2.87-.849-2.87.282 0 1.923-1.288 3.646-2.863 4.805-4.392 6.442-8.375 9.28-22.586 2.567-12.858 2.67-16.015.665-20.547-1.597-3.61-4.866-6.976-8.613-8.868-5.977-3.017-8.392-3.288-29.44-3.296-11.378-.003-19.608.212-20.21.535-.558.3-1.189.992-1.4 1.538-.211.547-2.365 10.685-4.785 22.528-2.42 11.843-5.306 25.939-6.416 31.322-1.108 5.384-4.006 19.604-6.439 31.602a12928.48 12928.48 0 01-5.608 27.548c-2.04 9.868-2.25 9.718 13.275 9.515 9.701-.127 11.439-.282 12.243-1.085z" fill="#58a323"/>
		<path d="M293.193 106.552c2.978-1.414 4.12-3.75 5.818-11.903 1.737-8.344 1.52-9.692-1.78-11.071-2.015-.842-8.128-1.13-8.128-.384 0 .42-4.165 20.951-4.78 23.563-.311 1.325-.28 1.335 3.255 1.052 1.963-.158 4.49-.723 5.615-1.257z" fill="#fff"/>
		<path d="M562.83 182.326c.476-.486 2.133-7.31 3.943-16.22 1.72-8.46 4.26-20.918 5.647-27.686 8.367-40.837 15.358-75.957 15.358-77.156 0-.8-.457-1.634-1.082-1.968-.649-.348-5.871-.579-13.057-.579-11.194 0-12.04.068-12.97 1.1-.65.719-1.736 4.732-3.138 11.606-1.178 5.778-3.795 18.56-5.815 28.404-2.019 9.844-5.919 28.972-8.665 42.508-2.748 13.536-5.637 27.73-6.422 31.543-2.024 9.833-2.385 9.587 13.796 9.412 9.444-.099 11.738-.28 12.406-.964zM601.513 182.256c1.149-1.15-.094 4.68 16.431-77.115 4.631-22.919 8.551-42.232 8.711-42.92.189-.805-.103-1.651-.834-2.376-1.059-1.06-1.844-1.128-12.91-1.128-6.561 0-12.233.24-12.799.544-.558.3-1.19.992-1.402 1.538-.367.944-7.402 35.002-19.092 92.443-2.912 14.304-5.225 26.632-5.139 27.393.285 2.54 1.915 2.84 14.54 2.678 9.819-.126 11.725-.286 12.494-1.057zM654.848 184.272c7.71-1.841 13.804-5.944 17.87-12.03 2.637-3.952 4.173-7.812 6-15.085 2.476-9.857 2.91-9.508-11.823-9.508-13.212 0-12.469-.336-13.627 6.152-.999 5.6-2.107 7.728-4.35 8.347-1.044.289-2.768.383-3.832.21-1.89-.306-1.934-.374-1.898-2.897.025-1.421.603-5.226 1.296-8.457l1.26-5.873 17.082-.15c15.392-.131 17.167-.243 17.954-1.118.845-.939 5.419-21.752 6.58-29.94 1.096-7.731-1.081-14.447-6.172-19.022-5.073-4.562-12.262-6.358-23.2-5.795-8.19.422-12.69 1.45-18.185 4.163-8.755 4.32-13.295 11.043-16.202 23.997-3.36 14.974-9.535 46.506-9.535 48.693 0 3.163 1.83 8.734 3.657 11.128 3.052 4 9.762 7.003 17.976 8.041 5.056.639 14.684.207 19.149-.859zM734.145 94.893c-3.406 2.298-6.608 2.943-6.437.396.232-3.436-.332-3.575-14.45-3.575-12.298 0-12.467.01-13.122 1.242-.699 1.303-1.975 7.177-8.088 37.23a116926.67 116926.67 0 01-6.966 34.223c-3.445 16.904-3.467 17.467-.75 18.5 2.17.825 22.566.665 24.26-.191 1.596-.808 1.242.596 6.944-27.522 1.998-9.843 4.028-19.023 4.513-20.396 1.565-4.43 3.534-7.179 6.315-8.814 2.402-1.411 3.172-1.558 8.47-1.621 4.773-.06 5.954-.24 6.52-1.013.38-.52 5.381-19.673 5.836-23.005-.045-2.76 4.065-8.438-.701-10.697-2.486-.664-10.57 3.52-12.344 5.243z" fill="#0d6dab"/>
		<path d="M815.227 102.999c.84.928 1.999 1.022 12.545 1.022 12.652 0 13.006-.09 13.706-3.254 1.069-4.845 2.597-9.847 3.367-11.022.957-1.459 3.824-2.295 5.764-1.68.97.308 1.166.825 1.166 3.06 0 6.846-4.172 12.97-24.031 35.27-18.945 21.272-23.463 27.092-24.902 32.079-.457 1.583-1.73 7.26-2.83 12.615l-2 9.739 1.169 1.168c1.149 1.15 1.624 1.172 29.538 1.339 19.234.12 29.04-.029 30.452-.437 1.74-.508 2.168-.945 2.625-2.687.664-2.53 3.963-18.937 3.963-19.707 0-.303-.503-1.054-1.12-1.67-1.058-1.059-1.863-1.118-15.101-1.118-12.03 0-13.982-.12-13.982-.835 0-.722 3.035-4.431 9.847-12.03 11.351-12.662 21.557-24.516 23.837-27.685 6.71-9.328 10.553-20.684 10.697-31.602.095-7.2-.409-9.455-3.116-13.953-2.132-3.54-5.71-6.305-10.336-7.984-4.572-1.658-15.361-2.02-22.26-.747-7.456 1.378-14.233 4.814-18.501 9.38-4.297 4.599-7.796 11.665-10.424 23.91-.998 5.385-.582 6.266-.073 6.829z" fill="#e52626"/>
		<path d="M661.297 122.339c1.746-7.61 1.762-9.086.128-10.72-2.723-2.723-8.17-1.479-10.295 2.351-1.01 1.82-2.946 9.475-2.946 11.646 0 .617 1.257.779 6.092.779h6.092l.929-4.056z" fill="#0d6dab"/>
		<path d="M661.297 122.339c1.746-7.61 1.762-9.086.128-10.72-2.723-2.723-8.17-1.479-10.295 2.351-1.01 1.82-2.946 9.475-2.946 11.646 0 .617 1.257.779 6.092.779h6.092l.929-4.056z" fill="#fff"/>
		<path d="M475.763 182.732c-3.093-1.006-5.969-3.56-7.31-6.494-.996-2.177-1.18-3.632-1.168-9.293.028-12.742 3.791-24.914 9.641-31.168 3.568-3.814 5.927-5.057 16.138-8.507 10.6-3.582 12.574-4.406 15.697-6.556 3.936-2.707 5.302-7.07 2.95-9.42-3.56-3.56-9.417 1.25-10.417 8.555l-.361 2.63h-22.221v-1.309c0-2.71 2.312-10.32 4.466-14.706 2.582-5.255 7.037-9.82 11.867-12.16 11.596-5.616 31.439-4.529 37.83 2.075 3.102 3.207 4.192 6.624 4.134 12.957-.038 4.776-.88 9.635-5.73 33.279-4.674 22.792-5.695 28.65-5.769 33.139l-.093 5.454h-23.775v-5.681l-2.377 2.035c-1.307 1.119-4.003 2.836-5.99 3.814-3.283 1.616-4.157 1.792-9.51 1.91-3.503.072-6.749-.149-8.003-.554z" fill="#0d6dab"/>
		<path d="M499.931 163.39c2.82-2.043 3.56-3.835 5.632-13.63 1.124-5.314 1.976-9.751 1.895-9.86-.375-.493-8.408 4.33-10.375 6.23-2.566 2.477-3.013 3.507-4.353 10.026-1.112 5.418-.82 6.85 1.654 8.127 1.61.83 3.613.508 5.547-.893z" fill="#fff"/>
		<path d="M748.913 164.704c.261 9.86.977 18.442.812 19.108-.282 1.131-.69 1.22-6.436 1.398-4.524.136-6.35.41-6.953 1.028-.687.71-5.373 21.414-5.373 23.751 0 .429.396 1.175.879 1.658 1.372 1.372 19.847 1.265 24.93-.148v.006c5.386-1.493 8.55-3.573 11.48-7.549 3.44-4.667 5.567-9.019 11.798-24.147a16972.17 16972.17 0 0113.974-33.839c1.211-2.922 5.948-14.437 10.523-25.589 3.725-9.074 11.714-28.025 11.714-28.025s-26.12-.82-27.264.057h0c-.73.56-12.06 33.695-15.015 43.906-.413 1.427-1.022 2.378-1.521 2.378-.714 0-.784-.961-.481-6.573.194-3.614.523-13.798.73-22.63.297-12.653.048-16.417-.515-17.096-.602-.723-19.57-.319-21.822-.242-2.013.069-2.958 1.007-3.116 3.305l.242 15.944z" fill="#0d6dab"/>
	</g>
</svg>